<svg width="50" height="50" viewBox="0 0 50 50" fill="none" xmlns="http://www.w3.org/2000/svg">
<circle cx="25" cy="25" r="25" fill="#FEE500"/>
<path d="M25.0721 12.0654C17.2941 12.0654 11.0215 17.0835 11.0215 23.1754C11.0215 27.1296 13.6309 30.5921 17.545 32.5692L16.2202 37.5171C16.1952 37.5913 16.1914 37.6708 16.2091 37.7471C16.2268 37.8233 16.2654 37.8931 16.3206 37.9486C16.401 38.0195 16.5044 38.0587 16.6116 38.059C16.7005 38.0518 16.7848 38.0167 16.8525 37.9586L22.553 34.1148C23.3945 34.231 24.2427 34.2913 25.0922 34.2954C32.8602 34.2954 39.1428 29.2774 39.1428 23.1754C39.1428 17.0734 32.8401 12.0654 25.0721 12.0654Z" fill="#392020"/>
<path d="M15.9388 21.4189H14.4033C14.213 21.4244 14.025 21.3757 13.8613 21.2784C13.7887 21.2329 13.7262 21.1728 13.6778 21.102C13.6295 21.0312 13.5963 20.9511 13.5803 20.8669C13.5754 20.8135 13.5754 20.7598 13.5803 20.7064C13.5755 20.6064 13.5949 20.5068 13.6369 20.4159C13.6788 20.3251 13.742 20.2457 13.8212 20.1845C13.9962 20.0578 14.2073 19.9908 14.4234 19.9937H19.05C19.2419 19.987 19.4311 20.0396 19.592 20.1443C19.6664 20.1878 19.7301 20.2474 19.7787 20.3185C19.8273 20.3897 19.8595 20.4707 19.873 20.5558C19.8779 20.6059 19.8779 20.6563 19.873 20.7064C19.8777 20.8078 19.8584 20.9088 19.8165 21.0013C19.7746 21.0937 19.7114 21.1749 19.6321 21.2382C19.4614 21.3648 19.2523 21.4286 19.04 21.4189H17.5546V26.6979C17.5607 26.8104 17.5433 26.9229 17.5035 27.0282C17.4638 27.1336 17.4026 27.2297 17.3238 27.3101C17.2483 27.3871 17.1574 27.4474 17.0572 27.4872C16.9569 27.5269 16.8495 27.5452 16.7417 27.541C16.5532 27.5463 16.3687 27.4861 16.2198 27.3704C16.0781 27.2574 15.9818 27.097 15.9489 26.9187C15.9389 26.8455 15.9389 26.7712 15.9489 26.6979L15.9388 21.4189Z" fill="#FEE500"/>
<path d="M20.3159 20.3851C20.3601 20.22 20.4637 20.077 20.607 19.9837C20.7596 19.8972 20.9335 19.8554 21.1088 19.8632H21.4902C21.6761 19.8566 21.8603 19.9017 22.0221 19.9937C22.1935 20.109 22.3153 20.2845 22.3633 20.4855L24.3705 26.1559C24.4226 26.3039 24.4661 26.4547 24.501 26.6076C24.5044 26.6711 24.5044 26.7347 24.501 26.7983C24.5044 26.8961 24.4864 26.9934 24.4483 27.0836C24.4101 27.1737 24.3528 27.2545 24.2802 27.3202C24.2099 27.3922 24.1255 27.449 24.0322 27.487C23.939 27.525 23.8389 27.5433 23.7383 27.5409C23.5835 27.5563 23.428 27.5192 23.2969 27.4354C23.1658 27.3517 23.0667 27.2262 23.0157 27.0793L22.5941 25.8449H19.9546L19.5331 27.0793C19.4833 27.2291 19.383 27.357 19.2494 27.4412C19.1158 27.5254 18.9571 27.5606 18.8005 27.5409C18.6308 27.5454 18.4645 27.4923 18.3288 27.3904C18.1965 27.2852 18.1073 27.1353 18.0779 26.9689C18.0725 26.9122 18.0725 26.855 18.0779 26.7983C18.0606 26.6986 18.0606 26.5969 18.0779 26.4972C18.0779 26.3868 18.1481 26.2663 18.1883 26.1559L20.3159 20.3851ZM21.3195 21.6999L20.3661 24.7108H22.2629L21.3195 21.6999Z" fill="#FEE500"/>
<path d="M24.7309 20.7063C24.7207 20.481 24.8 20.2609 24.9516 20.0941C25.0287 20.0163 25.1212 19.9556 25.2232 19.9158C25.3252 19.8761 25.4344 19.8581 25.5438 19.8631C25.7318 19.8609 25.9153 19.921 26.0657 20.0338C26.2051 20.1515 26.2976 20.3153 26.3266 20.4954C26.3365 20.5653 26.3365 20.6364 26.3266 20.7063V25.9853H29.0865C29.2779 25.9828 29.4659 26.0349 29.6285 26.1357C29.7016 26.1808 29.7643 26.2408 29.8128 26.3117C29.8612 26.3826 29.8941 26.4628 29.9095 26.5473C29.9095 26.5473 29.9095 26.6476 29.9095 26.6978C29.9143 26.7978 29.8949 26.8973 29.8529 26.9882C29.811 27.079 29.7478 27.1585 29.6686 27.2197C29.4937 27.3464 29.2825 27.4133 29.0665 27.4104H25.6742C25.4582 27.4243 25.2434 27.368 25.062 27.2499C24.8998 27.1285 24.7917 26.9483 24.761 26.7481C24.7536 26.6378 24.7536 26.5271 24.761 26.4168L24.7309 20.7063Z" fill="#FEE500"/>
<path d="M30.0901 20.7065C30.0841 20.482 30.1629 20.2634 30.3109 20.0943C30.4613 19.9577 30.6543 19.8769 30.8572 19.866C31.0601 19.855 31.2607 19.9144 31.4249 20.0341C31.5674 20.1508 31.6635 20.3144 31.6959 20.4957C31.7009 20.5659 31.7009 20.6364 31.6959 20.7065V23.1653L34.235 20.2347C34.3329 20.1348 34.4368 20.041 34.5462 19.9538C34.6492 19.8924 34.7674 19.8611 34.8874 19.8634C35.0628 19.8624 35.2343 19.915 35.3792 20.014C35.4474 20.0599 35.5057 20.1192 35.5505 20.1882C35.5953 20.2572 35.6258 20.3344 35.6401 20.4154C35.6442 20.4353 35.6442 20.4559 35.6401 20.4757C35.6352 20.4989 35.6352 20.5228 35.6401 20.5459C35.6398 20.6515 35.6121 20.7553 35.5598 20.8471C35.5066 20.9442 35.4426 21.035 35.3691 21.1179L33.7031 22.9446L35.7104 26.0558V26.1561C35.8146 26.2999 35.8958 26.4591 35.9512 26.6279V26.678C35.9628 26.7943 35.9461 26.9117 35.9024 27.02C35.8587 27.1284 35.7893 27.2245 35.7003 27.3002C35.5329 27.4268 35.3281 27.4939 35.1182 27.491C34.9788 27.4967 34.8403 27.4655 34.7168 27.4006C34.5831 27.3109 34.473 27.1905 34.3956 27.0493L32.5289 24.0385L31.6357 24.9719V26.6479C31.6417 26.8724 31.5629 27.091 31.4149 27.26C31.3356 27.3376 31.2412 27.3981 31.1377 27.4378C31.0341 27.4775 30.9235 27.4956 30.8127 27.491C30.6275 27.4949 30.4467 27.4345 30.3009 27.3203C30.1591 27.2073 30.0629 27.047 30.0299 26.8687C30.02 26.7955 30.02 26.7211 30.0299 26.6479L30.0901 20.7065Z" fill="#FEE500"/>
</svg>
