<svg width="50" height="50" viewBox="0 0 50 50" fill="none" xmlns="http://www.w3.org/2000/svg">
<g clip-path="url(#clip0_1457_3569)">
<path d="M38.5771 50H11.4229C5.13507 50 0 44.8533 0 38.5771V11.4229C0 5.14672 5.14672 0 11.4229 0H38.5771C44.8649 0 50 5.14672 50 11.4229V38.5771C50 44.8649 44.8649 50 38.5771 50Z" fill="white"/>
<path d="M36.8888 10.0254H12.9484C9.55996 10.0254 6.80029 12.7967 6.80029 16.1735V31.0547C6.80029 34.4432 9.5716 37.2028 12.9484 37.2028H21.4021L22.8576 39.718L24.2898 42.1982C24.546 42.6523 25.1981 42.6523 25.4659 42.1982L26.8981 39.718L28.3536 37.2028H36.9004C40.2889 37.2028 43.0486 34.4315 43.0486 31.0547V16.1851C43.0486 12.7967 40.2772 10.0254 36.8888 10.0254Z" fill="url(#paint0_linear_1457_3569)"/>
<path d="M26.5952 20.9248C24.7438 20.9248 23.2417 22.4036 23.2417 24.2317C23.2417 26.0599 24.7438 27.5387 26.5952 27.5387C28.4466 27.5387 29.9487 26.0599 29.9487 24.2317C29.9487 22.4036 28.4583 20.9248 26.5952 20.9248ZM26.5952 25.8154C25.7103 25.8154 24.9883 25.1051 24.9883 24.2317C24.9883 23.3584 25.7103 22.6481 26.5952 22.6481C27.4802 22.6481 28.2021 23.3584 28.2021 24.2317C28.2021 25.1051 27.4918 25.8154 26.5952 25.8154Z" fill="white"/>
<path d="M15.9875 20.9248C15.2655 20.9248 14.5902 21.2043 14.0662 21.6817V18.9453H12.2031V27.3873H14.0662V26.7935C14.5902 27.2593 15.2539 27.5504 15.9875 27.5504C17.6526 27.5504 19.0033 26.0715 19.0033 24.2434C19.0033 22.4153 17.6642 20.9248 15.9875 20.9248ZM15.6149 25.8852C14.9279 25.8852 14.334 25.4777 14.0778 24.8838C13.9963 24.6859 13.9381 24.4647 13.9381 24.2318C13.9381 23.9989 13.9847 23.7776 14.0778 23.5797C14.334 22.9858 14.9279 22.5783 15.6149 22.5783C16.5464 22.5783 17.2916 23.3119 17.2916 24.2318C17.2916 25.1517 16.5464 25.8852 15.6149 25.8852Z" fill="white"/>
<path d="M35.7592 21.0646V21.5886C35.2352 21.181 34.5831 20.9365 33.8845 20.9365C32.1728 20.9365 30.7871 22.3688 30.7871 24.127C30.7871 25.8853 32.1728 27.3175 33.8845 27.3175C34.5947 27.3175 35.2468 27.073 35.7592 26.6654V27.5504C35.7592 27.5504 35.5729 28.4237 34.2687 28.4237V30.0655C34.2687 30.0655 35.6777 30.2286 36.9352 28.971C36.9352 28.971 37.5174 28.3539 37.6455 27.5388V21.0646H35.7592ZM34.2338 25.7456C33.2906 25.7456 32.5337 25.012 32.5337 24.1154C32.5337 23.2188 33.3022 22.4852 34.2338 22.4852C34.8975 22.4852 35.4797 22.8578 35.7592 23.3934C35.8756 23.6147 35.9338 23.8592 35.9338 24.1154C35.9338 24.3715 35.864 24.6277 35.7592 24.8373C35.4797 25.3846 34.8975 25.7456 34.2338 25.7456Z" fill="white"/>
<path d="M19.2129 18.782V20.4704C19.2129 20.4704 20.0746 20.5868 20.2376 21.4252V27.387H22.1589V21.4252V21.3786C22.0424 20.5403 21.5417 19.9115 21.5417 19.9115C20.4472 18.619 19.2129 18.782 19.2129 18.782Z" fill="white"/>
</g>
<defs>
<linearGradient id="paint0_linear_1457_3569" x1="24.9223" y1="42.5364" x2="24.9223" y2="10.0287" gradientUnits="userSpaceOnUse">
<stop stop-color="#00D44D"/>
<stop offset="1" stop-color="#00E56D"/>
</linearGradient>
<clipPath id="clip0_1457_3569">
<rect width="50" height="50" fill="white"/>
</clipPath>
</defs>
</svg>
