<?xml version="1.0" standalone="no"?>
<!DOCTYPE svg PUBLIC "-//W3C//DTD SVG 20010904//EN"
 "http://www.w3.org/TR/2001/REC-SVG-20010904/DTD/svg10.dtd">
<svg version="1.0" xmlns="http://www.w3.org/2000/svg"
 width="260.000000pt" height="260.000000pt" viewBox="0 0 260.000000 260.000000"
 preserveAspectRatio="xMidYMid meet">
<metadata>
Created by potrace 1.14, written by Peter Selinger 2001-2017
</metadata>
<g transform="translate(0.000000,260.000000) scale(0.100000,-0.100000)"
fill="#000000" stroke="none">
<path d="M1290 2037 c-16 -8 -28 -26 -34 -50 l-10 -38 -78 3 c-110 3 -120 -8
-119 -131 1 -50 -2 -91 -5 -91 -4 0 -22 10 -41 21 -41 26 -82 32 -101 17 -7
-6 -29 -40 -48 -75 -39 -69 -44 -70 -85 -12 l-19 28 85 105 c47 59 85 110 86
114 0 4 2 15 4 24 5 27 -23 57 -65 69 -48 15 -80 -2 -100 -53 -20 -48 -60
-104 -129 -178 -94 -99 -87 -122 61 -220 l66 -44 -21 -39 c-25 -43 -58 -74
-132 -121 -47 -30 -50 -34 -49 -71 0 -22 8 -57 18 -77 27 -57 55 -57 214 -4
84 29 132 40 133 33 2 -38 12 -72 21 -78 9 -6 49 -4 113 5 11 1 24 12 30 24
11 25 3 24 252 22 138 -1 163 2 171 15 7 13 11 7 21 -25 7 -23 19 -44 27 -47
20 -7 126 20 234 61 87 33 88 33 94 12 3 -12 6 -31 6 -43 0 -32 30 -36 83 -13
67 30 71 44 42 135 -41 125 -66 170 -97 173 -37 4 -60 -30 -52 -79 4 -20 2
-39 -2 -42 -18 -11 -99 -12 -99 -1 0 6 25 39 55 74 30 35 63 72 73 84 9 12 25
30 35 41 40 45 80 101 86 121 9 31 -36 82 -79 90 -47 8 -70 -8 -107 -76 -18
-33 -38 -60 -44 -60 -7 0 -23 15 -38 34 l-25 34 23 23 c35 36 124 153 140 184
20 39 3 83 -40 101 -64 27 -69 24 -132 -73 -15 -23 -47 -63 -72 -89 -25 -26
-57 -65 -71 -87 -15 -22 -30 -34 -33 -28 -4 6 -6 46 -4 90 3 105 -9 120 -87
114 -30 -2 -55 -3 -55 0 0 2 9 14 20 27 23 27 24 31 8 53 -17 22 -95 30 -128
14z m64 -268 c6 -6 10 -67 7 -94 0 -5 -33 -11 -71 -12 l-70 -2 0 53 c0 29 2
55 5 57 6 7 122 5 129 -2z m-294 -211 c1 -51 3 -114 5 -141 4 -60 -9 -68 -36
-22 -14 23 -27 34 -36 31 -8 -3 -19 -6 -23 -6 -5 0 -21 -11 -36 -25 -18 -17
-39 -25 -63 -26 -20 0 -44 -2 -53 -4 -21 -4 -23 8 -5 27 6 7 44 49 82 93 39
44 72 82 75 85 3 3 20 24 39 48 18 23 36 40 41 37 4 -2 8 -46 10 -97z m528 63
c84 -49 132 -83 132 -93 0 -5 -28 -50 -62 -99 -62 -90 -62 -90 -101 -87 l-40
3 3 95 c2 92 7 187 9 203 2 11 6 9 59 -22z m-227 -145 c1 -41 -2 -90 -7 -95
-4 -4 -126 -2 -131 2 -3 4 -6 79 -4 109 1 14 13 18 59 20 76 4 82 1 83 -36z"/>
<path d="M1195 1184 c-8 -9 -15 -31 -15 -49 0 -19 -3 -36 -8 -39 -7 -4 -121
-10 -407 -21 -228 -9 -242 -14 -224 -81 17 -62 9 -61 429 -64 l65 -1 -25 -20
c-30 -26 -233 -146 -312 -185 -55 -28 -75 -52 -69 -84 5 -24 32 -50 54 -50 25
0 232 87 370 156 59 30 112 54 116 54 5 0 8 -48 9 -107 1 -89 4 -109 19 -124
25 -25 75 -30 112 -11 52 25 57 40 66 241 3 69 7 126 9 128 1 2 135 4 297 5
324 3 325 4 355 66 18 39 12 82 -17 108 -22 20 -28 20 -319 8 -317 -13 -305
-14 -305 18 -1 40 -12 47 -90 53 -39 4 -75 8 -82 10 -7 2 -19 -3 -28 -11z"/>
<path d="M1649 866 c-2 -3 -33 -7 -68 -10 -35 -3 -66 -8 -69 -11 -7 -6 26
-132 43 -165 27 -51 58 -63 202 -74 69 -6 75 0 62 64 -4 19 -10 52 -13 73 -7
44 -30 79 -67 101 -26 15 -83 29 -90 22z m-11 -71 c28 -13 67 -39 86 -57 37
-36 72 -98 56 -98 -5 0 -10 4 -10 9 0 26 -88 104 -153 136 -40 19 -63 35 -52
35 11 0 44 -11 73 -25z"/>
</g>
</svg>
