<svg width="24" height="24" viewBox="0 0 24 24" fill="none" xmlns="http://www.w3.org/2000/svg">
<path d="M6 7.12365C6 5.39852 7.44585 4 9.22939 4H14.7706C16.5541 4 18 5.39852 18 7.12365C18 8.21604 17.4203 9.17748 16.5422 9.73577C17.4203 10.2941 18 11.2555 18 12.3479C18 14.0731 16.5541 15.4716 14.7706 15.4716H14.7005C13.8644 15.4716 13.1024 15.1642 12.5289 14.6599V17.5381C12.5289 19.2862 11.0453 20.6957 9.24679 20.6957C7.4677 20.6957 6 19.3014 6 17.572C6 16.4796 6.57968 15.5183 7.45772 14.9599C6.57965 14.4016 6 13.4402 6 12.3479C6 11.2555 6.57972 10.2941 7.45782 9.73577C6.57972 9.17748 6 8.21604 6 7.12365ZM11.4711 10.2474H9.22939C8.03005 10.2474 7.05782 11.1878 7.05782 12.3479C7.05782 13.5035 8.02256 14.4411 9.21551 14.4483H9.22939H11.4711V10.2474ZM12.5289 12.3479C12.5289 13.5079 13.5011 14.4484 14.7005 14.4484H14.7706C15.97 14.4484 16.9422 13.5079 16.9422 12.3479C16.9422 11.1878 15.97 10.2474 14.7706 10.2474H14.7005C13.5011 10.2474 12.5289 11.1878 12.5289 12.3479ZM9.22939 15.4716L9.21551 15.4715C8.02256 15.4788 7.05782 16.4164 7.05782 17.572C7.05782 18.7278 8.04306 19.6725 9.24679 19.6725C10.4699 19.6725 11.4711 18.7126 11.4711 17.5381V15.4716H9.22939ZM9.22939 5.0232C8.03005 5.0232 7.05782 5.96363 7.05782 7.12365C7.05782 8.28374 8.03008 9.22414 9.22939 9.22414H11.4711V5.02316L9.22939 5.0232ZM12.5289 9.22414H14.7706C15.97 9.22414 16.9422 8.28374 16.9422 7.12365C16.9422 5.9636 15.97 5.0232 14.7706 5.0232H12.5289V9.22414Z" fill="#F12711"/>
</svg>
