<svg width="24" height="24" viewBox="0 0 24 24" fill="none" xmlns="http://www.w3.org/2000/svg">
<path d="M11.7002 4C12.453 4 13.179 4.0961 13.8784 4.28829C14.5777 4.48048 15.2291 4.75809 15.8323 5.12112C16.4356 5.48415 16.9882 5.91124 17.49 6.4024C17.9918 6.89356 18.4216 7.44611 18.7793 8.06006C19.137 8.67401 19.4119 9.32799 19.6041 10.022C19.7963 10.716 19.8951 11.4421 19.9004 12.2002C19.9004 13.0811 19.7669 13.9299 19.5 14.7467C19.2331 15.5636 18.8514 16.3136 18.3549 16.997C17.8584 17.6803 17.2684 18.2783 16.5851 18.7908C15.9017 19.3033 15.1383 19.701 14.2948 19.984C14.2788 19.9893 14.2548 19.992 14.2227 19.992C14.1907 19.992 14.1667 19.9947 14.1507 20C14.0225 20 13.9211 19.9626 13.8463 19.8879C13.7716 19.8131 13.7342 19.7144 13.7342 19.5916V18.4705C13.7342 18.1021 13.7369 17.7257 13.7422 17.3413C13.7422 17.0691 13.7022 16.7941 13.6221 16.5165C13.542 16.2389 13.3979 16.0067 13.1897 15.8198C13.809 15.7504 14.3509 15.625 14.8153 15.4434C15.2798 15.2619 15.6695 15.0057 15.9845 14.6747C16.2995 14.3437 16.5344 13.9433 16.6892 13.4735C16.844 13.0037 16.9241 12.4378 16.9294 11.7758C16.9294 11.3594 16.86 10.967 16.7212 10.5986C16.5824 10.2302 16.3715 9.88856 16.0886 9.57357C16.1473 9.42409 16.19 9.26927 16.2167 9.10911C16.2434 8.94895 16.2568 8.78879 16.2568 8.62863C16.2568 8.42042 16.2354 8.21488 16.1927 8.01201C16.15 7.80914 16.0886 7.60627 16.0085 7.4034C15.9818 7.39273 15.9525 7.38739 15.9204 7.38739C15.8884 7.38739 15.859 7.38739 15.8323 7.38739C15.6615 7.38739 15.4826 7.41408 15.2958 7.46747C15.1089 7.52085 14.9248 7.59026 14.7432 7.67568C14.5617 7.76109 14.3829 7.85452 14.2067 7.95596C14.0305 8.05739 13.8784 8.15349 13.7502 8.24424C13.0829 8.05739 12.3996 7.96396 11.7002 7.96396C11.0008 7.96396 10.3175 8.05739 9.65015 8.24424C9.51668 8.15349 9.36453 8.05739 9.19369 7.95596C9.02286 7.85452 8.84668 7.76376 8.66516 7.68368C8.48365 7.6036 8.2968 7.5342 8.1046 7.47548C7.91241 7.41675 7.73357 7.38739 7.56807 7.38739H7.47998C7.44795 7.38739 7.41859 7.39273 7.39189 7.4034C7.31715 7.60093 7.25842 7.80113 7.21572 8.004C7.17301 8.20687 7.14898 8.41508 7.14364 8.62863C7.14364 8.78879 7.15699 8.94895 7.18368 9.10911C7.21038 9.26927 7.25309 9.42409 7.31181 9.57357C7.02886 9.88322 6.81798 10.2222 6.67918 10.5906C6.54037 10.959 6.47097 11.354 6.47097 11.7758C6.47097 12.4271 6.54838 12.9903 6.7032 13.4655C6.85802 13.9406 7.09293 14.341 7.40791 14.6667C7.72289 14.9923 8.11261 15.2513 8.57708 15.4434C9.04154 15.6356 9.58342 15.7638 10.2027 15.8278C10.0479 15.9666 9.93043 16.1321 9.85035 16.3243C9.77027 16.5165 9.71421 16.7167 9.68218 16.9249C9.53804 16.9943 9.38589 17.0477 9.22573 17.0851C9.06557 17.1225 8.90541 17.1411 8.74524 17.1411C8.40357 17.1411 8.12062 17.0611 7.8964 16.9009C7.67217 16.7407 7.47197 16.5219 7.2958 16.2442C7.23173 16.1428 7.15432 16.0414 7.06356 15.9399C6.97281 15.8385 6.87404 15.7477 6.76727 15.6677C6.66049 15.5876 6.54571 15.5235 6.42292 15.4755C6.30013 15.4274 6.17201 15.4007 6.03854 15.3954H5.94244C5.89973 15.3954 5.85969 15.4034 5.82232 15.4194C5.78495 15.4354 5.74758 15.4515 5.71021 15.4675C5.67284 15.4835 5.65682 15.5102 5.66216 15.5475C5.66216 15.6116 5.69953 15.673 5.77427 15.7317C5.84902 15.7905 5.91041 15.8385 5.95846 15.8759L5.98248 15.8919C6.09993 15.9826 6.20137 16.0681 6.28679 16.1481C6.37221 16.2282 6.45229 16.3163 6.52703 16.4124C6.60177 16.5085 6.66316 16.6099 6.71121 16.7167C6.75926 16.8235 6.82065 16.9489 6.8954 17.0931C7.07691 17.5095 7.3305 17.8111 7.65616 17.998C7.98181 18.1849 8.37421 18.2809 8.83333 18.2863C8.97214 18.2863 9.11094 18.2783 9.24975 18.2623C9.38856 18.2462 9.52736 18.2222 9.66617 18.1902V19.5836C9.66617 19.7117 9.6288 19.8131 9.55405 19.8879C9.47931 19.9626 9.37521 20 9.24174 20H9.17768C9.15098 20 9.12696 19.9947 9.10561 19.984C8.26743 19.7117 7.504 19.3193 6.81532 18.8068C6.12663 18.2943 5.5367 17.6937 5.04555 17.005C4.55439 16.3163 4.17534 15.5636 3.90841 14.7467C3.64147 13.9299 3.50534 13.0811 3.5 12.2002C3.5 11.4474 3.5961 10.7214 3.78829 10.022C3.98048 9.32266 4.25809 8.67134 4.62112 8.06807C4.98415 7.4648 5.41124 6.91225 5.9024 6.41041C6.39356 5.90858 6.94611 5.47881 7.56006 5.12112C8.17401 4.76343 8.82799 4.48849 9.52202 4.2963C10.216 4.1041 10.9421 4.00534 11.7002 4Z" fill="#F12711"/>
</svg>
