<svg width="24" height="24" viewBox="0 0 24 24" fill="none" xmlns="http://www.w3.org/2000/svg">
<path d="M20.4341 12.9044V18.8984C20.4171 19.5954 20.0791 19.9804 19.3811 20.0384C18.5801 20.1044 17.7751 20.1464 16.9711 20.1944C15.3511 20.2944 13.7308 20.3924 12.1101 20.4884C10.6751 20.5734 9.24009 20.6484 7.80709 20.7454C7.17309 20.7864 6.67409 20.5864 6.32309 20.0424C6.21909 19.8814 6.08609 19.7364 5.96809 19.5824C5.36809 18.8084 4.77309 18.0324 4.17009 17.2624C3.76483 16.7655 3.54965 16.1405 3.56309 15.4994C3.58309 12.0894 3.57109 8.68145 3.57309 5.27245C3.57309 5.14378 3.58309 5.01578 3.60309 4.88845C3.69509 4.38845 4.00509 4.07845 4.51109 4.03045C5.33909 3.95245 6.18009 3.89845 7.01509 3.83545L11.0051 3.54145C12.2831 3.44845 13.5611 3.35945 14.8391 3.25845C15.4797 3.2065 16.1165 3.3955 16.6251 3.78845C17.7511 4.60545 18.8951 5.39545 20.0371 6.19245C20.1693 6.27725 20.2764 6.39588 20.3472 6.53602C20.4181 6.67617 20.4501 6.83272 20.4401 6.98945C20.4291 8.96045 20.4341 10.9324 20.4341 12.9044ZM19.2721 12.9814V7.87745C19.2721 7.38545 19.0991 7.21545 18.6221 7.24345L14.4721 7.47945L9.38209 7.77745C8.78409 7.81145 8.18609 7.84811 7.58809 7.88745C7.27109 7.90945 7.12709 8.04945 7.08009 8.36045C7.06809 8.45045 7.06309 8.54045 7.06509 8.63045V18.4904C7.06509 19.2574 7.26909 19.4494 8.03909 19.4044C8.80909 19.3594 9.57809 19.3094 10.3561 19.2644L18.5951 18.7914C19.0371 18.7664 19.2381 18.5714 19.2731 18.1324C19.2791 18.0554 19.2731 17.9784 19.2731 17.8964L19.2721 12.9814ZM18.0251 6.06545L18.0521 6.01445C17.9917 5.94027 17.9248 5.87166 17.8521 5.80945C17.3061 5.41045 16.7541 5.01945 16.2091 4.62645C15.8521 4.35345 15.4091 4.21645 14.9601 4.24145C14.0661 4.29545 13.1741 4.36645 12.2801 4.43145L6.53609 4.84845C6.12409 4.87845 5.70709 4.91045 5.30509 4.95845C5.26011 4.96744 5.21779 4.98663 5.18138 5.01454C5.14498 5.04245 5.11546 5.07834 5.09509 5.11945C5.07809 5.16845 5.15909 5.27845 5.22209 5.32945C5.67209 5.69245 6.13009 6.04945 6.58409 6.40745C6.82909 6.61145 7.14209 6.71745 7.46009 6.70445C7.61509 6.69745 7.77009 6.70445 7.92409 6.69045L12.0921 6.43445L17.6301 6.10845C17.7621 6.09311 17.8938 6.07878 18.0251 6.06545Z" fill="#F12711"/>
<path d="M15.5239 14.6884V10.0284C15.2719 9.99837 15.0309 9.96337 14.7879 9.94537C14.6549 9.93537 14.6239 9.87538 14.6379 9.75838C14.6507 9.63146 14.7064 9.51272 14.7959 9.4218C14.8854 9.33087 15.0032 9.27322 15.1299 9.25838C15.9329 9.19838 16.7359 9.15738 17.5349 9.10938C17.6539 9.50638 17.5349 9.70137 17.1549 9.77637C16.7359 9.86337 16.7359 9.86337 16.7359 10.2884V17.1334C16.7359 17.2924 16.6939 17.3894 16.5439 17.4364C16.2796 17.5356 16.0102 17.6207 15.7369 17.6914C15.2979 17.7834 14.9089 17.6614 14.6479 17.2824C14.2845 16.7587 13.9294 16.2293 13.5829 15.6944C12.7789 14.4504 11.9849 13.2014 11.1859 11.9544C11.1699 11.9284 11.1479 11.9034 11.1029 11.8414C11.0929 11.9274 11.0839 11.9764 11.0839 12.0274V16.6874C11.0839 16.8244 11.1279 16.8804 11.2599 16.9054C11.5559 16.9634 11.8509 17.0344 12.1399 17.0994C12.1348 17.2445 12.0773 17.3828 11.978 17.4887C11.8787 17.5946 11.7443 17.6609 11.5999 17.6754C11.3574 17.7081 11.1134 17.7282 10.8689 17.7354C10.2769 17.7714 9.68488 17.7994 9.09388 17.8414C8.92088 17.8534 8.88588 17.7814 8.91588 17.6404C8.92509 17.5558 8.96035 17.4763 9.01679 17.4127C9.07323 17.3491 9.14804 17.3046 9.23088 17.2854C9.41688 17.2404 9.60088 17.1814 9.78488 17.1294V10.4394L8.95588 10.3654C8.9282 10.2791 8.9207 10.1876 8.93397 10.0979C8.94725 10.0082 8.98093 9.92282 9.03242 9.84823C9.08392 9.77364 9.15186 9.71187 9.231 9.66769C9.31013 9.6235 9.39836 9.59808 9.48888 9.59338C10.2139 9.53538 10.9439 9.51337 11.6669 9.43137C11.9759 9.39737 12.1199 9.51137 12.2749 9.75037C13.2979 11.3264 14.3349 12.8964 15.3679 14.4674L15.5239 14.6884Z" fill="#F12711"/>
</svg>
