<svg width="24" height="24" viewBox="0 0 24 24" fill="none" xmlns="http://www.w3.org/2000/svg">
<path d="M19.5 12C19.5 14.1217 18.6835 16.1566 17.2301 17.6569C15.7767 19.1571 13.8054 20 11.75 20C9.69457 20 7.72333 19.1571 6.26992 17.6569C4.81652 16.1566 4 14.1217 4 12M19.5 12C19.5 9.87827 18.6835 7.84344 17.2301 6.34315C15.7767 4.84285 13.8054 4 11.75 4C9.69457 4 7.72333 4.84285 6.26992 6.34315C4.81652 7.84344 4 9.87827 4 12M19.5 12H4" stroke="#757575" stroke-linecap="round" stroke-linejoin="round"/>
<path d="M14.735 12C14.5886 14.9255 13.5447 17.7272 11.7542 20C9.96374 17.7272 8.91985 14.9255 8.77344 12C8.91985 9.07447 9.96374 6.2728 11.7542 4C13.5447 6.2728 14.5886 9.07447 14.735 12Z" stroke="#757575" stroke-linecap="round" stroke-linejoin="round"/>
</svg>
