<svg width="38" height="32" viewBox="0 0 38 32" fill="none" xmlns="http://www.w3.org/2000/svg">
<path d="M9.79381 32C7.86942 32 6.0252 31.6759 4.26117 31.0276C2.49714 30.3499 1.07675 29.4807 0 28.4199L1.89003 23.0276C2.92096 23.9705 4.13517 24.7514 5.53265 25.3702C6.95304 25.9595 8.38488 26.2541 9.82818 26.2541C10.9278 26.2541 11.8099 26.1215 12.4742 25.8564C13.1615 25.5617 13.6655 25.1639 13.9863 24.663C14.307 24.1621 14.4674 23.5875 14.4674 22.9392C14.4674 22.1142 14.2153 21.4659 13.7113 20.9945C13.2073 20.4936 12.543 20.0958 11.7182 19.8011C10.8935 19.477 9.97709 19.1823 8.96907 18.9171C7.98396 18.6225 6.9874 18.2689 5.97938 17.8564C4.99427 17.4438 4.08935 16.9134 3.2646 16.2652C2.43986 15.6169 1.76403 14.7624 1.23711 13.7017C0.733104 12.6409 0.4811 11.2855 0.4811 9.63536C0.4811 7.8674 0.847652 6.26151 1.58076 4.81768C2.33677 3.34438 3.45934 2.18048 4.94845 1.32597C6.46048 0.441989 8.35052 0 10.6186 0C12.1306 0 13.6197 0.235727 15.0859 0.707181C16.5521 1.14917 17.8465 1.82689 18.9691 2.74033L17.2509 8.1768C16.1283 7.35175 15.0057 6.7477 13.8832 6.36464C12.7606 5.95212 11.6609 5.74586 10.5842 5.74586C9.50745 5.74586 8.62543 5.90792 7.93814 6.23204C7.25086 6.55617 6.7583 6.98342 6.46048 7.51381C6.16266 8.01473 6.01375 8.60405 6.01375 9.28177C6.01375 10.0773 6.26575 10.7256 6.76976 11.2265C7.27377 11.698 7.93814 12.081 8.76289 12.3757C9.58763 12.6704 10.4926 12.965 11.4777 13.2597C12.4857 13.5543 13.4822 13.8932 14.4674 14.2762C15.4754 14.6593 16.3918 15.175 17.2165 15.8232C18.0412 16.4715 18.7056 17.326 19.2096 18.3867C19.7365 19.4475 20 20.7882 20 22.4088C20 24.1473 19.622 25.7385 18.866 27.1823C18.11 28.6261 16.9759 29.7901 15.4639 30.674C13.9748 31.558 12.0848 32 9.79381 32Z" fill="#FFC800"/>
<path d="M31 16C29.6427 16 28.4379 15.7214 27.3856 15.1643C26.3333 14.6071 25.5022 13.8411 24.8922 12.8661C24.2974 11.8756 24 10.7458 24 9.47679C24 8.20774 24.2974 7.08571 24.8922 6.11071C25.5022 5.13571 26.3333 4.37738 27.3856 3.83571C28.4379 3.27857 29.6427 3 31 3C32.3573 3 33.5621 3.27857 34.6144 3.83571C35.6819 4.37738 36.5131 5.13571 37.1078 6.11071C37.7026 7.08571 38 8.20774 38 9.47679C38 10.7458 37.7026 11.8756 37.1078 12.8661C36.5131 13.8411 35.6819 14.6071 34.6144 15.1643C33.5621 15.7214 32.3573 16 31 16ZM31 12.4946C31.5033 12.4946 31.9455 12.3786 32.3268 12.1464C32.7233 11.9143 33.0359 11.5738 33.2647 11.125C33.4935 10.6607 33.6078 10.1113 33.6078 9.47679C33.6078 8.84226 33.4935 8.30833 33.2647 7.875C33.0359 7.42619 32.7233 7.08571 32.3268 6.85357C31.9455 6.62143 31.5033 6.50536 31 6.50536C30.512 6.50536 30.0697 6.62143 29.6732 6.85357C29.2919 7.08571 28.9793 7.42619 28.7353 7.875C28.5065 8.30833 28.3922 8.84226 28.3922 9.47679C28.3922 10.1113 28.5065 10.6607 28.7353 11.125C28.9793 11.5738 29.2919 11.9143 29.6732 12.1464C30.0697 12.3786 30.512 12.4946 31 12.4946Z" fill="#FFC800"/>
<path d="M31 30.7778C29.6427 30.7778 28.4379 30.4993 27.3856 29.9421C26.3333 29.385 25.5022 28.6189 24.8922 27.6439C24.2974 26.6534 24 25.5237 24 24.2546C24 22.9856 24.2974 21.8635 24.8922 20.8885C25.5022 19.9135 26.3333 19.1552 27.3856 18.6135C28.4379 18.0564 29.6427 17.7778 31 17.7778C32.3573 17.7778 33.5621 18.0564 34.6144 18.6135C35.6819 19.1552 36.5131 19.9135 37.1078 20.8885C37.7026 21.8635 38 22.9856 38 24.2546C38 25.5237 37.7026 26.6534 37.1078 27.6439C36.5131 28.6189 35.6819 29.385 34.6144 29.9421C33.5621 30.4993 32.3573 30.7778 31 30.7778ZM31 27.2725C31.5033 27.2725 31.9455 27.1564 32.3268 26.9243C32.7233 26.6921 33.0359 26.3516 33.2647 25.9028C33.4935 25.4385 33.6078 24.8891 33.6078 24.2546C33.6078 23.6201 33.4935 23.0862 33.2647 22.6528C33.0359 22.204 32.7233 21.8635 32.3268 21.6314C31.9455 21.3993 31.5033 21.2832 31 21.2832C30.512 21.2832 30.0697 21.3993 29.6732 21.6314C29.2919 21.8635 28.9793 22.204 28.7353 22.6528C28.5065 23.0862 28.3922 23.6201 28.3922 24.2546C28.3922 24.8891 28.5065 25.4385 28.7353 25.9028C28.9793 26.3516 29.2919 26.6921 29.6732 26.9243C30.0697 27.1564 30.512 27.2725 31 27.2725Z" fill="#FFC800"/>
</svg>
