<svg xmlns="http://www.w3.org/2000/svg" version="1.1" xmlns:xlink="http://www.w3.org/1999/xlink" xmlns:svgjs="http://svgjs.dev/svgjs" width="65" height="65"><svg width="65" height="65" viewBox="0 0 65 65" fill="none" xmlns="http://www.w3.org/2000/svg">
<rect width="65" height="65" rx="32.5" fill="#FFC800"></rect>
<path d="M21.7732 49C19.6564 49 17.6277 48.6354 15.6873 47.9061C13.7468 47.1436 12.1844 46.1657 11 44.9724L13.079 38.9061C14.2131 39.9669 15.5487 40.8453 17.0859 41.5414C18.6483 42.2044 20.2234 42.5359 21.811 42.5359C23.0206 42.5359 23.9908 42.3867 24.7217 42.0884C25.4777 41.7569 26.0321 41.3094 26.3849 40.7459C26.7377 40.1823 26.9141 39.5359 26.9141 38.8066C26.9141 37.8785 26.6369 37.1492 26.0825 36.6188C25.5281 36.0552 24.7973 35.6077 23.89 35.2762C22.9828 34.9116 21.9748 34.5801 20.866 34.2818C19.7824 33.9503 18.6861 33.5525 17.5773 33.0884C16.4937 32.6243 15.4983 32.0276 14.5911 31.2983C13.6838 30.5691 12.9404 29.6077 12.3608 28.4144C11.8064 27.221 11.5292 25.6961 11.5292 23.8398C11.5292 21.8508 11.9324 20.0442 12.7388 18.4199C13.5704 16.7624 14.8053 15.453 16.4433 14.4917C18.1065 13.4972 20.1856 13 22.6804 13C24.3436 13 25.9817 13.2652 27.5945 13.7956C29.2073 14.2928 30.6312 15.0552 31.866 16.0829L29.9759 22.1989C28.7411 21.2707 27.5063 20.5912 26.2715 20.1602C25.0367 19.6961 23.827 19.4641 22.6426 19.4641C21.4582 19.4641 20.488 19.6464 19.732 20.011C18.9759 20.3757 18.4341 20.8564 18.1065 21.453C17.7789 22.0166 17.6151 22.6796 17.6151 23.442C17.6151 24.337 17.8923 25.0663 18.4467 25.6298C19.0011 26.1602 19.732 26.5912 20.6392 26.9227C21.5464 27.2541 22.5418 27.5856 23.6254 27.9171C24.7342 28.2486 25.8305 28.6298 26.9141 29.0608C28.0229 29.4917 29.0309 30.0718 29.9381 30.8011C30.8454 31.5304 31.5762 32.4917 32.1306 33.6851C32.7102 34.8785 33 36.3867 33 38.2099C33 40.1657 32.5842 41.9558 31.7526 43.5801C30.921 45.2044 29.6735 46.5138 28.0103 47.5083C26.3723 48.5028 24.2932 49 21.7732 49Z" fill="#F12711"></path>
<path d="M45 31C43.4488 31 42.0719 30.6786 40.8693 30.0357C39.6667 29.3929 38.7168 28.5089 38.0196 27.3839C37.3399 26.2411 37 24.9375 37 23.4732C37 22.0089 37.3399 20.7143 38.0196 19.5893C38.7168 18.4643 39.6667 17.5893 40.8693 16.9643C42.0719 16.3214 43.4488 16 45 16C46.5512 16 47.9281 16.3214 49.1307 16.9643C50.3508 17.5893 51.3007 18.4643 51.9804 19.5893C52.6601 20.7143 53 22.0089 53 23.4732C53 24.9375 52.6601 26.2411 51.9804 27.3839C51.3007 28.5089 50.3508 29.3929 49.1307 30.0357C47.9281 30.6786 46.5512 31 45 31ZM45 26.9554C45.5752 26.9554 46.0806 26.8214 46.5163 26.5536C46.9695 26.2857 47.3268 25.8929 47.5882 25.375C47.8497 24.8393 47.9804 24.2054 47.9804 23.4732C47.9804 22.7411 47.8497 22.125 47.5882 21.625C47.3268 21.1071 46.9695 20.7143 46.5163 20.4464C46.0806 20.1786 45.5752 20.0446 45 20.0446C44.4423 20.0446 43.9368 20.1786 43.4837 20.4464C43.0479 20.7143 42.6906 21.1071 42.4118 21.625C42.1503 22.125 42.0196 22.7411 42.0196 23.4732C42.0196 24.2054 42.1503 24.8393 42.4118 25.375C42.6906 25.8929 43.0479 26.2857 43.4837 26.5536C43.9368 26.8214 44.4423 26.9554 45 26.9554Z" fill="#F12711"></path>
<path d="M45 48C43.4488 48 42.0719 47.6786 40.8693 47.0357C39.6667 46.3929 38.7168 45.5089 38.0196 44.3839C37.3399 43.2411 37 41.9375 37 40.4732C37 39.0089 37.3399 37.7143 38.0196 36.5893C38.7168 35.4643 39.6667 34.5893 40.8693 33.9643C42.0719 33.3214 43.4488 33 45 33C46.5512 33 47.9281 33.3214 49.1307 33.9643C50.3508 34.5893 51.3007 35.4643 51.9804 36.5893C52.6601 37.7143 53 39.0089 53 40.4732C53 41.9375 52.6601 43.2411 51.9804 44.3839C51.3007 45.5089 50.3508 46.3929 49.1307 47.0357C47.9281 47.6786 46.5512 48 45 48ZM45 43.9554C45.5752 43.9554 46.0806 43.8214 46.5163 43.5536C46.9695 43.2857 47.3268 42.8929 47.5882 42.375C47.8497 41.8393 47.9804 41.2054 47.9804 40.4732C47.9804 39.7411 47.8497 39.125 47.5882 38.625C47.3268 38.1071 46.9695 37.7143 46.5163 37.4464C46.0806 37.1786 45.5752 37.0446 45 37.0446C44.4423 37.0446 43.9368 37.1786 43.4837 37.4464C43.0479 37.7143 42.6906 38.1071 42.4118 38.625C42.1503 39.125 42.0196 39.7411 42.0196 40.4732C42.0196 41.2054 42.1503 41.8393 42.4118 42.375C42.6906 42.8929 43.0479 43.2857 43.4837 43.5536C43.9368 43.8214 44.4423 43.9554 45 43.9554Z" fill="#F12711"></path>
</svg><style>@media (prefers-color-scheme: light) { :root { filter: none; } }
@media (prefers-color-scheme: dark) { :root { filter: none; } }
</style></svg>