<svg width="20" height="20" viewBox="0 0 20 20" fill="none" xmlns="http://www.w3.org/2000/svg">
<g clip-path="url(#clip0_2337_4469)">
<path d="M11.1525 15.0131C13.7944 13.8631 15.6088 11.275 15.6088 8.26311C15.6088 4.20874 12.3225 0.922485 8.26816 0.922485C7.24566 0.922485 6.27191 1.13186 5.38753 1.50936L5.43566 1.49124C2.78441 2.68936 0.972534 5.31061 0.972534 8.35499C0.972534 9.38186 1.17878 10.3606 1.55191 11.2519L1.53378 11.2025C2.66503 13.8287 5.23128 15.6337 8.21878 15.6337C9.28128 15.6337 10.29 15.4056 11.1994 14.9956L11.1538 15.0144L11.1525 15.0131Z" stroke="white" stroke-width="1.51213" stroke-linecap="round" stroke-linejoin="round"/>
<path d="M13.4631 13.5594L19.0288 19.0775" stroke="white" stroke-width="1.51213" stroke-linecap="round" stroke-linejoin="round"/>
</g>
<defs>
<clipPath id="clip0_2337_4469">
<rect width="20" height="20" fill="white"/>
</clipPath>
</defs>
</svg>
