<svg width="28" height="28" viewBox="0 0 28 28" fill="none" xmlns="http://www.w3.org/2000/svg">
<path d="M9.3335 9.33334L9.3335 8.16667C9.3335 5.58934 11.4228 3.5 14.0002 3.5V3.5C16.5775 3.5 18.6668 5.58934 18.6668 8.16667L18.6668 9.33334" stroke="#333333" stroke-width="2" stroke-linecap="round"/>
<path d="M17.5 16.3333V14" stroke="#333333" stroke-width="2" stroke-linecap="round"/>
<path d="M10.5 16.3333V14" stroke="#333333" stroke-width="2" stroke-linecap="round"/>
<path d="M4.6665 13.3333C4.6665 11.4477 4.6665 10.5049 5.25229 9.91912C5.83808 9.33334 6.78089 9.33334 8.6665 9.33334H19.3332C21.2188 9.33334 22.1616 9.33334 22.7474 9.91912C23.3332 10.5049 23.3332 11.4477 23.3332 13.3333V16.5C23.3332 20.2712 23.3332 22.1569 22.1616 23.3284C20.99 24.5 19.1044 24.5 15.3332 24.5H12.6665C8.89527 24.5 7.00965 24.5 5.83808 23.3284C4.6665 22.1569 4.6665 20.2712 4.6665 16.5V13.3333Z" stroke="#333333" stroke-width="2"/>
</svg>
