<svg width="37" height="36" viewBox="0 0 37 36" fill="none" xmlns="http://www.w3.org/2000/svg">
<path d="M12.5 18L12.5 12C12.5 8.68629 15.1863 6 18.5 6V6C21.8137 6 24.5 8.68629 24.5 12L24.5 18" stroke="#797979" stroke-width="1.85842" stroke-linecap="round"/>
<path d="M6.21599 16.9082C6.35079 15.2905 6.41819 14.4817 6.95164 13.9908C7.48509 13.5 8.29672 13.5 9.91999 13.5H27.08C28.7033 13.5 29.5149 13.5 30.0484 13.9908C30.5818 14.4817 30.6492 15.2905 30.784 16.9082L31.8323 29.4872C31.9108 30.429 31.95 30.8999 31.6739 31.2C31.3979 31.5 30.9253 31.5 29.9803 31.5H7.01973C6.07467 31.5 5.60215 31.5 5.32608 31.2C5.05001 30.8999 5.08925 30.429 5.16773 29.4872L6.21599 16.9082Z" stroke="#797979" stroke-width="1.85842"/>
</svg>
