<svg width="150" height="150" viewBox="0 0 150 150" fill="none" xmlns="http://www.w3.org/2000/svg">
<circle cx="75" cy="75" r="75" fill="white"/>
<g clip-path="url(#clip0_1520_7754)">
<path d="M111 65.86C111 54.79 102.57 47 92.17 47C84.52 47 77.94 51.86 75 58.84C72.06 51.86 65.49 47 57.83 47C47.43 47 39 54.79 39 65.86C39 67.58 39.71 73.76 43.71 80C53.46 95.2 72.62 113 75 113C77.74 113 96.43 95.1 105.74 80C108.9 74.87 111 67.35 111 65.86Z" stroke="#2E915C" stroke-width="6" stroke-linecap="round" stroke-linejoin="round"/>
<path d="M116 80.005H87.7017L75.4918 94L58.0434 66L54.7995 77.2677H44" stroke="#2E915C" stroke-width="6" stroke-linecap="round" stroke-linejoin="round"/>
</g>
<defs>
<clipPath id="clip0_1520_7754">
<rect width="83" height="72" fill="white" transform="translate(36 44)"/>
</clipPath>
</defs>
</svg>
