<svg width="300" height="60" viewBox="0 0 300 60" fill="none" xmlns="http://www.w3.org/2000/svg">
<g clip-path="url(#clip0_1457_3577)">
<path d="M288.263 0H251.691C245.206 0 239.948 5.25231 239.948 11.7314V48.2686C239.948 54.7477 245.206 60 251.691 60H288.263C294.748 60 300.006 54.7477 300.006 48.2686V11.7314C300.006 5.25231 294.748 0 288.263 0Z" fill="#488C03"/>
<path d="M292.385 31.0583L291.921 29.7268C291.402 28.0747 290.766 26.4615 290.018 24.8994C289.96 24.7382 289.867 24.5919 289.746 24.4706C289.624 24.3493 289.478 24.256 289.317 24.1973C289.156 24.1386 288.983 24.1159 288.813 24.1308C288.642 24.1456 288.476 24.1978 288.327 24.2835C287.984 24.3957 287.694 24.6311 287.514 24.9441C287.334 25.2572 287.277 25.6257 287.353 25.9786L287.599 27.5448C287.607 27.5946 287.604 27.6454 287.592 27.6941C287.579 27.7429 287.557 27.7886 287.526 27.8285C287.495 27.8685 287.457 27.9018 287.413 27.9267C287.369 27.9515 287.321 27.9672 287.271 27.973L284.429 28.2838C284.359 28.2884 284.289 28.2729 284.227 28.2392C284.165 28.2054 284.115 28.1548 284.081 28.0932C284.047 28.0316 284.031 27.9617 284.036 27.8916C284.04 27.8214 284.065 27.754 284.106 27.6973C285.016 26.6943 285.973 25.6091 286.989 24.4418C288.257 22.995 289.611 21.3956 291.052 19.6437C292.285 18.2086 292.089 16.9944 290.465 16.0011C288.84 15.0079 287.592 15.3324 286.719 16.9748C286.372 17.6259 286.055 18.2066 285.768 18.7345C285.574 19.0689 285.392 19.3915 285.18 19.6965C285.149 19.7441 285.107 19.7838 285.058 19.8126C285.009 19.8413 284.954 19.8584 284.897 19.8623C284.84 19.8663 284.783 19.8571 284.731 19.8355C284.678 19.8138 284.631 19.7803 284.593 19.7376C284.405 19.4912 284.206 19.2448 284.006 18.9926C283.807 18.7404 283.419 18.3063 283.078 17.9309C283.009 17.8607 282.97 17.7658 282.97 17.667C282.97 17.5681 283.009 17.4733 283.078 17.403C284.755 15.6629 286.27 13.7742 287.605 11.7602C288.67 10.2156 288.327 9.04248 286.578 8.24084C284.906 7.52522 283.795 8.05509 283.243 9.83043C282.832 11.1326 279.374 14.3646 279.027 14.9101L277.853 16.6698C277.81 16.7416 277.745 16.7968 277.667 16.8266C277.589 16.8563 277.503 16.8588 277.423 16.8337C277.344 16.8085 277.275 16.7572 277.228 16.688C277.182 16.6189 277.16 16.536 277.166 16.4528L277.284 12.6108C277.354 10.9684 276.579 10.2645 274.97 10.4522L273.385 10.6868C273.308 10.6965 273.229 10.6821 273.161 10.6454C273.092 10.6088 273.037 10.5518 273.002 10.4823C272.967 10.4127 272.955 10.3341 272.967 10.2573C272.978 10.1805 273.014 10.1092 273.068 10.0533L273.737 9.37291C273.875 9.23746 273.972 9.06602 274.018 8.87811C274.063 8.6902 274.055 8.49335 273.993 8.30999C273.932 8.12663 273.821 7.9641 273.672 7.84092C273.523 7.71773 273.342 7.63884 273.15 7.61321L271.665 7.35512C270.193 7.12049 269.285 7.72074 268.94 9.15588C268.835 9.53128 268.735 9.89496 268.629 10.2586C268.524 10.6223 265.512 10.1765 265.212 10.1296H265.165C263.431 10.1296 262.601 10.984 262.676 12.6929L262.805 16.6053C262.808 16.6751 262.792 16.7444 262.758 16.8055C262.724 16.8666 262.674 16.9171 262.613 16.9512C262.552 16.9854 262.483 17.0018 262.413 16.9987C262.343 16.9956 262.276 16.9731 262.218 16.9338L260.709 15.9777C259.27 15.0919 258.172 15.3911 257.421 16.8516L255.859 19.7845C255.83 19.8402 255.786 19.8874 255.733 19.9216C255.68 19.9559 255.619 19.976 255.557 19.9801C255.494 19.9842 255.431 19.9722 255.374 19.9451C255.317 19.9181 255.267 19.8769 255.231 19.8255C255.063 19.5909 254.867 19.3446 254.644 19.0865L253.599 17.8723C253.533 17.8026 253.496 17.7102 253.496 17.6142C253.496 17.5182 253.533 17.4258 253.599 17.3561C253.992 16.9572 254.515 16.3531 255.172 15.5436C255.977 14.5523 256.975 13.256 258.178 11.6429C259.306 10.1413 259.014 9.01315 257.304 8.25843C255.593 7.50371 254.462 8.01599 253.91 9.79524C253.064 12.3761 249.113 16.0598 248.749 16.3941C248.73 16.411 248.714 16.4308 248.702 16.4528C247.669 17.9779 247.933 19.2155 249.495 20.1658C250.416 20.7523 251.256 21.2861 251.984 21.7788C252.606 22.2011 253.158 22.5883 253.646 22.952C253.719 23.0051 253.771 23.084 253.789 23.1731C253.808 23.2621 253.792 23.3548 253.745 23.4329C253.284 24.215 252.8 24.9971 252.295 25.7792C251.784 26.5652 248.649 28.2428 248.649 28.2428C247.933 28.6241 247.358 29.1813 247.592 30.2137L247.951 31.4982C248.397 33.4808 249.571 34.1652 251.473 33.5512L255.225 32.3194C256.286 31.9675 257.352 31.5999 258.425 31.2167C258.481 31.1959 258.541 31.1889 258.6 31.1963C258.659 31.2037 258.716 31.2254 258.765 31.2594C258.814 31.2934 258.854 31.3387 258.882 31.3916C258.909 31.4444 258.924 31.5031 258.924 31.5628V32.7828C258.924 33.956 259.511 34.1143 260.568 33.956L263.181 33.6216C264.296 33.4574 263.398 32.4837 263.768 32.3664C264.572 32.0965 275.51 32.3664 275.51 32.3664C275.652 32.3841 275.796 32.3703 275.931 32.3258C276.067 32.2812 276.191 32.2072 276.294 32.109C276.398 32.0107 276.478 31.8908 276.529 31.7577C276.58 31.6247 276.601 31.482 276.591 31.3399V30.3662L277.26 33.035C277.53 34.0263 278.135 34.3666 279.057 34.0615L280.442 33.6979C281.405 33.428 282.511 33.0781 283.76 32.6479C284.875 32.2569 286.108 31.7857 287.458 31.2343C287.514 31.2119 287.573 31.2028 287.632 31.2079C287.692 31.213 287.749 31.2321 287.799 31.2636C287.85 31.2951 287.892 31.3381 287.923 31.3891C287.953 31.4401 287.971 31.4976 287.975 31.5569L288.046 32.777C288.081 33.9736 288.646 34.3333 289.742 33.8562L291.504 33.082C291.696 33.0121 291.872 32.9041 292.02 32.7643C292.169 32.6246 292.288 32.4561 292.37 32.2691C292.452 32.0821 292.495 31.8804 292.496 31.6763C292.498 31.4722 292.458 31.27 292.379 31.0818M262.547 27.8967C262.136 27.6152 262.048 26.9993 261.625 26.3364C261.585 26.2533 261.518 26.186 261.435 26.1456C261.351 26.1051 261.257 26.0938 261.167 26.1136L259.405 26.6415C259.324 26.6678 259.254 26.7211 259.207 26.7926C259.16 26.864 259.139 26.9494 259.147 27.0345C259.218 27.8263 258.701 27.6856 258.507 27.709L255.389 28.0375C255.318 28.0475 255.245 28.0347 255.18 28.001C255.116 27.9672 255.064 27.9142 255.032 27.8495C255 27.7847 254.988 27.7114 255 27.6399C255.011 27.5684 255.045 27.5023 255.096 27.4509C258.419 23.7868 260.795 21.0261 262.224 19.1686C262.27 19.1078 262.335 19.063 262.408 19.0403C262.481 19.0176 262.56 19.0183 262.632 19.0421C262.705 19.0659 262.769 19.1118 262.815 19.1733C262.86 19.2349 262.886 19.3091 262.887 19.3856L263.21 27.7618C263.21 28.1665 262.858 28.1196 262.529 27.8908M272.199 27.2339C272.199 27.2837 272.189 27.333 272.17 27.3789C272.151 27.4249 272.122 27.4665 272.087 27.5014C272.051 27.5364 272.009 27.5639 271.963 27.5824C271.917 27.6009 271.867 27.6101 271.817 27.6093L268.095 27.5272C268.046 27.5264 267.998 27.5161 267.954 27.4968C267.909 27.4775 267.869 27.4497 267.835 27.4148C267.801 27.3799 267.775 27.3388 267.757 27.2936C267.739 27.2485 267.73 27.2003 267.731 27.1518V23.7849C267.731 23.6869 267.77 23.5929 267.839 23.5236C267.909 23.4543 268.003 23.4153 268.101 23.4153H271.823C271.922 23.4153 272.017 23.4541 272.087 23.5232C272.157 23.5923 272.197 23.6863 272.199 23.7849V27.2339ZM272.199 18.5292C272.198 18.6258 272.159 18.718 272.091 18.7869C272.023 18.8557 271.932 18.8958 271.835 18.8988L268.113 18.9868C268.063 18.9883 268.013 18.9798 267.966 18.9615C267.919 18.9433 267.877 18.9158 267.841 18.8807C267.806 18.8456 267.777 18.8036 267.758 18.7573C267.739 18.711 267.73 18.6614 267.731 18.6114V15.8662C267.731 15.7677 267.77 15.6731 267.839 15.6028C267.908 15.5326 268.002 15.4924 268.101 15.4908H271.823C271.923 15.4908 272.018 15.5304 272.089 15.6008C272.159 15.6712 272.199 15.7667 272.199 15.8662V18.5292ZM283.055 23.1807C281.994 24.8035 280.773 26.575 279.391 28.495C279.358 28.5411 279.315 28.5796 279.265 28.6079C279.215 28.6362 279.16 28.6537 279.104 28.6593C278.288 28.7296 277.624 28.7707 277.113 28.7883C277.063 28.7899 277.012 28.7812 276.965 28.7626C276.918 28.744 276.876 28.716 276.84 28.6803C276.804 28.6445 276.776 28.6018 276.757 28.5548C276.739 28.5078 276.73 28.4575 276.732 28.407C276.79 26.8878 276.99 21.3682 277.055 19.5733C277.058 19.513 277.076 19.4545 277.108 19.4034C277.14 19.3522 277.185 19.3102 277.238 19.2814C277.291 19.2525 277.351 19.2377 277.411 19.2385C277.471 19.2393 277.531 19.2556 277.583 19.2859C279.818 20.5764 281.611 21.7104 282.961 22.688C283.037 22.7424 283.089 22.8239 283.107 22.9156C283.124 23.0073 283.106 23.1022 283.055 23.1807Z" fill="white"/>
<path d="M289.508 40.966H273.016C272.92 40.9658 272.828 41.0021 272.758 41.0675C272.688 41.1329 272.646 41.2225 272.64 41.3179L272.2 49.6354C272.094 51.446 271.135 52.4549 269.323 52.6621C267.511 52.8694 266.603 52.0658 266.599 50.2513V45.2362C266.599 45.1719 266.583 45.1085 266.552 45.0524C266.52 44.9962 266.475 44.9493 266.42 44.9161C266.364 44.8829 266.302 44.8647 266.237 44.8632C266.173 44.8617 266.109 44.8771 266.053 44.9077C261.603 47.318 256.998 49.4284 252.267 51.225C252.063 51.3216 251.841 51.3743 251.615 51.3796C251.39 51.3849 251.166 51.3428 250.958 51.256C250.749 51.1691 250.562 51.0395 250.407 50.8755C250.252 50.7115 250.134 50.5169 250.059 50.3041C249.934 50.1115 249.855 49.893 249.826 49.6652C249.798 49.4373 249.822 49.2061 249.896 48.9887C249.97 48.7714 250.092 48.5736 250.254 48.4103C250.415 48.247 250.612 48.1224 250.828 48.0458C254.621 46.1283 258.304 44.0016 261.86 41.6757C261.927 41.6309 261.977 41.5662 262.004 41.4909C262.031 41.4157 262.033 41.3338 262.01 41.2572C261.987 41.1806 261.94 41.1134 261.876 41.0652C261.813 41.0171 261.735 40.9905 261.655 40.9894H249.754C249.165 41.0402 248.579 40.8673 248.112 40.5053C247.645 40.1432 247.332 39.6186 247.235 39.0362C246.895 37.775 247.388 37.1064 248.726 37.036L266.24 36.2852C266.337 36.2793 266.427 36.2373 266.493 36.1677C266.56 36.098 266.597 36.0059 266.599 35.9098V34.6252C266.599 33.5635 267.133 33.0825 268.19 33.1881L271.942 33.5987C272.101 33.5821 272.263 33.6039 272.412 33.6625C272.562 33.7211 272.695 33.8146 272.801 33.9353C272.907 34.056 272.982 34.2002 273.02 34.356C273.059 34.5118 273.059 34.6745 273.022 34.8305L272.987 35.6047C272.984 35.6563 272.992 35.7077 273.011 35.7558C273.03 35.8039 273.058 35.8476 273.094 35.8841C273.131 35.9205 273.175 35.949 273.223 35.9675C273.271 35.9861 273.323 35.9944 273.374 35.9919L289.919 35.2939C291.528 35.2078 292.473 35.8179 292.755 37.124C292.845 37.5984 292.828 38.0867 292.706 38.5538C292.583 39.0208 292.359 39.4549 292.048 39.8248C291.737 40.1946 291.348 40.4909 290.909 40.6923C290.47 40.8937 289.992 40.9952 289.508 40.9894" fill="white"/>
<path d="M285.51 46.708C285.429 46.1041 285.212 45.5265 284.875 45.0185C284.539 44.5105 284.091 44.0854 283.566 43.7751C283.056 43.4462 282.485 43.2245 281.886 43.1237C281.287 43.0228 280.674 43.0449 280.085 43.1886C279.099 43.3541 278.102 43.4482 277.102 43.4701C277.022 43.474 276.945 43.4959 276.875 43.5342C276.805 43.5724 276.744 43.626 276.698 43.6909C276.651 43.7558 276.62 43.8303 276.607 43.9089C276.594 43.9875 276.598 44.0681 276.621 44.1447C276.867 44.9776 277.278 46.4088 277.46 47.2711C277.578 47.8528 277.814 48.4044 278.153 48.8916C278.492 49.3789 278.928 49.7915 279.433 50.1042C280.449 50.7611 281.94 50.6907 282.821 50.6907C283.995 50.6907 285.545 51.1365 285.915 50.8667C286.396 50.5206 285.792 49.107 285.51 46.7021M284.858 49.8872C284.588 49.9927 284.142 49.2537 284.142 49.2537C283.108 47.3532 281.012 45.8046 278.576 45.0245C278.576 45.0245 277.719 44.7782 277.865 44.4379C278.012 44.0977 278.775 44.4086 278.775 44.4086C282.046 45.4703 283.437 46.7549 284.782 49.0132C284.782 49.0132 285.169 49.7581 284.858 49.8813" fill="white"/>
<path d="M2.17197 50.2632C1.95671 50.2935 1.73735 50.2734 1.53119 50.2045C1.32503 50.1357 1.13771 50.0199 0.983999 49.8663C0.830286 49.7127 0.714386 49.5256 0.645442 49.3196C0.576498 49.1137 0.556396 48.8945 0.586717 48.6795L-0.000413412 13.9957C-0.0356412 12.7639 0.299022 11.8665 1.00358 11.3034C1.78357 10.7115 2.721 10.3626 3.69851 10.3004C7.43445 9.94184 11.1982 9.98707 14.9244 10.4353C17.7861 10.7552 20.5687 11.5772 23.1443 12.8636C25.2135 13.906 26.9577 15.4943 28.1877 17.4565C29.3618 19.4437 29.9576 21.7189 29.908 24.026C29.9678 26.4588 29.2859 28.8522 27.9528 30.8889C26.5841 32.8801 24.7041 34.4666 22.5102 35.4817C23.438 37.1551 24.6273 38.6699 26.0329 39.9689C27.3927 41.1912 28.9139 42.2214 30.5538 43.0308C30.8282 43.1397 31.0734 43.3109 31.27 43.5308C31.4667 43.7507 31.6095 44.0133 31.687 44.2978C31.7343 44.5257 31.7332 44.7609 31.6836 44.9883C31.634 45.2156 31.5372 45.43 31.3993 45.6176L28.4636 49.8937C28.3342 50.1278 28.1563 50.3316 27.9416 50.4915C27.7269 50.6513 27.4805 50.7635 27.2189 50.8204C26.751 50.8663 26.2806 50.7636 25.8744 50.5272C23.3289 49.2458 21.0792 47.4478 19.2692 45.248C17.383 42.931 15.949 40.2807 15.0419 37.435C13.0914 37.6485 11.1245 37.6662 9.17056 37.4878L8.95919 48.6795C8.98951 48.8945 8.96941 49.1137 8.90046 49.3196C8.83152 49.5256 8.71562 49.7127 8.56191 49.8663C8.4082 50.0199 8.22087 50.1357 8.01472 50.2045C7.80856 50.2734 7.5892 50.2935 7.37394 50.2632H2.17197ZM8.93571 30.2026C10.5936 30.3771 12.2636 30.4045 13.9263 30.2847C15.2433 30.2028 16.5381 29.9076 17.7603 29.4107C18.7268 29.0212 19.5733 28.3839 20.2145 27.563C20.8259 26.7106 21.1339 25.678 21.0893 24.6302C21.1261 23.5877 20.83 22.5606 20.2438 21.6974C19.6227 20.8593 18.7814 20.2096 17.8131 19.8203C16.5995 19.325 15.3158 19.0222 14.0085 18.9229C12.3536 18.7853 10.6889 18.8207 9.04139 19.0285L8.93571 30.2026Z" fill="black"/>
<path d="M34.2476 48.7145C33.1203 48.3234 32.8033 47.5315 33.2964 46.3389C34.4237 43.7345 35.5862 41.007 36.784 38.1562C37.9817 35.3055 39.1697 32.4118 40.3479 29.475C41.5221 26.5383 42.712 23.625 43.9176 20.7352C45.1232 17.8454 46.2857 15.0826 47.4052 12.447C47.6518 11.8604 47.8514 11.4557 47.9923 11.1565C48.1332 10.8574 48.5149 10.7049 49.0785 10.7049H54.9968C55.2085 10.6772 55.4239 10.7042 55.6222 10.7833C55.8206 10.8623 55.9954 10.9908 56.1299 11.1565C56.3714 11.5605 56.559 11.9943 56.6877 12.447C59.0127 17.7613 61.3104 23.2164 63.5806 28.8122C65.8508 34.4081 68.2561 40.2855 70.7964 46.4444C71.2896 47.641 70.9726 48.4329 69.8453 48.82L64.8782 50.2454C63.7509 50.6364 62.968 50.3197 62.5296 49.2952C61.9308 47.9226 61.3319 46.507 60.733 45.0484C60.1342 43.5898 59.549 42.0745 58.9775 40.5025L46.0606 40.4497C45.4618 42.0139 44.8746 43.5448 44.2993 45.0425C43.7239 46.5402 43.1367 47.9832 42.5379 49.3714C42.1151 50.4624 41.3323 50.7792 40.1893 50.3216L34.2476 48.7145ZM55.807 32.402L52.3195 23.6035C51.791 25.0816 51.2626 26.552 50.7342 28.0145C50.2058 29.477 49.6598 30.9454 49.0961 32.4196L55.807 32.402Z" fill="black"/>
<path d="M77.0143 50.2629C76.799 50.2932 76.5797 50.2731 76.3735 50.2043C76.1673 50.1354 75.98 50.0196 75.8263 49.866C75.6726 49.7125 75.5567 49.5253 75.4877 49.3194C75.4188 49.1134 75.3987 48.8942 75.429 48.6792L74.7949 12.312C74.7949 11.2562 75.3057 10.7283 76.3273 10.7283H82.9854C83.1989 10.6954 83.4171 10.7142 83.6218 10.7831C83.8265 10.852 84.0117 10.9689 84.1618 11.124C84.3119 11.2792 84.4226 11.468 84.4845 11.6747C84.5465 11.8814 84.5579 12.1 84.5178 12.312L84.3064 26.7768L97.7106 10.5875C98.0293 10.1956 98.3917 9.84136 98.7909 9.53167C98.9818 9.41209 99.2064 9.35773 99.4309 9.37677C99.6554 9.39581 99.8677 9.48723 100.036 9.63726L105.267 13.5203C105.469 13.6206 105.646 13.7658 105.783 13.9447C105.92 14.1236 106.015 14.3316 106.06 14.5527C106.077 14.7325 106.053 14.9139 105.989 15.0828C105.925 15.2517 105.822 15.4035 105.69 15.5264L94.1702 28.0379L106.112 45.2478C106.465 45.7405 106.506 46.1452 106.242 46.462C105.926 46.8255 105.562 47.1451 105.161 47.4122L100.881 50.5269C100.69 50.6185 100.479 50.6616 100.267 50.6524C100.055 50.6432 99.8484 50.5819 99.6658 50.4741C99.2962 50.1765 98.9596 49.8403 98.6618 49.4711L87.9349 34.8069L84.0774 38.9128L83.9718 48.6792C84.0021 48.8942 83.982 49.1134 83.913 49.3194C83.8441 49.5253 83.7282 49.7125 83.5745 49.866C83.4208 50.0196 83.2334 50.1354 83.0273 50.2043C82.8211 50.2731 82.6018 50.2932 82.3865 50.2629H77.0143Z" fill="black"/>
<path d="M112.77 50.2625C112.555 50.2928 112.336 50.2727 112.13 50.2038C111.923 50.135 111.736 50.0192 111.582 49.8656C111.429 49.712 111.313 49.5249 111.244 49.3189C111.175 49.113 111.155 48.8938 111.185 48.6788L110.598 13.995C110.539 13.4953 110.6 12.9888 110.774 12.5168C110.948 12.0448 111.232 11.6208 111.602 11.2792C112.372 10.6729 113.317 10.3295 114.297 10.2997C122.712 9.63097 129.099 10.591 133.455 13.1797C137.812 15.7684 139.988 19.7356 139.984 25.0812C140.014 27.0978 139.55 29.0912 138.634 30.8882C137.707 32.645 136.364 34.1492 134.723 35.2698C132.801 36.5588 130.648 37.465 128.382 37.9387C125.545 38.5362 122.638 38.7336 119.746 38.5253L119.534 48.6612C119.564 48.8762 119.544 49.0954 119.475 49.3013C119.406 49.5073 119.291 49.6944 119.137 49.848C118.983 50.0016 118.796 50.1174 118.59 50.1862C118.384 50.2551 118.164 50.2752 117.949 50.2449L112.77 50.2625ZM119.534 31.2577C121.098 31.4037 122.673 31.3781 124.231 31.1815C125.503 31.0307 126.743 30.6824 127.907 30.1491C128.865 29.7091 129.692 29.0279 130.308 28.1724C130.906 27.2934 131.212 26.249 131.183 25.1867C131.211 24.1214 130.917 23.0724 130.337 22.1776C129.741 21.3044 128.933 20.5961 127.989 20.1188C126.846 19.5498 125.612 19.1845 124.343 19.0395C122.784 18.8354 121.205 18.8354 119.646 19.0395L119.534 31.2577Z" fill="black"/>
<path d="M146.43 50.263C146.215 50.2933 145.996 50.2732 145.79 50.2043C145.583 50.1355 145.396 50.0197 145.242 49.8661C145.089 49.7125 144.973 49.5254 144.904 49.3194C144.835 49.1135 144.815 48.8943 144.845 48.6793L144.211 22.5477C144.211 21.4919 144.722 20.9639 145.743 20.9639H152.202C152.415 20.9311 152.633 20.9499 152.838 21.0188C153.043 21.0876 153.228 21.2045 153.378 21.3597C153.528 21.5148 153.639 21.7037 153.701 21.9104C153.763 22.1171 153.774 22.3356 153.734 22.5477L153.206 48.6793C153.236 48.8943 153.216 49.1135 153.147 49.3194C153.078 49.5254 152.962 49.7125 152.808 49.8661C152.655 50.0197 152.467 50.1355 152.261 50.2043C152.055 50.2732 151.836 50.2933 151.621 50.263H146.43Z" fill="black"/>
<path d="M192.72 40.8139C192.924 40.9406 193.097 41.112 193.225 41.3153C193.353 41.5185 193.433 41.7482 193.459 41.987C193.446 42.4325 193.298 42.8636 193.037 43.2247C191.502 45.6492 189.336 47.6118 186.772 48.9026C184.043 50.1975 181.05 50.8382 178.03 50.7738C175.351 50.809 172.692 50.3084 170.209 49.3015C167.918 48.3727 165.848 46.9739 164.132 45.1955C162.403 43.3565 161.056 41.1934 160.169 38.8313C159.187 36.2062 158.703 33.4214 158.742 30.6193C158.711 27.8051 159.184 25.0081 160.14 22.3604C161.011 19.9481 162.339 17.7257 164.05 15.8144C165.747 13.9391 167.824 12.4461 170.144 11.4348C172.463 10.4234 174.971 9.91685 177.501 9.94868C179.227 9.94741 180.946 10.1442 182.627 10.5352C184.121 10.8711 185.567 11.3933 186.931 12.0896C188.176 12.7294 189.339 13.5172 190.395 14.4359C191.399 15.3127 192.287 16.314 193.037 17.4157C193.27 17.7372 193.39 18.1272 193.377 18.5243C193.363 18.7287 193.306 18.9278 193.211 19.1095C193.116 19.2911 192.985 19.4513 192.825 19.5801L187.981 23.34C187.649 23.6131 187.237 23.7715 186.807 23.7917C186.584 23.798 186.363 23.7475 186.165 23.6449C185.966 23.5423 185.798 23.3909 185.674 23.2051C184.833 22.1588 183.801 21.281 182.633 20.6183C181.177 19.8577 179.547 19.4935 177.906 19.5625C176.608 19.5535 175.324 19.8424 174.155 20.4072C172.99 20.9716 171.954 21.7704 171.113 22.7534C170.191 23.8357 169.48 25.0812 169.017 26.4254C168.493 27.954 168.235 29.5609 168.254 31.1766C168.236 32.7602 168.504 34.334 169.047 35.8222C169.526 37.1492 170.262 38.369 171.213 39.412C172.127 40.4032 173.239 41.1924 174.476 41.7289C175.714 42.2653 177.05 42.537 178.4 42.5266C180.036 42.5668 181.66 42.2422 183.155 41.5764C184.52 40.9127 185.723 39.9575 186.678 38.7785C186.811 38.5832 186.985 38.4184 187.186 38.2949C187.388 38.1714 187.614 38.0921 187.849 38.0622C188.083 38.0323 188.322 38.0524 188.548 38.1213C188.774 38.1901 188.983 38.3062 189.162 38.4617L192.72 40.8139Z" fill="black"/>
<path d="M199.906 50.2629C199.691 50.2932 199.471 50.2731 199.265 50.2043C199.059 50.1354 198.872 50.0196 198.718 49.866C198.564 49.7125 198.448 49.5253 198.379 49.3194C198.31 49.1134 198.29 48.8942 198.321 48.6792L197.687 12.312C197.687 11.2562 198.191 10.7283 199.219 10.7283H205.877C206.09 10.6968 206.308 10.7166 206.512 10.7859C206.716 10.8552 206.901 10.9721 207.05 11.127C207.2 11.2818 207.311 11.47 207.373 11.6761C207.436 11.8822 207.448 12.1002 207.409 12.312L207.198 26.7768L220.62 10.5875C220.937 10.1942 221.3 9.83983 221.7 9.53167C221.891 9.41209 222.116 9.35773 222.34 9.37677C222.565 9.39581 222.777 9.48723 222.945 9.63726L228.176 13.5203C228.378 13.6217 228.554 13.7671 228.691 13.9459C228.828 14.1247 228.923 14.3321 228.969 14.5527C228.986 14.7325 228.962 14.9139 228.898 15.0828C228.834 15.2517 228.731 15.4035 228.599 15.5264L217.079 28.0379L229.016 45.2478C229.368 45.7405 229.415 46.1452 229.151 46.462C228.833 46.8242 228.47 47.1436 228.071 47.4122L223.796 50.5269C223.605 50.6185 223.394 50.6616 223.182 50.6524C222.97 50.6432 222.763 50.5819 222.581 50.4741C222.209 50.1796 221.872 49.843 221.577 49.4711L210.85 34.8069L206.993 38.9128L206.887 48.6792C206.917 48.8942 206.897 49.1134 206.828 49.3194C206.759 49.5253 206.643 49.7125 206.49 49.866C206.336 50.0196 206.149 50.1354 205.942 50.2043C205.736 50.2731 205.517 50.2932 205.302 50.2629H199.906Z" fill="black"/>
<path d="M151.269 5.66042C150.306 5.61496 149.346 5.78823 148.46 6.16721C147.574 6.54618 146.786 7.12098 146.155 7.84832C145.506 8.54084 145.008 9.36013 144.691 10.2546C144.375 11.149 144.248 12.0992 144.317 13.0453C144.303 14.603 144.176 16.1577 143.935 17.6968C143.919 17.8213 143.932 17.9477 143.972 18.0666C144.012 18.1855 144.079 18.2937 144.167 18.383C144.256 18.4723 144.363 18.5404 144.482 18.5821C144.6 18.6237 144.727 18.6379 144.851 18.6236C146.213 18.4711 148.556 18.2247 149.954 18.1778C150.889 18.1545 151.81 17.9418 152.661 17.5526C153.511 17.1635 154.274 16.6059 154.903 15.9136C156.206 14.5293 156.529 12.23 156.747 10.875C157.04 9.03319 158.185 6.80423 157.868 6.18247C157.451 5.30848 155.103 5.89505 151.269 5.66042ZM156.077 7.49051C156.171 7.93044 154.903 8.42316 154.903 8.42316C151.656 9.49071 148.674 12.2945 146.783 15.8256C146.783 15.8256 146.167 17.075 145.691 16.7583C145.215 16.4415 145.891 15.3505 145.891 15.3505C148.439 10.6169 150.805 8.81616 154.698 7.36734C154.698 7.36734 155.96 6.97434 156.066 7.49051" fill="#488C03"/>
</g>
<defs>
<clipPath id="clip0_1457_3577">
<rect width="300" height="60" fill="white"/>
</clipPath>
</defs>
</svg>
