<svg width="32" height="32" viewBox="0 0 32 32" fill="none" xmlns="http://www.w3.org/2000/svg">
<g clip-path="url(#clip0_1520_8970)">
<path d="M17.668 0.131801C19.194 0.3058 20.668 0.721801 21.688 1.8998C22.698 3.0618 23 4.6558 23 6.4998C23 7.4338 22.826 8.7378 22.686 9.7738L22.656 9.9998H25.5C26.706 9.9998 27.848 10.1698 28.836 10.6658C29.852 11.1738 30.658 12.0238 31.11 13.0658C32.016 15.0618 31.986 17.9598 31.486 21.6978L31.406 22.3098C31.196 23.8898 31.016 25.2558 30.78 26.3758C30.518 27.6358 30.15 28.7938 29.444 29.7198C27.94 31.6938 25.412 31.9998 22 31.9998C18.304 31.9998 15.532 31.3338 13.224 30.6938C12.8947 30.6031 12.578 30.5145 12.274 30.4278C10.958 30.0558 9.874 29.7478 8.824 29.5978C8.59302 30.2969 8.14743 30.9054 7.55065 31.3366C6.95387 31.7679 6.23629 31.9999 5.5 31.9998H3.5C2.57174 31.9998 1.6815 31.6311 1.02513 30.9747C0.368749 30.3183 0 29.4281 0 28.4998L0 13.4998C0 11.5678 1.568 9.9998 3.5 9.9998H5.5C6.11327 9.99973 6.71579 10.1608 7.24721 10.4669C7.77864 10.773 8.22031 11.2133 8.528 11.7438C9.044 11.5338 9.708 11.2078 10.364 10.7278C11.706 9.7478 13 8.1578 13 5.4998V4.4998C13 2.0958 14.988 -0.174199 17.668 0.131801ZM9 26.5998C10.41 26.7758 11.78 27.1678 13.144 27.5558L14.026 27.8058C16.218 28.4158 18.694 29.0018 22 29.0018C25.588 29.0018 26.56 28.5558 27.056 27.9038C27.35 27.5178 27.608 26.8938 27.844 25.7638C28.054 24.7598 28.22 23.5158 28.434 21.9038L28.514 21.3038C29.014 17.5398 28.892 15.4378 28.378 14.3098C28.2105 13.8925 27.8961 13.551 27.494 13.3498C27.078 13.1418 26.454 13.0018 25.5 13.0018H22C20.628 13.0018 19.41 11.8478 19.588 10.3298C19.636 9.94313 19.6867 9.55247 19.74 9.1578C19.87 8.1818 20 7.2178 20 6.5018C20 4.8838 19.712 4.2018 19.424 3.8698C19.15 3.5538 18.62 3.2618 17.328 3.1138C16.714 3.0418 16 3.5858 16 4.4998V5.4998C16 9.3438 14.044 11.7558 12.134 13.1498C11.178 13.8464 10.1212 14.3927 9 14.7698V26.5998ZM5.5 12.9998H3.5C3.36739 12.9998 3.24021 13.0525 3.14645 13.1462C3.05268 13.24 3 13.3672 3 13.4998V28.4998C3 28.7758 3.224 28.9998 3.5 28.9998H5.5C5.63261 28.9998 5.75979 28.9471 5.85355 28.8534C5.94732 28.7596 6 28.6324 6 28.4998V13.4998C6 13.3672 5.94732 13.24 5.85355 13.1462C5.75979 13.0525 5.63261 12.9998 5.5 12.9998Z" fill="white"/>
</g>
<defs>
<clipPath id="clip0_1520_8970">
<rect width="32" height="32" fill="white"/>
</clipPath>
</defs>
</svg>
