<svg width="28" height="28" viewBox="0 0 28 28" fill="none" xmlns="http://www.w3.org/2000/svg">
<path d="M4.6665 14.5C4.6665 12.6144 4.6665 11.6716 5.25229 11.0858C5.83808 10.5 6.78089 10.5 8.6665 10.5H19.3332C21.2188 10.5 22.1616 10.5 22.7474 11.0858C23.3332 11.6716 23.3332 12.6144 23.3332 14.5V18.5C23.3332 21.3284 23.3332 22.7426 22.4545 23.6213C21.5758 24.5 20.1616 24.5 17.3332 24.5H10.6665C7.83808 24.5 6.42386 24.5 5.54518 23.6213C4.6665 22.7426 4.6665 21.3284 4.6665 18.5V14.5Z" stroke="#33363F" stroke-width="2"/>
<path d="M18.6663 9.33333V8.16667C18.6663 5.58934 16.577 3.5 13.9997 3.5V3.5C11.4223 3.5 9.33301 5.58934 9.33301 8.16667V9.33333" stroke="#33363F" stroke-width="2" stroke-linecap="round"/>
<circle cx="13.9998" cy="17.5" r="2.33333" fill="#33363F"/>
</svg>
