<svg width="200" height="40" viewBox="0 0 200 40" fill="none" xmlns="http://www.w3.org/2000/svg">
<g clip-path="url(#clip0_1457_3332)">
<path d="M192.176 0H167.794C163.471 0 159.966 3.50154 159.966 7.8209V32.1791C159.966 36.4985 163.471 40 167.794 40H192.176C196.499 40 200.004 36.4985 200.004 32.1791V7.8209C200.004 3.50154 196.499 0 192.176 0Z" fill="#488C03"/>
<path d="M194.923 20.7058L194.614 19.8182C194.268 18.7168 193.844 17.6413 193.346 16.5999C193.307 16.4924 193.245 16.3949 193.164 16.314C193.083 16.2331 192.986 16.171 192.878 16.1318C192.771 16.0927 192.656 16.0775 192.542 16.0875C192.428 16.0974 192.318 16.1321 192.219 16.1893C191.99 16.2641 191.797 16.421 191.677 16.6297C191.557 16.8384 191.518 17.0841 191.569 17.3194L191.733 18.3635C191.738 18.3967 191.736 18.4305 191.728 18.463C191.72 18.4955 191.705 18.526 191.684 18.5526C191.664 18.5793 191.638 18.6015 191.609 18.6181C191.58 18.6346 191.547 18.6451 191.514 18.6489L189.62 18.8562C189.573 18.8592 189.526 18.8489 189.485 18.8264C189.444 18.8039 189.41 18.7701 189.387 18.7291C189.365 18.688 189.354 18.6414 189.357 18.5947C189.36 18.5479 189.377 18.503 189.404 18.4651C190.011 17.7965 190.649 17.073 191.326 16.2948C192.172 15.3303 193.075 14.264 194.035 13.0961C194.857 12.1393 194.726 11.3299 193.643 10.6677C192.56 10.0055 191.728 10.2219 191.146 11.3168C190.915 11.7509 190.704 12.138 190.512 12.49C190.383 12.7129 190.262 12.9279 190.121 13.1313C190.1 13.163 190.072 13.1895 190.039 13.2087C190.006 13.2278 189.97 13.2392 189.932 13.2418C189.894 13.2445 189.856 13.2384 189.821 13.2239C189.786 13.2095 189.754 13.1872 189.729 13.1587C189.604 12.9944 189.471 12.8302 189.338 12.662C189.205 12.4939 188.946 12.2045 188.719 11.9542C188.673 11.9074 188.647 11.8442 188.647 11.7783C188.647 11.7124 188.673 11.6492 188.719 11.6023C189.837 10.4422 190.847 9.18311 191.737 7.84045C192.447 6.8107 192.219 6.02861 191.052 5.49418C189.938 5.01711 189.197 5.37035 188.829 6.55391C188.555 7.42203 186.249 9.57669 186.019 9.94037L185.236 11.1135C185.207 11.1613 185.164 11.1982 185.112 11.218C185.06 11.2378 185.002 11.2395 184.949 11.2227C184.896 11.206 184.85 11.1717 184.819 11.1256C184.788 11.0795 184.773 11.0243 184.778 10.9688L184.856 8.40747C184.903 7.31254 184.386 6.84329 183.314 6.96842L182.257 7.12484C182.206 7.13132 182.153 7.12168 182.108 7.09725C182.062 7.07283 182.025 7.03481 182.002 6.98846C181.978 6.94211 181.97 6.88971 181.978 6.83849C181.986 6.78727 182.01 6.73975 182.046 6.70251L182.492 6.2489C182.584 6.1586 182.649 6.04431 182.679 5.91903C182.709 5.79376 182.703 5.66253 182.663 5.54029C182.622 5.41804 182.548 5.30969 182.448 5.22757C182.349 5.14545 182.228 5.09285 182.1 5.07576L181.11 4.9037C180.129 4.74729 179.524 5.14746 179.294 6.10421C179.223 6.35448 179.157 6.59693 179.086 6.83938C179.016 7.08183 177.008 6.78463 176.808 6.75335H176.777C175.621 6.75335 175.068 7.32297 175.117 8.46221L175.204 11.0705C175.206 11.117 175.195 11.1632 175.173 11.204C175.15 11.2447 175.116 11.2784 175.076 11.3011C175.035 11.3239 174.989 11.3348 174.942 11.3328C174.896 11.3307 174.851 11.3157 174.812 11.2895L173.806 10.6521C172.847 10.0616 172.115 10.261 171.614 11.2347L170.573 13.1899C170.553 13.2271 170.525 13.2586 170.489 13.2814C170.454 13.3042 170.413 13.3176 170.371 13.3204C170.329 13.3231 170.287 13.3151 170.249 13.2971C170.211 13.279 170.179 13.2516 170.154 13.2173C170.042 13.0609 169.912 12.8967 169.763 12.7246L169.066 11.9151C169.022 11.8687 168.998 11.8071 168.998 11.7431C168.998 11.6791 169.022 11.6175 169.066 11.571C169.328 11.3051 169.677 10.9023 170.115 10.3627C170.651 9.70183 171.317 8.83762 172.119 7.76225C172.871 6.76117 172.676 6.00906 171.536 5.50591C170.396 5.00277 169.642 5.34428 169.274 6.53045C168.71 8.25105 166.076 10.7068 165.833 10.9297C165.82 10.9409 165.81 10.9541 165.802 10.9688C165.113 11.9855 165.289 12.8106 166.33 13.4441C166.945 13.8352 167.504 14.191 167.99 14.5195C168.405 14.8011 168.773 15.0591 169.097 15.3016C169.147 15.3371 169.181 15.3896 169.193 15.449C169.205 15.5084 169.195 15.5702 169.164 15.6223C168.856 16.1436 168.534 16.665 168.197 17.1864C167.857 17.7104 165.766 18.8288 165.766 18.8288C165.289 19.083 164.905 19.4545 165.062 20.1427L165.301 20.9991C165.598 22.3209 166.381 22.7771 167.649 22.3678L170.15 21.5466C170.858 21.312 171.569 21.0669 172.284 20.8114C172.321 20.7975 172.361 20.7929 172.4 20.7978C172.44 20.8028 172.478 20.8172 172.51 20.8399C172.543 20.8626 172.57 20.8928 172.588 20.928C172.607 20.9632 172.616 21.0024 172.616 21.0421V21.8555C172.616 22.6376 173.008 22.7432 173.712 22.6376L175.454 22.4147C176.198 22.3052 175.599 21.6561 175.846 21.5779C176.382 21.398 183.674 21.5779 183.674 21.5779C183.768 21.5897 183.864 21.5805 183.955 21.5508C184.045 21.5211 184.127 21.4718 184.196 21.4063C184.265 21.3408 184.319 21.2608 184.353 21.1721C184.387 21.0835 184.401 20.9883 184.394 20.8935V20.2444L184.84 22.0237C185.02 22.6845 185.424 22.9113 186.038 22.708L186.962 22.4655C187.604 22.2857 188.341 22.0523 189.173 21.7656C189.917 21.5049 190.739 21.1907 191.639 20.8231C191.676 20.8082 191.716 20.8022 191.755 20.8056C191.795 20.809 191.833 20.8217 191.867 20.8427C191.9 20.8637 191.928 20.8924 191.949 20.9264C191.969 20.9604 191.981 20.9987 191.984 21.0382L192.031 21.8516C192.054 22.6493 192.431 22.8892 193.162 22.5711L194.336 22.0549C194.464 22.0084 194.581 21.9363 194.681 21.8432C194.78 21.75 194.859 21.6377 194.914 21.513C194.968 21.3883 194.997 21.2539 194.998 21.1178C194.999 20.9818 194.972 20.8469 194.919 20.7215M175.031 18.5981C174.757 18.4104 174.699 17.9998 174.417 17.5579C174.39 17.5025 174.345 17.4576 174.29 17.4307C174.235 17.4037 174.172 17.3962 174.112 17.4093L172.937 17.7613C172.883 17.7788 172.836 17.8144 172.805 17.862C172.774 17.9096 172.76 17.9665 172.765 18.0233C172.812 18.5512 172.468 18.4573 172.338 18.473L170.26 18.692C170.212 18.6986 170.163 18.6901 170.121 18.6676C170.078 18.6451 170.043 18.6098 170.022 18.5666C170 18.5234 169.992 18.4746 170 18.4269C170.008 18.3792 170.03 18.3352 170.064 18.3009C172.28 15.8582 173.864 14.0177 174.816 12.7794C174.847 12.7388 174.89 12.7089 174.939 12.6938C174.988 12.6787 175.04 12.6791 175.089 12.695C175.137 12.7109 175.18 12.7415 175.21 12.7825C175.24 12.8235 175.257 12.873 175.258 12.924L175.474 18.5082C175.474 18.778 175.239 18.7467 175.02 18.5942M181.466 18.1562C181.466 18.1894 181.46 18.2223 181.447 18.2529C181.434 18.2835 181.415 18.3113 181.392 18.3346C181.368 18.3579 181.34 18.3762 181.309 18.3886C181.278 18.4009 181.245 18.407 181.212 18.4065L178.73 18.3517C178.698 18.3512 178.666 18.3444 178.636 18.3315C178.606 18.3187 178.58 18.3001 178.557 18.2768C178.535 18.2536 178.517 18.2261 178.505 18.1961C178.493 18.166 178.487 18.1338 178.488 18.1015V15.8569C178.488 15.7915 178.514 15.7289 178.56 15.6827C178.606 15.6365 178.669 15.6105 178.734 15.6105H181.216C181.282 15.6105 181.345 15.6363 181.392 15.6824C181.438 15.7285 181.465 15.7912 181.466 15.8569V18.1562ZM181.466 12.3531C181.465 12.4175 181.44 12.479 181.394 12.5249C181.349 12.5707 181.288 12.5975 181.224 12.5995L178.742 12.6581C178.709 12.6592 178.675 12.6535 178.644 12.6413C178.613 12.6292 178.585 12.6108 178.561 12.5874C178.537 12.564 178.519 12.5361 178.506 12.5052C178.493 12.4743 178.487 12.4412 178.488 12.4079V10.5778C178.488 10.5121 178.513 10.449 178.56 10.4022C178.606 10.3553 178.668 10.3285 178.734 10.3275H181.216C181.282 10.3275 181.346 10.3539 181.393 10.4008C181.44 10.4477 181.466 10.5114 181.466 10.5778V12.3531ZM188.704 15.4541C187.997 16.536 187.182 17.7169 186.261 18.997C186.239 19.0277 186.21 19.0533 186.177 19.0722C186.144 19.0911 186.107 19.1027 186.069 19.1065C185.525 19.1534 185.083 19.1808 184.743 19.1925C184.709 19.1936 184.675 19.1877 184.644 19.1754C184.612 19.163 184.584 19.1443 184.56 19.1205C184.536 19.0966 184.518 19.0682 184.505 19.0369C184.493 19.0055 184.487 18.972 184.488 18.9383C184.527 17.9255 184.66 14.2458 184.703 13.0492C184.705 13.009 184.718 12.97 184.739 12.9359C184.76 12.9018 184.79 12.8738 184.826 12.8545C184.861 12.8353 184.901 12.8255 184.941 12.826C184.981 12.8265 185.021 12.8374 185.056 12.8576C186.546 13.7179 187.741 14.4739 188.641 15.1256C188.692 15.1619 188.726 15.2162 188.738 15.2774C188.75 15.3385 188.737 15.4018 188.704 15.4541Z" fill="white"/>
<path d="M193.006 27.3106H182.011C181.947 27.3105 181.885 27.3347 181.839 27.3783C181.792 27.4219 181.764 27.4816 181.76 27.5452L181.467 33.0902C181.396 34.2973 180.757 34.9699 179.549 35.108C178.34 35.2462 177.735 34.7105 177.732 33.5008V30.1574C177.733 30.1145 177.722 30.0723 177.701 30.0349C177.68 29.9974 177.65 29.9661 177.613 29.944C177.576 29.9219 177.534 29.9097 177.491 29.9087C177.449 29.9078 177.406 29.918 177.368 29.9384C174.402 31.5453 171.332 32.9522 168.178 34.15C168.042 34.2144 167.894 34.2495 167.744 34.253C167.593 34.2566 167.444 34.2285 167.305 34.1706C167.166 34.1127 167.041 34.0263 166.938 33.9169C166.835 33.8076 166.756 33.6778 166.706 33.536C166.623 33.4076 166.57 33.2619 166.551 33.1101C166.532 32.9582 166.548 32.804 166.597 32.6591C166.647 32.5142 166.728 32.3824 166.836 32.2735C166.943 32.1646 167.074 32.0815 167.219 32.0305C169.747 30.7521 172.203 29.3344 174.574 27.7838C174.618 27.7539 174.651 27.7107 174.669 27.6606C174.687 27.6104 174.689 27.5558 174.673 27.5048C174.658 27.4537 174.627 27.4089 174.584 27.3768C174.542 27.3447 174.49 27.327 174.437 27.3262H166.503C166.11 27.3601 165.719 27.2448 165.408 27.0035C165.097 26.7621 164.888 26.4124 164.823 26.0241C164.596 25.1833 164.925 24.7375 165.818 24.6906L177.494 24.1901C177.558 24.1861 177.618 24.1581 177.662 24.1117C177.706 24.0653 177.732 24.0039 177.732 23.9398V23.0834C177.732 22.3756 178.089 22.0549 178.793 22.1253L181.294 22.3991C181.401 22.388 181.508 22.4026 181.608 22.4416C181.708 22.4807 181.797 22.543 181.867 22.6235C181.938 22.7039 181.988 22.8001 182.014 22.9039C182.039 23.0078 182.04 23.1163 182.015 23.2203L181.991 23.7364C181.989 23.7708 181.995 23.8051 182.007 23.8372C182.02 23.8692 182.039 23.8984 182.063 23.9227C182.087 23.947 182.116 23.9659 182.149 23.9783C182.181 23.9907 182.215 23.9962 182.249 23.9945L193.28 23.5292C194.352 23.4718 194.982 23.8785 195.17 24.7492C195.23 25.0655 195.219 25.3911 195.137 25.7025C195.055 26.0138 194.906 26.3032 194.699 26.5498C194.492 26.7963 194.232 26.9939 193.94 27.1281C193.647 27.2624 193.328 27.3301 193.006 27.3262" fill="white"/>
<path d="M190.34 31.1389C190.286 30.7364 190.141 30.3513 189.917 30.0126C189.692 29.674 189.394 29.3906 189.044 29.1837C188.704 28.9644 188.323 28.8166 187.924 28.7494C187.525 28.6822 187.116 28.6969 186.723 28.7927C186.065 28.903 185.401 28.9658 184.734 28.9804C184.681 28.983 184.629 28.9976 184.583 29.0231C184.536 29.0486 184.496 29.0843 184.465 29.1275C184.434 29.1708 184.413 29.2205 184.404 29.2729C184.395 29.3253 184.399 29.379 184.413 29.4301C184.578 29.9853 184.852 30.9395 184.973 31.5143C185.052 31.9022 185.209 32.2699 185.435 32.5947C185.661 32.9195 185.952 33.1946 186.288 33.4031C186.965 33.841 187.96 33.7941 188.547 33.7941C189.33 33.7941 190.363 34.0913 190.61 33.9114C190.931 33.6807 190.527 32.7383 190.34 31.135M189.905 33.2584C189.725 33.3288 189.428 32.8361 189.428 32.8361C188.739 31.5691 187.341 30.5367 185.717 30.0166C185.717 30.0166 185.145 29.8524 185.243 29.6256C185.341 29.3988 185.85 29.606 185.85 29.606C188.03 30.3138 188.958 31.1702 189.854 32.6757C189.854 32.6757 190.112 33.1724 189.905 33.2545" fill="white"/>
<path d="M1.44798 33.5087C1.30447 33.5288 1.15823 33.5155 1.02079 33.4695C0.883355 33.4236 0.758474 33.3464 0.655999 33.2441C0.553524 33.1417 0.476258 33.0169 0.430295 32.8796C0.384332 32.7423 0.37093 32.5962 0.391144 32.4528L-0.000275608 9.33034C-0.0237608 8.50914 0.199348 7.91084 0.669052 7.53544C1.18905 7.14084 1.814 6.90824 2.46567 6.86675C4.9563 6.62775 7.46547 6.6579 9.94962 6.95669C11.8574 7.16996 13.7125 7.71801 15.4295 8.57562C16.809 9.27049 17.9718 10.3294 18.7918 11.6375C19.5746 12.9624 19.9717 14.4791 19.9387 16.0172C19.9785 17.639 19.524 19.2347 18.6352 20.5924C17.7228 21.9199 16.4694 22.9776 15.0068 23.6543C15.6254 24.7699 16.4182 25.7798 17.3553 26.6458C18.2618 27.4607 19.2759 28.1475 20.3692 28.6871C20.5521 28.7597 20.7156 28.8738 20.8467 29.0204C20.9778 29.167 21.073 29.342 21.1247 29.5317C21.1562 29.6836 21.1554 29.8404 21.1224 29.992C21.0894 30.1436 21.0248 30.2865 20.9329 30.4116L18.9758 33.2623C18.8895 33.4184 18.7708 33.5543 18.6277 33.6608C18.4846 33.7674 18.3204 33.8422 18.146 33.8801C17.834 33.9107 17.5204 33.8423 17.2496 33.6846C15.5526 32.8304 14.0528 31.6317 12.8461 30.1652C11.5886 28.6205 10.6327 26.8537 10.0279 24.9565C8.72763 25.0989 7.41634 25.1107 6.1137 24.9917L5.97279 32.4528C5.99301 32.5962 5.9796 32.7423 5.93364 32.8796C5.88768 33.0169 5.81041 33.1417 5.70794 33.2441C5.60546 33.3464 5.48058 33.4236 5.34314 33.4695C5.2057 33.5155 5.05946 33.5288 4.91596 33.5087H1.44798ZM5.95714 20.1349C7.06237 20.2512 8.17574 20.2695 9.28421 20.1897C10.1622 20.1351 11.0254 19.9383 11.8402 19.607C12.4845 19.3473 13.0489 18.9224 13.4763 18.3752C13.884 17.8069 14.0893 17.1185 14.0595 16.42C14.0841 15.725 13.8867 15.0402 13.4959 14.4648C13.0818 13.9061 12.5209 13.4729 11.8754 13.2134C11.0663 12.8832 10.2105 12.6813 9.33901 12.6151C8.23576 12.5234 7.12594 12.547 6.02759 12.6855L5.95714 20.1349Z" fill="black"/>
<path d="M22.8311 32.4763C22.0796 32.2156 21.8682 31.6877 22.197 30.8926C22.9485 29.1563 23.7235 27.338 24.522 25.4375C25.3205 23.537 26.1125 21.6078 26.8979 19.65C27.6808 17.6922 28.474 15.75 29.2778 13.8234C30.0815 11.8969 30.8565 10.0551 31.6028 8.29797C31.7672 7.90693 31.9003 7.63711 31.9942 7.43767C32.0882 7.23824 32.3426 7.13657 32.7183 7.13657H36.6639C36.805 7.11814 36.9486 7.13614 37.0808 7.18885C37.2131 7.24156 37.3296 7.32722 37.4193 7.43767C37.5803 7.707 37.7053 7.99622 37.7912 8.29797C39.3412 11.8408 40.8729 15.4776 42.3864 19.2081C43.8999 22.9387 45.5034 26.857 47.197 30.9629C47.5258 31.7607 47.3144 32.2886 46.5629 32.5467L43.2515 33.4969C42.4999 33.7576 41.978 33.5465 41.6858 32.8634C41.2865 31.9484 40.8873 31.0047 40.488 30.0323C40.0888 29.0599 39.6987 28.0497 39.3177 27.0017L30.7064 26.9665C30.3072 28.0093 29.9158 29.0299 29.5322 30.0284C29.1486 31.0268 28.7572 31.9888 28.3579 32.9143C28.0761 33.6416 27.5542 33.8528 26.7922 33.5478L22.8311 32.4763ZM37.204 21.6013L34.879 15.7357C34.5267 16.7211 34.1744 17.7013 33.8222 18.6763C33.4699 19.6513 33.1059 20.6302 32.7301 21.6131L37.204 21.6013Z" fill="black"/>
<path d="M51.3428 33.5087C51.1993 33.5288 51.0531 33.5155 50.9157 33.4695C50.7782 33.4236 50.6533 33.3464 50.5509 33.2441C50.4484 33.1417 50.3711 33.0169 50.3252 32.8796C50.2792 32.7423 50.2658 32.5962 50.286 32.4528L49.8633 8.20804C49.8633 7.50416 50.2038 7.15222 50.8849 7.15222H55.3236C55.4659 7.13033 55.6114 7.14287 55.7479 7.18877C55.8843 7.23468 56.0078 7.31262 56.1078 7.41604C56.2079 7.51947 56.2817 7.64537 56.323 7.78318C56.3643 7.92099 56.3719 8.06669 56.3452 8.20804L56.2043 17.8512L65.1404 7.05837C65.3529 6.7971 65.5945 6.56094 65.8606 6.35448C65.9879 6.27476 66.1376 6.23852 66.2873 6.25122C66.437 6.26391 66.5784 6.32486 66.6904 6.42487L70.178 9.01359C70.3128 9.08044 70.4305 9.17721 70.5221 9.29651C70.6137 9.4158 70.6767 9.55444 70.7064 9.70183C70.7181 9.8217 70.7019 9.94264 70.6592 10.0552C70.6164 10.1678 70.5482 10.269 70.4598 10.351L62.7801 18.692L70.7416 30.1652C70.9765 30.4937 71.0039 30.7635 70.8277 30.9747C70.6171 31.2171 70.3749 31.4301 70.1075 31.6082L67.2541 33.6846C67.1265 33.7457 66.9859 33.7744 66.8445 33.7683C66.7032 33.7621 66.5656 33.7213 66.4438 33.6494C66.1975 33.451 65.9731 33.2269 65.7745 32.9807L58.6233 23.2046L56.0516 25.9419L55.9812 32.4528C56.0014 32.5962 55.988 32.7423 55.942 32.8796C55.8961 33.0169 55.8188 33.1417 55.7163 33.2441C55.6138 33.3464 55.489 33.4236 55.3515 33.4695C55.2141 33.5155 55.0678 33.5288 54.9243 33.5087H51.3428Z" fill="black"/>
<path d="M75.1796 33.5086C75.0361 33.5288 74.8899 33.5155 74.7524 33.4695C74.615 33.4236 74.4901 33.3464 74.3876 33.244C74.2852 33.1417 74.2079 33.0169 74.1619 32.8796C74.116 32.7423 74.1026 32.5962 74.1228 32.4528L73.7314 9.33033C73.6922 8.99719 73.7324 8.65952 73.8487 8.34486C73.965 8.0302 74.1542 7.74749 74.4007 7.51979C74.9141 7.11556 75.5439 6.88666 76.1973 6.86675C81.8077 6.42096 86.065 7.06096 88.9694 8.78678C91.8737 10.5126 93.3246 13.1574 93.3219 16.7211C93.3418 18.0655 93.0327 19.3944 92.4217 20.5924C91.8038 21.7637 90.9089 22.7664 89.8148 23.5135C88.5334 24.3728 87.0981 24.977 85.5875 25.2928C83.6959 25.6911 81.7578 25.8227 79.8297 25.6838L79.6888 32.4411C79.709 32.5845 79.6956 32.7306 79.6496 32.8679C79.6037 33.0052 79.5264 33.1299 79.4239 33.2323C79.3215 33.3347 79.1966 33.4119 79.0591 33.4578C78.9217 33.5037 78.7755 33.5171 78.632 33.4969L75.1796 33.5086ZM79.6888 20.8388C80.7313 20.9361 81.7814 20.919 82.8202 20.7879C83.6678 20.6875 84.4945 20.4553 85.2704 20.0997C85.9093 19.8064 86.461 19.3523 86.8713 18.7819C87.2698 18.1959 87.4738 17.4996 87.4546 16.7915C87.4737 16.0813 87.2772 15.3819 86.8909 14.7854C86.4933 14.2032 85.9547 13.7311 85.3252 13.4128C84.5631 13.0335 83.7405 12.79 82.8945 12.6933C81.8552 12.5572 80.8025 12.5572 79.7632 12.6933L79.6888 20.8388Z" fill="black"/>
<path d="M97.6202 33.5086C97.4767 33.5288 97.3304 33.5155 97.193 33.4695C97.0556 33.4236 96.9307 33.3464 96.8282 33.244C96.7257 33.1417 96.6485 33.0169 96.6025 32.8796C96.5565 32.7423 96.5431 32.5962 96.5634 32.4528L96.1406 15.0318C96.1406 14.3279 96.4812 13.9759 97.1622 13.9759H101.468C101.61 13.9541 101.756 13.9666 101.892 14.0125C102.029 14.0584 102.152 14.1363 102.252 14.2398C102.352 14.3432 102.426 14.4691 102.467 14.6069C102.509 14.7447 102.516 14.8904 102.489 15.0318L102.137 32.4528C102.157 32.5962 102.144 32.7423 102.098 32.8796C102.052 33.0169 101.975 33.1417 101.872 33.244C101.77 33.3464 101.645 33.4236 101.508 33.4695C101.37 33.5155 101.224 33.5288 101.08 33.5086H97.6202Z" fill="black"/>
<path d="M128.48 27.2089C128.616 27.2934 128.731 27.4077 128.817 27.5432C128.902 27.6787 128.956 27.8318 128.973 27.991C128.964 28.288 128.866 28.5754 128.691 28.8161C127.668 30.4325 126.225 31.7409 124.515 32.6014C122.696 33.4647 120.7 33.8918 118.687 33.8489C116.901 33.8724 115.128 33.5386 113.473 32.8673C111.946 32.2481 110.566 31.3156 109.422 30.13C108.269 28.904 107.371 27.462 106.78 25.8872C106.125 24.1371 105.803 22.2806 105.829 20.4126C105.808 18.5364 106.123 16.6717 106.76 14.9066C107.341 13.2984 108.226 11.8168 109.367 10.5426C110.498 9.29239 111.883 8.2971 113.429 7.62287C114.976 6.94864 116.648 6.61091 118.334 6.63213C119.485 6.63128 120.631 6.76249 121.752 7.02317C122.748 7.24707 123.712 7.59522 124.621 8.05944C125.451 8.48593 126.226 9.01113 126.93 9.62362C127.599 10.2081 128.191 10.8757 128.691 11.6101C128.847 11.8245 128.927 12.0845 128.918 12.3492C128.909 12.4855 128.871 12.6182 128.808 12.7393C128.744 12.8604 128.657 12.9672 128.551 13.0531L125.321 15.5597C125.1 15.7417 124.825 15.8474 124.538 15.8608C124.39 15.865 124.242 15.8314 124.11 15.7629C123.978 15.6945 123.865 15.5936 123.783 15.4697C123.222 14.7722 122.534 14.187 121.755 13.7452C120.785 13.2381 119.699 12.9953 118.605 13.0414C117.739 13.0353 116.883 13.228 116.103 13.6045C115.327 13.9807 114.637 14.5132 114.076 15.1686C113.461 15.8902 112.987 16.7205 112.678 17.6166C112.329 18.6357 112.157 19.707 112.17 20.784C112.157 21.8398 112.336 22.889 112.698 23.8811C113.018 24.7658 113.508 25.579 114.142 26.2743C114.752 26.9352 115.493 27.4613 116.318 27.8189C117.143 28.1765 118.034 28.3577 118.933 28.3508C120.024 28.3776 121.107 28.1612 122.104 27.7173C123.014 27.2748 123.816 26.638 124.452 25.852C124.541 25.7218 124.657 25.6119 124.791 25.5296C124.926 25.4473 125.076 25.3944 125.233 25.3745C125.389 25.3545 125.548 25.3679 125.699 25.4138C125.85 25.4598 125.989 25.5371 126.108 25.6408L128.48 27.2089Z" fill="black"/>
<path d="M133.271 33.5087C133.127 33.5288 132.981 33.5155 132.843 33.4695C132.706 33.4236 132.581 33.3464 132.479 33.2441C132.376 33.1417 132.299 33.0169 132.253 32.8796C132.207 32.7423 132.194 32.5962 132.214 32.4528L131.791 8.20804C131.791 7.50416 132.128 7.15222 132.813 7.15222H137.251C137.393 7.13124 137.539 7.14441 137.675 7.19063C137.811 7.23686 137.934 7.3148 138.034 7.41801C138.133 7.52122 138.207 7.64672 138.249 7.78411C138.29 7.9215 138.299 8.06683 138.273 8.20804L138.132 17.8512L147.08 7.05837C147.291 6.79619 147.533 6.55992 147.8 6.35448C147.927 6.27476 148.077 6.23852 148.227 6.25122C148.376 6.26391 148.518 6.32486 148.63 6.42487L152.117 9.01359C152.252 9.08115 152.369 9.17813 152.461 9.2973C152.552 9.41648 152.615 9.55476 152.646 9.70183C152.658 9.8217 152.641 9.94264 152.599 10.0552C152.556 10.1678 152.488 10.269 152.399 10.351L144.72 18.692L152.677 30.1652C152.912 30.4937 152.943 30.7635 152.767 30.9747C152.556 31.2162 152.314 31.4291 152.047 31.6082L149.197 33.6846C149.07 33.7457 148.929 33.7744 148.788 33.7683C148.647 33.7621 148.509 33.7213 148.387 33.6494C148.139 33.4531 147.914 33.2287 147.718 32.9807L140.567 23.2046L137.995 25.9419L137.925 32.4528C137.945 32.5962 137.931 32.7423 137.885 32.8796C137.839 33.0169 137.762 33.1417 137.66 33.2441C137.557 33.3464 137.432 33.4236 137.295 33.4695C137.157 33.5155 137.011 33.5288 136.868 33.5087H133.271Z" fill="black"/>
<path d="M100.845 3.77359C100.204 3.74328 99.5636 3.85879 98.973 4.11144C98.3825 4.36409 97.857 4.74729 97.4362 5.23219C97.0036 5.69386 96.6714 6.24006 96.4605 6.83636C96.2497 7.43266 96.1647 8.06613 96.211 8.69685C96.202 9.73532 96.1169 10.7717 95.9566 11.7978C95.946 11.8808 95.9544 11.9651 95.9812 12.0444C96.008 12.1237 96.0525 12.1958 96.1113 12.2553C96.1702 12.3149 96.2418 12.3602 96.3208 12.388C96.3998 12.4158 96.484 12.4253 96.5672 12.4157C97.4753 12.314 99.0371 12.1498 99.9687 12.1185C100.592 12.103 101.206 11.9612 101.773 11.7017C102.341 11.4423 102.849 11.0706 103.268 10.6091C104.137 9.68619 104.353 8.15329 104.497 7.24998C104.693 6.0221 105.456 4.53612 105.245 4.12162C104.967 3.53896 103.401 3.93 100.845 3.77359ZM104.051 4.99365C104.114 5.28693 103.268 5.61541 103.268 5.61541C101.104 6.32711 99.1154 8.19631 97.855 10.5504C97.855 10.5504 97.444 11.3833 97.127 11.1722C96.8099 10.961 97.2601 10.2337 97.2601 10.2337C98.9588 7.07792 100.536 5.87741 103.131 4.91153C103.131 4.91153 103.973 4.64953 104.043 4.99365" fill="#488C03"/>
</g>
<defs>
<clipPath id="clip0_1457_3332">
<rect width="200" height="40" fill="white"/>
</clipPath>
</defs>
</svg>
