<svg width="30" height="30" viewBox="0 0 30 30" fill="none" xmlns="http://www.w3.org/2000/svg">
<path d="M12.3406 7.13129C13.3493 4.52145 13.8537 3.21652 14.6732 3.03567C14.8886 2.98811 15.1113 2.98811 15.3268 3.03567C16.1463 3.21652 16.6507 4.52145 17.6594 7.13129C18.2331 8.61547 18.5199 9.35755 19.0567 9.86229C19.2072 10.0039 19.3706 10.1299 19.5446 10.2388C20.1649 10.6268 20.9393 10.6988 22.4881 10.8427C25.1099 11.0864 26.4208 11.2082 26.8212 11.9839C26.9041 12.1445 26.9604 12.3185 26.9879 12.4985C27.1206 13.3675 26.1569 14.2774 24.2295 16.0972L23.6943 16.6026C22.7932 17.4534 22.3426 17.8787 22.082 18.4096C21.9257 18.7281 21.8209 19.071 21.7717 19.4248C21.6899 20.0145 21.8218 20.6316 22.0857 21.8659L22.18 22.3068C22.6532 24.5202 22.8898 25.6269 22.5944 26.1709C22.3291 26.6595 21.8404 26.9724 21.3006 26.9991C20.6996 27.0289 19.8528 26.3128 18.1592 24.8806C17.0434 23.937 16.4854 23.4653 15.8661 23.281C15.3001 23.1125 14.6999 23.1125 14.1339 23.281C13.5146 23.4653 12.9566 23.937 11.8408 24.8806C10.1472 26.3128 9.3004 27.0289 8.69941 26.9991C8.15958 26.9724 7.67089 26.6595 7.40558 26.1709C7.11022 25.6269 7.34683 24.5202 7.82004 22.3068L7.91432 21.8659C8.1782 20.6316 8.31013 20.0145 8.22826 19.4248C8.17914 19.071 8.07432 18.7281 7.918 18.4096C7.65739 17.8787 7.20684 17.4534 6.30573 16.6026L5.7705 16.0972C3.84307 14.2774 2.87936 13.3675 3.01208 12.4985C3.03957 12.3185 3.09594 12.1445 3.17884 11.9839C3.57916 11.2082 4.89007 11.0864 7.51189 10.8427C9.06067 10.6988 9.83506 10.6268 10.4554 10.2388C10.6294 10.1299 10.7928 10.0039 10.9433 9.86229C11.4801 9.35755 11.7669 8.61547 12.3406 7.13129Z" fill="#FF6D00" stroke="#FF6D00" stroke-width="0.977719"/>
</svg>
