<svg width="192" height="192" viewBox="0 0 192 192" fill="none" xmlns="http://www.w3.org/2000/svg">
<g clip-path="url(#clip0_1734_12312)">
<path d="M95.8794 191.759C148.832 191.759 191.759 148.832 191.759 95.8794C191.759 42.9267 148.832 0 95.8794 0C42.9267 0 0 42.9267 0 95.8794C0 148.832 42.9267 191.759 95.8794 191.759Z" fill="#F0E3D0"/>
<mask id="mask0_1734_12312" style="mask-type:luminance" maskUnits="userSpaceOnUse" x="0" y="0" width="192" height="192">
<path d="M95.8794 191.759C148.832 191.759 191.759 148.832 191.759 95.8794C191.759 42.9267 148.832 0 95.8794 0C42.9267 0 0 42.9267 0 95.8794C0 148.832 42.9267 191.759 95.8794 191.759Z" fill="white"/>
</mask>
<g mask="url(#mask0_1734_12312)">
<path d="M60.3845 63.8324C59.721 69.8437 62.013 68.0041 61.9627 74.0556C61.8722 85.7365 36.3493 158.174 34.9219 172.106C57.4392 173.785 107.409 157.561 129.796 154.716C135.264 154.022 140.743 153.318 146.121 152.132C157.762 149.569 159.893 165.994 171.805 166.748C172.297 160.677 177.374 145.97 165.19 126.871C161.883 121.684 140.512 87.4755 137.004 74.3874C134.279 64.2144 131.555 54.0514 128.831 43.8785C128.62 43.1044 128.107 42.833 127.997 42.0389C127.625 39.5559 125.413 37.7767 123.885 35.7461C122.448 33.8362 121.483 31.4839 119.482 30.1268" fill="#2B231E"/>
<path d="M119.169 126.549L168.748 143.528C172.829 144.925 177.041 146.392 180.107 148.956C183.133 151.479 184.771 154.846 186.239 158.134C188.219 162.597 190.008 167.11 191.597 171.674C192.059 173.001 192.511 174.388 192.22 175.745C191.938 177.032 191.024 178.168 189.958 179.153C187.425 181.485 184.027 183.094 180.589 184.491C167.009 190.01 151.96 192.764 136.942 194.784C126.598 196.182 116.114 197.247 105.629 197.69H96.3707C85.8861 197.247 75.4015 196.172 65.0576 194.784C50.0394 192.764 34.991 190.01 21.4103 184.491C17.9724 183.094 14.5747 181.485 12.0415 179.153C10.9759 178.168 10.0511 177.032 9.77971 175.745C9.48819 174.388 9.94054 173.001 10.403 171.674C11.9912 167.11 13.7805 162.597 15.7609 158.134C17.2285 154.836 18.867 151.479 21.8928 148.956C24.9688 146.382 29.1707 144.925 33.252 143.528C49.778 137.868 66.3041 132.209 82.8302 126.549" fill="#F2EAE1"/>
<path d="M113.371 100.192C113.019 106.042 113.129 111.973 114.657 117.663C116.185 123.352 119.201 128.811 123.956 132.691C124.247 132.721 116.839 151.037 94.8742 150.976C94.8742 150.976 71.975 144.231 74.7394 132.691C79.4941 128.821 82.5199 123.352 84.0378 117.663C85.5557 111.973 85.6763 106.042 85.3245 100.192" fill="#E3B7A1"/>
<path d="M67.6712 72.5277C66.1031 71.3114 64.0524 71.4823 62.1123 72.005C60.1722 72.5277 58.5437 73.9954 57.8601 75.8249C57.1565 77.7248 57.4882 79.8961 58.4633 81.6955C59.4384 83.4949 60.9864 84.9324 62.7054 86.0984C64.2836 87.174 66.0226 88.0285 67.8522 88.6417C69.2595 89.1141 70.7372 89.4459 71.9636 90.25" fill="#E6B9A4"/>
<path d="M126.003 68.5872C127.28 67.0894 129.341 66.245 131.341 66.3757C133.341 66.5063 135.261 67.6322 136.297 69.2908C137.382 71.0199 137.513 73.2113 136.93 75.1514C136.357 77.0915 135.131 78.8104 133.693 80.2881C132.366 81.6452 130.838 82.8213 129.18 83.7763C127.903 84.5101 126.526 85.1233 125.48 86.1486" fill="#EDBFA9"/>
<path d="M122.728 46.9142C125.603 53.1668 126.639 58.4946 126.639 65.3302C126.639 69.4416 128.157 74.9503 127.322 78.9813C125.865 86.0179 124.095 93.0948 120.577 99.4177C117.049 105.741 111.57 111.32 104.544 113.732C101.628 114.737 98.4619 115.17 95.406 114.657C92.4104 114.154 89.6661 112.767 86.9721 111.41C83.7754 109.792 81.7147 108.033 79.2116 105.519C76.1557 102.454 74.477 98.3823 72.9892 94.3815C68.0535 81.0923 65.0579 75.0809 62.9168 61.1182C62.9168 61.1182 61.3185 37.0127 87.9672 34.4091C114.616 31.8056 120.477 42.0389 122.718 46.9142H122.728Z" fill="#EDBFA9"/>
<path d="M85.7148 74.2266C85.8656 75.644 85.0514 76.8804 83.9054 76.991C82.7594 77.1016 81.7039 76.0461 81.5531 74.6287C81.4024 73.2113 82.2166 71.9749 83.3626 71.8643C84.5085 71.7537 85.564 72.8092 85.7148 74.2266Z" fill="#0A0807"/>
<path d="M110.305 71.824C110.455 73.2414 109.641 74.4778 108.495 74.5884C107.349 74.699 106.294 73.6435 106.143 72.2261C105.992 70.8087 106.806 69.5723 107.952 69.4617C109.098 69.3511 110.154 70.4066 110.305 71.824Z" fill="#0A0807"/>
<path d="M86.2169 113.471C88.0163 115.924 90.8108 117.673 93.7159 118.598C94.8016 118.939 95.8973 119.241 97.0232 119.352C99.1844 119.563 101.366 119.04 103.336 118.125C104.452 117.613 105.497 116.979 106.523 116.306C107.297 115.793 108.061 115.24 108.684 114.547C109.347 113.813 109.82 112.928 110.282 112.054C110.815 111.068 111.348 110.053 111.448 108.937C109.106 110.506 106.673 111.953 104.06 113.009C101.446 114.064 98.6516 114.717 95.837 114.657C93.4244 114.607 91.042 114.024 88.7099 113.391C87.6242 113.099 86.4782 112.747 85.7344 111.903C85.7545 112.184 86.1867 113.19 86.2169 113.461" fill="#BD9886"/>
<path d="M94.3198 84.2186C94.169 84.2287 94.0182 84.1884 93.9076 84.0779L91.485 81.8563C91.3845 81.7658 91.2035 81.5949 91.1533 81.3336C91.0829 80.9616 91.3242 80.6802 91.4347 80.5394C92.7013 79.0517 93.3748 76.9507 93.3346 74.6287C93.2944 72.3568 92.6109 70.1453 91.9575 68.2856C91.867 68.0243 92.0077 67.7327 92.2791 67.6523C92.5606 67.5619 92.8521 67.7026 92.9426 67.9639C93.6261 69.904 94.3298 72.206 94.3801 74.6186C94.4203 77.182 93.6664 79.5141 92.2389 81.1828C92.2389 81.1828 92.2389 81.1928 92.2188 81.2029L94.6113 83.3541C94.8224 83.5451 94.8324 83.8668 94.6314 84.0678C94.5409 84.1583 94.4303 84.2085 94.3097 84.2186H94.3198Z" fill="#BD9886"/>
<path d="M132.438 68.939C131.142 68.7078 128.679 69.7231 127.754 70.6278C129.232 70.6981 130.709 70.8087 132.187 70.9595C133.001 71.0399 133.956 71.241 134.258 71.9647C134.378 72.2562 134.358 72.5679 134.348 72.8795C134.318 73.4324 134.268 74.0355 133.856 74.4175C133.433 74.8095 132.77 74.8196 132.187 74.8095C131.252 74.7894 130.327 74.7693 129.392 74.7492C129.774 75.3021 130.448 75.664 131.142 75.6841C131.353 75.6841 131.574 75.6841 131.745 75.8047C131.906 75.9354 131.946 76.1566 131.956 76.3677C132.036 78.5591 130.468 80.7103 128.307 81.3737C130.066 81.5346 131.815 80.6801 133.001 79.4135C134.187 78.1469 134.861 76.5185 135.283 74.8598C135.555 73.7943 136.178 71.6833 135.183 70.8389C134.368 70.1453 133.484 69.13 132.448 68.949L132.438 68.939Z" fill="#D4A58E"/>
<path d="M61.4492 74.7191C62.6655 74.2466 65.2993 74.7593 66.3849 75.473C64.9474 75.8349 63.53 76.2269 62.1127 76.6491C61.3386 76.8803 60.4339 77.2623 60.2932 78.0363C60.2329 78.3379 60.3133 78.6495 60.3937 78.9511C60.5344 79.4839 60.7154 80.077 61.1979 80.3685C61.7005 80.6701 62.5147 80.2378 63.0877 80.1172C63.9924 79.9161 64.7263 80.0267 65.641 79.8257C65.3797 80.4389 64.7966 80.9214 64.1231 81.0822C63.9221 81.1325 63.6909 81.1626 63.5602 81.3134C63.4195 81.4742 63.4396 81.6954 63.4798 81.9065C63.8517 84.0678 65.8421 85.8671 68.1039 86.1084C66.4151 86.611 64.5152 86.1084 63.0978 85.0931C61.6704 84.0778 60.6651 82.6102 59.9112 81.0721C59.4186 80.077 58.3732 78.1369 59.1673 77.1115C59.8207 76.2671 60.4741 75.1111 61.4492 74.7291V74.7191Z" fill="#D4AB97"/>
<path d="M82.6997 87.2142C82.8806 88.903 80.5183 90.5214 77.4322 90.823C74.3462 91.1245 71.7024 89.9987 71.5215 88.3099C71.3405 86.6211 73.7028 85.0026 76.7889 84.7011C79.875 84.3995 82.5187 85.5254 82.6997 87.2142Z" fill="#E3A1A1"/>
<path d="M115.269 63.4203C115.178 63.4203 115.088 63.4203 114.997 63.3801C112.444 62.2542 109.519 61.8723 106.734 62.2744C105.337 62.4854 104.372 62.8674 103.718 63.4706C103.507 63.6616 103.176 63.6515 102.985 63.4505C102.784 63.2494 102.794 62.9278 103.005 62.7368C103.829 61.9828 104.965 61.5104 106.583 61.2691C109.559 60.8268 112.705 61.249 115.439 62.4553C115.701 62.5659 115.821 62.8674 115.701 63.1187C115.62 63.2896 115.46 63.3902 115.279 63.4103L115.269 63.4203Z" fill="#54433B"/>
<path d="M73.9255 67.4513C73.7446 67.4714 73.5636 67.401 73.4531 67.2503C73.2822 67.0291 73.3324 66.7074 73.5636 66.5466C75.9862 64.8377 78.9818 63.8224 81.9875 63.6817C83.626 63.6012 84.8424 63.8425 85.8074 64.4255C86.0487 64.5763 86.1291 64.8879 85.9682 65.1192C85.8174 65.3504 85.4958 65.4207 85.2445 65.28C84.4704 64.8075 83.4551 64.6266 82.0378 64.6869C79.2332 64.8176 76.4386 65.7726 74.1768 67.3608C74.0964 67.4111 74.016 67.4513 73.9255 67.4513Z" fill="#54433B"/>
<path d="M120.024 82.0171C120.205 83.7059 117.843 85.3244 114.756 85.6259C111.67 85.9275 109.027 84.8017 108.846 83.1129C108.665 81.4241 111.027 79.8056 114.113 79.5041C117.199 79.2025 119.843 80.3283 120.024 82.0171Z" fill="#E3A1A1"/>
<path d="M123.602 64.9583C123.943 69.321 125.18 73.5731 125.954 77.8956C126.728 82.2081 127.039 86.7216 125.572 90.8933C128.567 82.2383 129.744 68.9088 128.115 59.9723" fill="#2B231E"/>
<path opacity="0.5" d="M65.6016 72.7589C67.1195 73.2615 68.7278 73.4223 70.3262 73.5429C78.4083 74.1662 86.5306 73.8747 94.6227 73.3821C102.896 72.8795 111.36 72.1457 118.889 68.7781C119.14 68.6676 119.422 68.5168 119.482 68.2554C119.583 67.8332 119.05 67.5417 118.628 67.411C108.535 64.3048 97.749 63.8123 87.184 64.5863C84.1984 64.8074 81.2028 65.1191 78.3178 65.873C75.2317 66.6671 72.3065 67.9438 69.4516 69.3109C68.8585 69.5924 68.2252 69.9241 67.9739 70.5172" fill="#BD9886"/>
<path d="M63.558 53.4584C61.8089 55.6498 61.1957 57.7407 59.4466 59.9321C55.9182 64.3551 52.2793 69.0295 51.6962 74.317C51.6259 74.9302 51.6761 75.654 52.2793 75.9656C52.6814 76.1666 53.194 76.1063 53.6665 76.036C56.0891 75.6339 58.4313 74.9403 60.7836 74.2768C70.1524 71.633 79.7122 69.4215 89.4629 68.4665C99.2137 67.5116 109.186 67.8433 118.514 70.2056C120.233 70.6378 122.304 71.0802 123.671 70.0548C124.375 69.5321 124.696 68.738 124.978 67.974C126.848 62.9679 128.426 57.8513 128.898 52.6441C129.371 47.427 129.22 37.9476 126.777 33.2129C125.973 31.6548 125.259 29.7851 123.882 28.5587C122.656 27.463 119.811 25.8245 118.333 24.9901C115.277 23.251 101.073 19.7126 96.8313 19.5015C92.5792 19.2904 88.2064 19.6624 84.2558 21.0998C81.8935 21.9643 78.5762 23.2913 76.425 24.5076C75.2992 25.1409 74.1733 25.7742 73.0474 26.4175C70.0921 28.0862 67.1166 29.765 64.4929 31.8157C63.9501 32.2379 63.4072 32.7003 63.1358 33.2833C62.9348 33.7156 62.8845 34.188 62.8443 34.6404C62.4221 39.6062 62.9649 48.5428 63.5781 53.4684L63.558 53.4584Z" fill="#0A0807"/>
<path d="M126.667 33.022C128.054 35.7763 128.306 38.9328 129.15 41.3152C130.748 45.8086 131.673 50.5231 131.894 55.2678C131.914 55.6197 131.924 55.9916 131.774 56.3233C131.422 57.0974 130.396 57.2783 129.542 57.4693C126.747 58.0825 124.365 59.7612 121.761 60.9273C121.581 61.0077 121.379 61.0882 121.178 61.0479C120.827 60.9776 120.676 60.5956 120.575 60.2639C118.545 53.3277 116.504 46.3212 116.082 39.1338C116.001 37.7667 116.001 36.3191 116.735 35.143" fill="#0A0807"/>
<path d="M125.091 51.1363C124.961 51.1363 124.85 51.0358 124.83 50.9152L123.915 42.4612C123.784 41.2649 123.654 40.0285 123.292 38.8624C122.92 37.6762 122.307 36.5403 121.714 35.4848C119.381 31.3634 117.321 28.4381 115.019 26.0155C114.918 25.915 114.928 25.7541 115.039 25.6637C115.149 25.5732 115.31 25.5732 115.411 25.6838C117.733 28.1466 119.824 31.0919 122.176 35.2536C122.789 36.3393 123.412 37.4953 123.804 38.7317C124.176 39.9481 124.317 41.2046 124.448 42.431L125.363 50.885C125.383 51.0258 125.272 51.1464 125.131 51.1564C125.131 51.1564 125.111 51.1564 125.101 51.1564L125.091 51.1363Z" fill="#D6D6D6"/>
<path d="M65.6698 53.76C65.5593 53.76 65.4587 53.6997 65.4185 53.5891C65.3683 53.4584 65.4386 53.3177 65.5794 53.2674C71.5907 51.2369 77.994 50.4528 84.5683 49.7592C96.3195 48.5328 108.774 47.5677 120.495 50.4226C120.636 50.4528 120.717 50.5935 120.686 50.7242C120.656 50.8549 120.516 50.9353 120.365 50.9051C108.724 48.0704 96.3295 49.0253 84.6185 50.2517C78.0745 50.9353 71.7013 51.7194 65.7402 53.7298C65.7101 53.7298 65.6799 53.7399 65.6497 53.7399L65.6698 53.76Z" fill="#D6D6D6"/>
<path d="M67.2509 49.2364C67.1101 49.2364 66.9895 49.1258 66.9895 48.9952C66.889 45.125 66.7885 41.1242 67.4017 37.2138C67.5726 36.1181 67.854 34.6806 68.4672 33.3336C69.1508 31.8358 70.1862 30.5591 71.2115 29.4031C71.302 29.3026 71.4729 29.2825 71.5834 29.373C71.694 29.4634 71.7041 29.6243 71.6136 29.7248C70.6184 30.8507 69.6132 32.0972 68.9497 33.5346C68.3566 34.8213 68.0953 36.2186 67.9244 37.2842C67.3212 41.1543 67.4117 45.1351 67.5122 48.9851C67.5122 49.1258 67.4017 49.2364 67.2609 49.2465L67.2509 49.2364Z" fill="#D6D6D6"/>
<path d="M91.2931 93.1852C91.0117 93.1852 90.7202 93.1752 90.4286 93.1551C90.1472 93.135 89.9461 92.8937 89.9662 92.6122C89.9863 92.3308 90.2376 92.1297 90.5091 92.1498C93.3438 92.381 96.1886 91.2753 98.6917 90.3002C99.5361 89.9685 100.411 89.6367 101.134 89.1241C101.366 88.9632 101.677 89.0235 101.838 89.2447C101.999 89.4759 101.939 89.7875 101.717 89.9484C100.883 90.5314 99.9583 90.8933 99.0536 91.2351C96.6913 92.1498 94.0374 93.1852 91.2831 93.1852H91.2931Z" fill="#8F7365"/>
</g>
</g>
<defs>
<clipPath id="clip0_1734_12312">
<rect width="192" height="192" fill="white"/>
</clipPath>
</defs>
</svg>
