<svg width="192" height="192" viewBox="0 0 192 192" fill="none" xmlns="http://www.w3.org/2000/svg">
<path d="M95.8794 191.759C148.832 191.759 191.759 148.832 191.759 95.8794C191.759 42.9267 148.832 0 95.8794 0C42.9267 0 0 42.9267 0 95.8794C0 148.832 42.9267 191.759 95.8794 191.759Z" fill="#F0E3D0"/>
<mask id="mask0_1734_12386" style="mask-type:luminance" maskUnits="userSpaceOnUse" x="0" y="0" width="192" height="192">
<path d="M95.8794 191.759C148.832 191.759 191.759 148.832 191.759 95.8794C191.759 42.9267 148.832 0 95.8794 0C42.9267 0 0 42.9267 0 95.8794C0 148.832 42.9267 191.759 95.8794 191.759Z" fill="white"/>
</mask>
<g mask="url(#mask0_1734_12386)">
<path d="M86.856 149.569C80.6034 154.957 74.3308 160.355 67.6258 165.17C66.3693 166.075 65.0826 166.96 63.6652 167.583C59.9961 169.181 55.7741 168.829 51.8537 167.995C47.8428 167.14 44.9176 181.385 41.2183 179.605C38.856 178.469 26.1699 174.499 23.6267 173.845C20.2692 172.991 26.1197 160.415 22.6617 160.154C20.1184 159.963 17.5953 159.42 15.2028 158.536C14.2076 158.174 13.2024 157.721 12.5088 156.927C11.7448 156.053 11.4432 154.877 11.1517 153.751C10.1967 149.981 8.79945 146.091 7.62333 142.382C5.77369 141.899 3.65265 141.165 3.05956 139.346C2.25537 136.873 4.89914 133.978 3.53202 131.756C3.08971 131.032 2.26542 130.52 2.10458 129.695C1.92364 128.73 2.71778 127.896 3.05956 126.971C3.71296 125.202 2.61725 123.192 3.05956 121.352C3.49181 119.603 5.17055 118.497 6.76888 117.653C8.37725 116.808 10.0459 116.054 11.7448 115.401C13.3733 114.778 15.2531 114.024 15.7557 112.345C16.208 110.817 15.2832 109.269 14.7203 107.781C13.7955 105.339 13.8558 102.534 14.8711 100.131C15.8964 97.729 17.8667 95.7386 20.2692 94.7133C21.2945 94.271 22.4003 93.9995 23.3955 93.4869C24.3907 92.9742 25.617 92.6525 25.8885 91.5669C24.6822 90.6018 23.3955 89.476 23.2045 87.948C23.0939 87.0634 23.3854 86.1688 23.7272 85.3445C24.5314 83.3943 25.7377 81.4743 27.6074 80.4992C28.4418 80.067 29.3766 79.8257 30.1507 79.303C30.9046 78.7803 31.4575 78.0163 31.9902 77.2724C32.6838 76.2973 33.3976 75.2821 33.5886 74.0959C33.7695 73.0002 33.4981 71.8944 33.3775 70.7987C33.2568 69.703 33.7192 68.5269 34.4631 67.7026C34.1213 66.5265 34.9557 65.3403 35.8302 64.4858C37.6095 62.7468 39.7909 61.4199 42.1431 60.6257C43.1886 60.2739 44.3245 59.9924 45.1086 59.2083C46.0736 58.2433 46.2545 56.7455 46.1641 55.3784C46.0635 54.0113 45.7419 52.6542 45.9027 51.2971C46.1339 49.3771 47.3301 47.6783 48.8179 46.4217C50.2956 45.1753 52.0547 44.3007 53.7837 43.4161C54.598 42.9939 55.9048 41.858 56.5783 41.2347C56.2767 39.2846 57.5031 37.4249 58.9205 36.0578C61.0214 34.0272 63.6753 32.5595 66.5201 31.876C67.4851 31.6448 68.6311 31.3834 69.0231 30.4687C69.1437 30.1872 69.1739 29.8756 69.2141 29.574C69.6765 26.2065 71.888 23.1304 74.944 21.6326C77.9898 20.1348 81.7796 20.2454 84.7349 21.9342C88.4342 17.0588 94.6466 15.0785 100.768 14.8372C104.106 14.7066 107.755 15.169 110.117 17.5313C111.112 18.5265 111.836 19.8333 113.032 20.5771C115.455 22.085 118.631 20.738 121.446 21.2004C122.954 21.4416 124.331 22.2157 125.638 23.0098C128.231 24.578 130.855 26.4276 132.182 29.1518C133.278 31.3935 136.484 31.9162 138.404 33.5145C139.018 34.0272 139.5 34.6806 139.963 35.344C141.4 37.4048 142.727 39.5359 143.933 41.7373C144.818 43.3457 145.652 45.2356 145.019 46.9545C144.617 48.0402 143.682 48.8444 143.129 49.8597C142.576 50.8749 142.576 52.423 143.632 52.9156C144.004 55.4588 146.587 57.3889 148.286 59.3189C151.483 62.9378 153.071 68.4364 150.779 72.6885C149.884 74.3371 148.447 75.7847 148.246 77.6544C148.075 79.1824 148.779 80.65 149.171 82.1378C150.417 86.9026 147.994 92.3711 143.632 94.653C142.757 95.1053 141.812 95.4571 141.088 96.1206C139.832 97.2766 139.52 99.1665 139.641 100.875C139.762 102.584 140.244 104.263 140.254 105.972C140.284 110.506 136.555 114.758 132.061 115.321C131.006 117.231 131.127 119.794 131.428 121.955C131.72 124.116 131.659 126.67 129.95 128.037C128.955 128.831 127.608 129.032 126.452 129.575C124.794 130.359 123.567 131.817 122.351 133.194C109.685 147.478 91.088 156.334 72.0187 157.169" fill="#2B231E"/>
<path d="M50.1543 150.222C52.6774 144.895 55.3715 139.356 60.1966 135.737C64.3884 132.58 69.7363 131.233 74.9132 129.957C79.9394 128.72 92.4646 125.423 97.6115 124.81C119.184 122.247 132.885 132.822 152.708 141.376C170.531 149.066 183.871 156.344 199 168.156C200.226 169.111 201.482 170.156 202.035 171.573C203.221 174.629 200.668 177.816 197.954 179.796C192.707 183.626 190.938 186.451 184.574 188.17C174.12 190.995 163.414 192.965 152.608 194.051C133.709 195.95 114.64 195.136 95.6512 194.332C83.9403 193.829 72.2293 193.337 60.5585 192.342C53.3811 191.728 38.5137 190.07 38.5941 180.862C38.6745 170.86 45.9524 159.109 50.1643 150.222H50.1543Z" fill="#D9A68F"/>
<path d="M87.398 106.052C87.4785 113.501 87.2271 120.96 85.9304 128.278C85.7394 129.364 85.5182 130.48 85.2569 131.555C84.3019 135.526 83.1861 139.497 83.2967 143.578C83.3469 145.327 83.7993 147.247 85.2569 148.222C86.9457 149.348 89.2075 148.715 91.0571 147.89C99.1291 144.291 105.482 137.788 111.624 131.435C112.398 130.63 113.202 129.806 113.655 128.781C114.147 127.665 120.732 129.273 120.46 128.087C117.314 114.275 114.178 97.6485 112.67 83.9673" fill="#D9A68F"/>
<path d="M64.4983 78.5491C64.4682 80.3082 64.7999 86.3698 65.785 89.3553C67.8357 95.5576 72.9021 107.822 78.8732 110.284C80.0091 110.757 81.2053 111.109 82.4217 111.229C85.1459 111.491 87.8399 110.576 90.4334 109.671C98.7869 106.756 107.683 102.353 113.272 95.4069C114.077 94.4117 114.8 93.3461 115.755 92.5017C116.831 91.5467 118.148 90.9135 119.364 90.1394C123.536 87.5057 126.582 83.0927 127.597 78.2274C128.331 74.699 127.838 70.5775 125.124 68.2655C123.757 67.0994 121.978 66.5365 120.208 66.3053C117.665 65.9736 114.639 66.5465 113.423 68.8485C112.89 62.8071 112.327 56.6751 110.116 51.0458C107.904 45.4165 103.773 40.2596 98.1034 38.3296C93.0872 36.6207 87.7796 35.3842 82.4518 35.4747C79.9086 35.5149 79.1446 35.1832 76.7622 36.1583C74.3899 37.1333 70.8112 40.0887 69.5446 42.2399C66.0363 48.1407 66.9109 53.0161 67.323 59.4094C67.8458 67.4412 64.6491 70.5273 64.4883 78.5792L64.4983 78.5491Z" fill="#E8B299"/>
<path d="M123.414 69.522C122.047 69.0496 119.233 70.0648 118.127 71.1304C119.725 71.4219 121.303 71.7637 122.882 72.1557C123.746 72.3668 124.771 72.7589 124.992 73.7641C125.083 74.1562 125.023 74.5784 124.972 74.9804C124.872 75.7042 124.731 76.4984 124.239 76.9507C123.726 77.4131 123.012 77.3327 122.379 77.2422C121.374 77.0914 120.368 76.9407 119.363 76.7899C119.715 77.574 120.389 78.1369 121.132 78.2575C121.354 78.2977 121.605 78.3078 121.766 78.4887C121.927 78.6797 121.937 78.9813 121.916 79.2527C121.725 82.1578 119.745 84.7916 117.312 85.3846C119.202 85.837 121.213 84.9323 122.65 83.4244C124.088 81.9166 125.043 79.8357 125.716 77.7147C126.149 76.3375 127.093 73.6435 126.128 72.3869C125.334 71.3616 124.51 69.904 123.414 69.522Z" fill="#D6A189"/>
<path d="M99.6311 68.4967C99.6009 69.9242 98.6761 71.05 97.5603 71.0299C96.4545 70.9998 95.58 69.8337 95.6101 68.4063C95.6403 66.9788 96.5651 65.853 97.6809 65.8731C98.7867 65.9032 99.6612 67.0693 99.6311 68.4967Z" fill="#0A0807"/>
<path d="M93.9133 85.8671C94.2249 84.9825 94.4863 83.9773 94.3858 83.3239C94.436 83.6556 87.6406 84.1783 87.138 84.2185C83.6599 84.4699 83.4086 84.1984 78.6337 83.8265C77.5079 83.736 73.2557 82.761 73.1652 83.1832C73.0647 83.6657 73.1552 84.5503 73.4065 85.5857C75.7386 86.4803 81.6394 87.8072 93.9234 85.8671H93.9133Z" fill="white"/>
<path d="M76.814 89.9786C76.4119 90.0389 75.9998 90.1093 75.5977 90.1997C75.8892 90.5616 76.2109 90.8933 76.5627 91.1748C77.7991 92.17 79.1361 92.9641 80.5836 93.1853C82.8856 93.5371 85.4188 93.7181 87.6404 92.8033C88.525 92.4314 89.4096 91.9991 90.2037 91.3357C90.4953 91.0944 90.7767 90.823 91.0481 90.5415C90.3344 90.2802 89.5704 90.1193 88.8065 89.9987C84.8358 89.3855 80.7847 89.3754 76.814 89.9685V89.9786Z" fill="#FF5C5C"/>
<path d="M93.3786 87.184C93.5395 86.8523 93.7304 86.3798 93.9114 85.8672C81.6375 87.8073 75.7367 86.4804 73.3945 85.5857C73.7665 87.0734 74.5003 88.8628 75.596 90.2098C75.9981 90.1193 76.4002 90.0489 76.8123 89.9886C80.783 89.3955 84.8442 89.4056 88.8048 90.0188C89.5587 90.1394 90.3227 90.2902 91.0465 90.5616C91.9612 89.6167 92.7755 88.4808 93.3786 87.1941V87.184Z" fill="#0A0807"/>
<path d="M81.1867 78.2274C81.046 78.2274 80.9053 78.157 80.8048 78.0465L78.7641 75.5535C78.6837 75.453 78.5229 75.262 78.5128 74.9905C78.4927 74.6086 78.7541 74.3572 78.8848 74.2366C80.272 72.9097 81.1767 70.9093 81.428 68.5972C81.6693 66.3355 81.2973 64.0636 80.8952 62.1336C80.8349 61.8622 81.0159 61.5908 81.2873 61.5405C81.5587 61.4902 81.8301 61.6611 81.8804 61.9325C82.2925 63.933 82.6845 66.3053 82.4232 68.7078C82.1518 71.2511 81.1365 73.4726 79.5683 74.9604C79.5683 74.9604 79.5583 74.9704 79.5482 74.9805L81.5687 77.3931C81.7396 77.6042 81.7095 77.9258 81.4984 78.0967C81.3978 78.1771 81.2873 78.2174 81.1666 78.2073L81.1867 78.2274Z" fill="#BD9886"/>
<path d="M73.3141 77.8152C73.2739 79.5141 71.3338 80.851 68.9815 80.7907C66.6293 80.7405 64.7495 79.313 64.7897 77.6142C64.8299 75.9153 66.77 74.5784 69.1223 74.6387C71.4745 74.6889 73.3543 76.1164 73.3141 77.8152Z" fill="#E38D8D"/>
<path d="M104.145 61.7214C104.055 61.7214 103.974 61.6912 103.894 61.651C101.602 60.2336 98.8477 59.4998 96.1437 59.5702C94.7866 59.6104 93.8216 59.8718 93.1179 60.3945C92.8967 60.5553 92.5851 60.5151 92.4142 60.294C92.2534 60.0728 92.2936 59.7511 92.5148 59.5903C93.3893 58.9369 94.5353 58.6152 96.1135 58.5649C99.0086 58.4845 101.954 59.2686 104.417 60.7865C104.658 60.9273 104.728 61.2389 104.578 61.4801C104.477 61.641 104.306 61.7214 104.135 61.7214H104.145Z" fill="#54433B"/>
<path d="M65.514 61.2489C65.3431 61.2489 65.1723 61.1484 65.0818 60.9876C64.9511 60.7463 65.0315 60.4347 65.2728 60.304C67.806 58.8967 70.7815 58.2433 73.6665 58.4644C75.2447 58.5851 76.3706 58.967 77.215 59.6506C77.4261 59.8215 77.4663 60.1432 77.2853 60.3543C77.1145 60.5654 76.7928 60.6056 76.5817 60.4246C75.8981 59.8718 74.9532 59.5601 73.5961 59.4596C70.9021 59.2586 68.1176 59.8718 65.7653 61.1786C65.6849 61.2288 65.5945 61.2489 65.514 61.2389V61.2489Z" fill="#54433B"/>
<path d="M105.833 80.2579C105.431 81.9065 102.757 82.6805 99.8517 81.9769C96.9566 81.2732 94.926 79.3632 95.3281 77.7147C95.7302 76.0661 98.4041 75.292 101.309 75.9957C104.214 76.6994 106.235 78.6093 105.833 80.2579Z" fill="#E38D8D"/>
<path d="M95.2202 109.993C98.7385 108.525 101.925 106.384 105.092 104.263C107.012 102.976 108.942 101.68 110.862 100.393C111.384 102.222 110.078 104.032 108.771 105.399C105.263 109.068 101.111 112.044 96.9894 114.999C95.8837 115.793 94.7679 116.587 93.5214 117.13C92.1844 117.713 90.7168 117.984 89.2592 117.924C88.8571 117.904 88.4248 117.854 88.1333 117.562C87.8418 117.271 87.7915 116.828 87.7614 116.416C87.6608 114.979 86.9471 111.521 88.646 111.048C89.5306 110.797 90.8173 111.189 91.7924 111.028C92.9685 110.837 94.1044 110.445 95.2001 109.983L95.2202 109.993Z" fill="#BA9587"/>
<path d="M78.082 66.6974C78.4238 66.818 78.7656 66.9788 78.9767 67.2703C78.8862 67.3407 78.7857 67.3709 78.6751 67.4111C77.3683 67.8333 75.961 67.8132 74.5838 67.8835C73.2067 67.9439 71.7792 68.1147 70.6232 68.8486C70.593 68.8687 70.8946 68.0846 71.0052 67.964C71.2565 67.6926 71.6787 67.6322 71.93 67.3508C72.2919 66.9587 72.2115 66.3254 72.6236 66.054C73.1061 65.7323 74.7246 66.054 75.2975 66.1043C76.2425 66.1948 77.1874 66.3757 78.082 66.7074V66.6974Z" fill="#0A0807"/>
<path d="M202.036 171.584C201.483 170.166 200.227 169.121 199.001 168.166C183.872 156.354 170.532 149.086 152.709 141.386C150.287 140.341 147.965 139.265 145.693 138.19C145.08 139.878 144.467 141.567 143.863 143.256C141.159 150.715 138.425 158.365 138.465 166.296C138.485 169.593 138.978 172.86 139.481 176.117C140.436 182.36 141.38 188.602 142.335 194.845C145.763 194.664 149.191 194.413 152.609 194.071C163.415 192.985 174.131 191.015 184.575 188.19C190.939 186.471 192.708 183.646 197.955 179.817C200.669 177.836 203.223 174.65 202.036 171.594V171.584Z" fill="#D9A68F"/>
<path d="M138.476 166.296C138.436 158.365 141.17 150.715 143.874 143.256C144.487 141.567 145.101 139.879 145.704 138.19C145.091 137.898 144.487 137.607 143.884 137.315C140.778 144.201 138.466 151.439 137.049 158.857C136.606 161.169 136.134 163.703 134.335 165.2C132.877 166.407 130.876 166.658 128.997 166.849C105.786 169.121 82.2734 168.286 59.2836 164.356C58.9619 164.306 58.6101 164.225 58.4091 163.964C58.1376 163.592 58.3286 163.069 58.5297 162.647C63.0834 153.188 65.8176 142.854 66.5716 132.39C65.7774 132.691 65.0034 133.013 64.2394 133.375C63.8373 134.893 63.586 136.471 63.2945 138.019C61.9575 145.216 59.746 152.213 57.5345 159.189C56.6499 161.984 55.7653 164.788 54.5087 167.442C53.604 169.372 52.5083 171.212 51.6137 173.142C49.1307 178.5 48.2562 184.421 48.4472 190.361C52.6792 191.618 57.3837 192.09 60.5603 192.362C72.231 193.357 83.9521 193.86 95.653 194.352C111.204 195.016 126.815 195.679 142.346 194.855C141.391 188.612 140.446 182.37 139.491 176.127C138.999 172.87 138.496 169.603 138.476 166.306V166.296Z" fill="white"/>
<path d="M51.6141 173.122C52.5087 171.192 53.6044 169.352 54.5091 167.422C55.7556 164.768 56.6503 161.964 57.5349 159.169C59.7464 152.193 61.9579 145.196 63.2949 137.999C63.5864 136.451 63.8377 134.883 64.2398 133.355C62.8124 134.018 61.4453 134.792 60.1988 135.727C55.3736 139.356 52.6796 144.885 50.1565 150.212C45.9445 159.099 38.6666 170.85 38.5862 180.852C38.546 185.979 43.1299 188.763 48.4375 190.331C48.2566 184.4 49.1211 178.47 51.604 173.112L51.6141 173.122Z" fill="#D9A68F"/>
<path d="M82.3105 35.1832C82.0692 35.2335 81.9184 34.8917 82.029 34.6806C82.1396 34.4695 82.3909 34.369 82.6221 34.2986C83.5469 34.0272 84.7029 33.9367 85.3463 34.6605C85.9394 35.324 85.7986 36.3996 85.296 37.1334C84.7934 37.8672 84.0294 38.3698 83.3258 38.9227C82.0592 39.9179 80.9032 41.3353 81.0037 42.9437C81.1042 44.6224 82.5417 46.281 81.828 47.809C81.4259 48.6635 80.4608 49.1058 79.536 49.3169C78.9832 49.4475 78.3901 49.528 77.8573 49.3169C77.3245 49.1158 76.9023 48.5529 77.0229 48C76.3896 48.5227 76.5907 49.6084 77.224 50.1411C77.8472 50.6639 78.7117 50.7744 79.526 50.8247C80.109 50.8549 80.7122 50.875 81.2349 50.6237C81.647 50.4327 81.9788 50.0909 82.2502 49.729C83.3459 48.3116 83.8183 46.4318 83.5067 44.6626C83.366 43.8383 83.0544 43.014 83.175 42.1897C83.5369 39.5962 87.5679 38.7016 87.7388 36.098C87.8192 34.952 87.0351 33.8865 86.0399 33.3135C85.0447 32.7405 83.8787 32.5897 82.7327 32.5294" fill="#2B231E"/>
<path d="M88.7156 31.9966C88.2934 35.2133 90.5149 38.5608 93.6312 39.4253C94.4052 39.6364 95.2194 39.7168 95.9231 40.0887C97.1997 40.7522 97.8532 42.2098 98.0944 43.6272C98.3357 45.0445 98.2452 46.5021 98.4864 47.9095C99.0092 50.9352 101.05 53.5589 103.563 55.3281C105.02 56.3534 106.629 57.1275 108.308 57.7306C110.62 58.565 113.424 58.9872 115.334 57.4391C112.811 57.0772 110.278 56.5645 107.946 55.5191C105.614 54.4736 103.482 52.8653 102.186 50.6638C101.271 49.1258 100.798 47.3767 100.336 45.6477C99.9842 44.3409 99.6324 43.0341 99.2906 41.7373C99.4414 42.8732 99.8134 43.979 100.376 44.9842C101.11 46.291 102.156 47.3968 102.829 48.7337C103.191 49.4475 103.442 50.2114 103.875 50.885C104.819 52.3828 106.498 53.2573 108.187 53.8001C110.77 54.6445 113.555 54.8757 116.249 54.4736C116.651 54.4133 117.083 54.3229 117.375 54.0313C117.626 53.78 117.727 53.4282 117.807 53.0864C118.491 49.9601 117.425 46.7032 115.927 43.8785C113.595 39.4554 110.127 35.5752 105.774 33.1224C101.422 30.6697 96.1442 29.7348 91.299 30.9511" fill="#2B231E"/>
<path d="M118.057 63.0182C115.665 60.9173 115.464 57.3085 115.665 54.1319C115.755 52.7748 115.896 51.3776 116.469 50.1411C117.655 47.5577 120.46 46.1001 123.214 45.4065C124.179 45.1652 125.174 44.9943 126.159 45.1552C127.134 45.316 128.099 45.8387 128.562 46.7133C128.954 47.4471 128.974 48.3619 129.477 49.0153C130.301 50.0808 132.04 50.0306 132.894 51.076C133.186 51.4379 133.337 51.8902 133.447 52.3325C134.241 55.7001 132.482 59.4898 129.406 61.068C131.618 61.9929 134.342 60.7464 136.453 61.8622C137.689 62.5156 138.453 63.9631 138.292 65.3503C138.242 65.7424 138.132 66.1344 138.182 66.5265C138.222 66.8884 138.403 67.2201 138.524 67.5619C139.016 68.9189 138.664 70.477 137.86 71.6833C137.056 72.8796 135.85 73.7541 134.573 74.4176C132.794 75.3424 130.783 75.9154 128.783 75.7244C126.783 75.5334 124.822 74.498 123.787 72.7891C123.928 74.1864 124.692 75.4429 125.023 76.8201C125.586 79.112 124.883 81.5045 124.189 83.7663C124.038 84.2689 123.867 84.7916 123.465 85.1334C123.103 85.445 122.601 85.5556 122.128 85.6461C121.214 85.827 120.238 85.9979 119.384 85.6461C118.61 85.3344 118.027 84.6408 117.263 84.3191C116.107 83.8266 114.74 84.2387 113.534 83.8768C112.237 83.4848 111.372 82.2986 110.608 81.1929C110.106 80.459 109.583 79.675 109.533 78.7803C109.472 77.5941 110.266 76.5587 111.02 75.644C111.784 74.7191 112.538 73.7943 113.302 72.8695C110.186 72.0854 107.341 70.2559 105.331 67.7428C104.697 66.9487 104.125 66.0641 103.903 65.0689C103.682 64.0737 103.833 62.9478 104.517 62.1839C104.657 62.023 104.838 61.8622 104.878 61.6511C104.939 61.3495 104.728 61.068 104.577 60.7966C103.964 59.6306 104.607 58.1629 105.572 57.2582C107.01 55.9011 109.151 55.3281 111.071 55.7906C113.403 56.3434 115.343 58.2735 117.735 58.3137" fill="#FF5145"/>
<path d="M125.246 64.7471C125.246 65.9936 124.231 67.0089 122.984 67.0089C121.738 67.0089 120.723 65.9936 120.723 64.7471C120.723 63.5006 121.738 62.4854 122.984 62.4854C124.231 62.4854 125.246 63.5006 125.246 64.7471Z" fill="white"/>
<path d="M78.7546 34.9821C78.7848 34.6404 78.3324 34.4896 78.0007 34.4795C76.0706 34.4092 74.1205 35.2133 72.7936 36.6307C71.4667 38.0481 70.7932 40.0385 70.9942 41.9685C71.1349 43.396 71.718 44.9139 71.0646 46.2006C70.6625 46.9947 69.8683 47.5074 69.3456 48.211C68.8732 48.8544 68.6218 49.6485 68.1695 50.3019C66.8325 52.2119 64.0179 52.4531 61.8164 51.6992C63.7565 51.9304 65.6363 50.5633 66.4405 48.784C66.9532 47.6481 67.1039 46.3715 67.7473 45.3059C68.2298 44.5017 68.9938 43.8282 69.1948 42.9034C69.3858 42.0389 69.044 41.1643 68.8933 40.2998C68.3404 37.264 70.3106 33.9669 73.2459 33.032" fill="#2B231E"/>
<path d="M107.445 142.753C109.767 142.07 112.219 142 114.642 141.969C119.296 141.909 123.961 141.939 128.615 142.07C131.631 142.15 134.707 142.281 137.531 143.336C128.323 143.075 118.874 141.607 110.078 144.332C108.631 144.784 105.504 147.297 104.117 146.392C101.664 144.794 106.289 143.095 107.445 142.753Z" fill="#BA8F7E"/>
<path d="M80.5114 141.125C77.0936 140.632 73.6055 140.934 70.1676 141.246C70.067 141.949 71.0119 142.281 71.7257 142.301C73.8769 142.361 76.018 142.09 78.1692 142.191C79.9384 142.271 81.778 142.623 83.2959 143.588C84.3313 144.241 85.1556 145.93 86.4524 145.116C89.6189 143.115 81.5971 141.286 80.5215 141.135L80.5114 141.125Z" fill="#BA8F7E"/>
</g>
</svg>
