<svg width="63" height="63" viewBox="0 0 63 63" fill="none" xmlns="http://www.w3.org/2000/svg">
<g clip-path="url(#clip0_2125_4851)">
<path d="M31.461 62.4221C48.5604 62.4221 62.4221 48.5604 62.4221 31.461C62.4221 14.3617 48.5604 0.5 31.461 0.5C14.3617 0.5 0.5 14.3617 0.5 31.461C0.5 48.5604 14.3617 62.4221 31.461 62.4221Z" fill="#EBDFCC"/>
<mask id="mask0_2125_4851" style="mask-type:luminance" maskUnits="userSpaceOnUse" x="0" y="0" width="63" height="63">
<path d="M31.5323 62.4221C48.6316 62.4221 62.4934 48.5604 62.4934 31.461C62.4934 14.3617 48.6316 0.5 31.5323 0.5C14.433 0.5 0.571289 14.3617 0.571289 31.461C0.571289 48.5604 14.433 62.4221 31.5323 62.4221Z" fill="white"/>
</mask>
<g mask="url(#mask0_2125_4851)">
<path d="M39.3648 11.1309C39.1473 9.73185 37.745 7.84589 36.5569 7.19343C35.3689 6.54096 34.0218 5.66128 32.6974 5.46976C31.0483 5.2328 29.3474 5.04452 27.7438 5.51521C26.1598 5.97939 23.7317 8.02767 22.5079 9.19625C20.9531 10.6797 20.5992 12.056 19.7553 14.0881C18.9113 16.1201 18.697 18.5157 19.5183 20.5575C20.1091 22.028 21.19 23.2225 22.3651 24.2223C23.0403 24.7969 23.7707 25.3292 24.5952 25.6116C25.8254 26.0336 27.1823 25.8681 28.3996 25.4071C29.6168 24.9462 30.7237 24.2093 31.8144 23.4757C34.0088 21.9955 36.3557 20.2621 37.0406 17.6003" fill="#3B2E2A"/>
<path d="M25.0372 41.3486C23.8069 41.5888 23.0668 41.7966 23.0668 41.7966L4.59668 48.2465C4.59668 48.2465 5.72307 64.5483 14.2278 66.4148C18.6684 67.3886 30.8217 67.6321 41.4818 67.5769L34.6878 50.0319L25.034 41.3486H25.0372Z" fill="#303742"/>
<path d="M59.9518 49.454C58.7507 48.4802 49.863 45.5295 41.6829 42.1991C41.5692 42.1536 41.4556 42.1114 41.342 42.0692L40.7285 48.4023L41.6569 67.5736C51.3464 67.5184 59.7602 67.2133 59.9485 66.9828C60.3478 66.4959 61.1496 50.4279 59.9485 49.454H59.9518Z" fill="#303742"/>
<path d="M41.3421 42.0692C35.4018 39.7905 28.3871 40.6962 25.0371 41.3486L32.7465 50.5025L41.4817 67.5769C41.5401 67.5769 41.5986 67.5769 41.657 67.5769L42.303 48.2108L41.3389 42.0725L41.3421 42.0692Z" fill="#E3E3E3"/>
<path d="M36.4082 32.8926C36.2946 34.7818 36.3303 36.697 36.8237 38.5343C37.3138 40.3715 38.2909 42.1341 39.8263 43.3871C39.8263 43.3871 39.3654 46.0554 38.0312 46.8052H38.0604C35.2721 45.9645 26.7479 43.517 24.2549 42.0887C25.7903 40.839 26.4427 40.3715 26.9329 38.5343C27.4231 36.697 27.462 34.7818 27.3484 32.8926" fill="#E3B7A1"/>
<path d="M42.3065 19.139C42.3065 19.139 42.3065 26.605 40.2193 30.0068C38.1321 33.4087 33.5226 36.8139 31.9872 36.4828C30.4518 36.8106 25.8392 33.4087 23.7552 30.0068C21.668 26.605 21.668 19.139 21.668 19.139L31.5393 13.8317H37.0219L39.041 14.364L42.3097 19.1357L42.3065 19.139Z" fill="#EDBFA9"/>
<path d="M22.6411 23.2486C22.1963 22.8071 21.5341 22.5993 20.9174 22.7065C20.3006 22.8136 19.7488 23.2356 19.4794 23.8004C19.2002 24.3912 19.2327 25.0988 19.4729 25.7026C19.7131 26.3064 20.1481 26.8225 20.6415 27.251C21.0959 27.6437 21.6056 27.9748 22.1509 28.2313C22.5696 28.426 23.0176 28.5818 23.3714 28.8772" fill="#EDBFA9"/>
<path d="M37.1742 14.3154C37.8396 14.6692 38.5245 14.984 39.2257 15.2567C39.3263 15.2957 39.4432 15.3314 39.5341 15.2762C39.5957 15.2372 39.6314 15.1658 39.6509 15.0944C39.7808 14.6432 39.5016 14.1563 39.1056 13.8999C38.7095 13.6434 38.2291 13.5752 37.7649 13.533C37.3819 13.4973 36.9242 13.5038 36.7035 13.8187C36.5379 14.0524 36.8625 13.9778 36.7327 14.231" fill="#CCA592"/>
<path d="M41.2675 23.2486C41.7122 22.8071 42.3744 22.5993 42.9911 22.7065C43.6079 22.8136 44.1597 23.2356 44.4292 23.8004C44.7083 24.3912 44.6759 25.0988 44.4356 25.7026C44.1954 26.3064 43.7605 26.8225 43.2671 27.251C42.8126 27.6437 42.303 27.9748 41.7576 28.2313C41.3389 28.426 40.8909 28.5818 40.5371 28.8772" fill="#EDBFA9"/>
<path d="M27.9393 24.2029C28.2978 24.2029 28.5885 23.8294 28.5885 23.3687C28.5885 22.9079 28.2978 22.5344 27.9393 22.5344C27.5807 22.5344 27.29 22.9079 27.29 23.3687C27.29 23.8294 27.5807 24.2029 27.9393 24.2029Z" fill="#0A0807"/>
<path d="M36.2652 23.3685C36.2652 23.8295 35.9731 24.2028 35.616 24.2028C35.2589 24.2028 34.9668 23.8295 34.9668 23.3685C34.9668 22.9076 35.2589 22.5343 35.616 22.5343C35.9731 22.5343 36.2652 22.9076 36.2652 23.3685Z" fill="#0A0807"/>
<path d="M31.1623 26.975C31.1298 26.975 31.0974 26.9653 31.0681 26.9458L30.3702 26.4621C30.2858 26.4037 30.169 26.3226 30.1106 26.1895C30.0132 25.9752 30.1106 25.735 30.2534 25.5922C30.3475 25.4981 30.4546 25.4331 30.5553 25.3715C30.5877 25.352 30.6234 25.3325 30.6559 25.3098C31.159 24.9884 31.4479 24.3489 31.3571 23.7614C31.3441 23.6738 31.4057 23.5894 31.4934 23.5764C31.581 23.5666 31.6654 23.6251 31.6784 23.7127C31.7855 24.4236 31.4382 25.1929 30.8312 25.5824C30.7955 25.6052 30.7565 25.6279 30.7208 25.6506C30.6299 25.7026 30.5455 25.7545 30.4839 25.8194C30.4222 25.8843 30.3735 25.985 30.406 26.0564C30.4287 26.1083 30.4968 26.1538 30.5553 26.196L31.2532 26.6796C31.3278 26.7316 31.3441 26.8322 31.2954 26.9068C31.2629 26.9523 31.2142 26.9783 31.1623 26.9783V26.975Z" fill="#A38375"/>
<path d="M44.3218 25.3714C44.3218 25.3714 44.3056 25.3714 44.2958 25.3714C44.2082 25.3584 44.1465 25.274 44.1595 25.1864C44.179 25.05 44.1043 24.9007 44.0199 24.7579C43.6499 24.1379 43.2344 23.7873 42.7767 23.7159C42.4229 23.6607 42.0398 23.7971 41.7996 24.06C41.7379 24.1249 41.6373 24.1314 41.5691 24.0697C41.5042 24.0081 41.4977 23.9074 41.5594 23.8393C41.8775 23.4919 42.3612 23.3231 42.8254 23.3945C43.3804 23.4789 43.8771 23.8815 44.2991 24.5891C44.4159 24.7839 44.5166 24.9949 44.4809 25.2318C44.4679 25.313 44.3997 25.3682 44.3218 25.3682V25.3714Z" fill="#A38375"/>
<path d="M41.4748 27.4911C41.3937 27.4911 41.3255 27.4326 41.3125 27.3482C41.3028 27.2606 41.3645 27.1794 41.4521 27.1665C42.0494 27.0918 42.6175 26.7088 42.981 26.1472C43.3283 25.6018 43.4679 24.7059 43.4484 24.06C43.4484 23.9691 43.5166 23.8944 43.6075 23.8944C43.6919 23.8977 43.7731 23.9626 43.7731 24.0535C43.7925 24.6994 43.6659 25.6797 43.2537 26.3257C42.8414 26.9684 42.1857 27.4067 41.4943 27.4943C41.4878 27.4943 41.4813 27.4943 41.4748 27.4943V27.4911Z" fill="#A38375"/>
<path d="M19.6586 25.3715C19.5806 25.3715 19.5092 25.313 19.4995 25.2351C19.4638 24.9982 19.5644 24.7872 19.6813 24.5924C20.1033 23.8848 20.5967 23.4822 21.155 23.3946C21.6192 23.3232 22.1028 23.4952 22.421 23.8393C22.4826 23.9042 22.4761 24.0081 22.4112 24.0698C22.3463 24.1315 22.2424 24.125 22.1808 24.0601C21.9405 23.7971 21.5575 23.6608 21.2037 23.716C20.7492 23.7874 20.3305 24.138 19.9604 24.758C19.876 24.9008 19.8014 25.0501 19.8209 25.1864C19.8338 25.2741 19.7722 25.3585 19.6845 25.3715C19.6748 25.3715 19.6683 25.3715 19.6586 25.3715Z" fill="#A38375"/>
<path d="M22.5057 27.4911C22.5057 27.4911 22.4927 27.4911 22.4862 27.4911C21.7948 27.4035 21.1391 26.9685 20.7268 26.3225C20.3146 25.6798 20.1912 24.6963 20.2074 24.0503C20.2074 23.9594 20.2821 23.8977 20.373 23.8912C20.4639 23.8912 20.532 23.9691 20.532 24.0568C20.5126 24.7028 20.6522 25.5987 20.9995 26.144C21.3598 26.7088 21.9311 27.0886 22.5284 27.1633C22.616 27.173 22.681 27.2542 22.668 27.3451C22.6582 27.4262 22.5868 27.4879 22.5057 27.4879V27.4911Z" fill="#A38375"/>
<path d="M37.8365 20.973C37.7976 20.973 37.7586 20.96 37.7294 20.9308C37.3106 20.5575 36.6874 20.5185 36.0317 20.512C35.7525 20.5088 35.4312 20.5218 35.2689 20.7068C35.2104 20.775 35.1066 20.7815 35.0384 20.723C34.9702 20.6646 34.9637 20.5607 35.0222 20.4926C35.2754 20.2037 35.6746 20.1842 36.0317 20.1874C36.7523 20.1972 37.4405 20.2394 37.9404 20.6873C38.0085 20.7457 38.0118 20.8496 37.9534 20.9178C37.9209 20.9535 37.8755 20.973 37.8333 20.973H37.8365Z" fill="#52423A"/>
<path d="M38.1678 29.0006C39.0911 29.0006 39.8396 28.2521 39.8396 27.3288C39.8396 26.4056 39.0911 25.6571 38.1678 25.6571C37.2446 25.6571 36.4961 26.4056 36.4961 27.3288C36.4961 28.2521 37.2446 29.0006 38.1678 29.0006Z" fill="#E3A1A1"/>
<path d="M25.7127 29.0006C26.636 29.0006 27.3845 28.2521 27.3845 27.3288C27.3845 26.4056 26.636 25.6571 25.7127 25.6571C24.7895 25.6571 24.041 26.4056 24.041 27.3288C24.041 28.2521 24.7895 29.0006 25.7127 29.0006Z" fill="#E3A1A1"/>
<path d="M37.3174 14.312C37.6323 14.312 37.8335 14.6139 37.9569 14.8768C38.5282 16.1104 38.7911 17.451 39.3884 18.678C39.7292 19.3759 40.1772 20.0251 40.6219 20.6711C40.966 21.1742 41.3652 21.7131 41.995 21.8754C42.0599 21.8916 42.1313 21.9046 42.193 21.8819C42.2969 21.8429 42.3293 21.7261 42.3488 21.6254C42.6345 20.0349 42.4592 18.4053 42.167 16.8148C41.9787 15.7857 41.7256 14.7243 41.0341 13.8868C40.346 13.0493 39.106 12.491 38.012 12.8253" fill="#CCA592"/>
<path d="M37.2393 14.3283C37.5541 14.0946 38.0151 14.1531 38.3397 14.3738C38.6643 14.5913 38.8785 14.9386 39.07 15.2794C39.4304 15.9319 39.7322 16.6168 39.9725 17.3212C40.6347 19.2591 40.6054 21.4794 42.0889 22.8947C43.1341 22.015 44.0138 20.6712 44.1696 19.3111C44.3254 17.951 44.082 16.5746 43.6892 15.2665C43.3776 14.231 42.9556 13.1987 42.2317 12.3904C41.5111 11.5822 40.4431 11.0238 39.3654 11.131C38.2877 11.2381 37.275 12.134 37.249 13.2182" fill="#3B2E2A"/>
<path d="M34.8239 39.6931C34.9927 39.6833 35.1712 39.6606 35.3141 39.5665C35.4666 39.4658 35.5608 39.3003 35.6354 39.138C36.1613 37.9856 36.0639 36.658 35.9568 35.3953C35.2978 35.6517 34.8921 36.3334 34.2623 36.6612C33.7657 36.9209 33.1814 36.9339 32.6231 36.9339C31.3182 36.9404 30.4904 36.606 29.3056 36.1906C28.4259 35.8822 28.8284 36.5639 29.2472 37.0702C30.4222 38.4823 32.9769 39.7937 34.8239 39.6963V39.6931Z" fill="#BD9886"/>
<path d="M32.2433 29.8283C31.0391 29.8283 29.8283 29.6855 28.6662 29.3966C28.5785 29.3739 28.5266 29.2862 28.5461 29.2018C28.5688 29.1142 28.6532 29.0622 28.7441 29.0817C30.695 29.5621 32.7725 29.6335 34.7526 29.2862C34.8402 29.27 34.9246 29.3284 34.9408 29.4193C34.9571 29.5069 34.8986 29.5913 34.8077 29.6076C33.9638 29.7537 33.1036 29.8283 32.2433 29.8283Z" fill="#A38375"/>
<path d="M26.6832 39.3198L38.0315 46.8052L32.7469 50.5025L23.7715 41.7933L27.0403 38.1155L26.6832 39.3198Z" fill="white"/>
<path d="M39.0211 42.6308L38.0311 46.8053L42.5269 48.5809L41.6829 42.1991L36.8203 38.5343C36.8203 38.5343 37.1774 40.7222 39.0179 42.6308H39.0211Z" fill="white"/>
<path d="M33.7306 13.9485C32.7373 13.9842 31.7018 14.3834 31.1467 15.2112C30.926 15.5423 30.7896 15.9221 30.6631 16.2986C30.2833 17.4477 30.0138 18.8143 30.7345 19.7882C29.9814 19.746 29.3322 19.259 28.7479 18.7819C28.407 18.5027 28.0694 18.2171 27.8033 17.8665C26.8619 16.633 27.021 14.7925 27.9039 13.52C28.7868 12.2475 30.2573 11.4815 31.7602 11.1082C32.5068 10.9231 33.2891 10.8225 34.0455 10.9588C34.8018 11.0952 35.5354 11.4912 35.9574 12.1339C36.2917 12.6403 37.4538 14.338 37.1227 14.4192C36.8728 14.4808 34.4155 13.929 33.7306 13.9517V13.9485Z" fill="#CCA592"/>
<path d="M33.0356 12.7247C31.669 12.8351 30.3803 13.6758 29.7278 14.8834C29.2214 15.8215 29.0981 16.9803 29.4714 17.9801C29.8447 18.9799 30.7276 19.7914 31.7728 20.0122C29.5266 20.7945 27.2121 21.3755 24.8652 21.7521C23.9595 21.8981 22.9792 21.9988 22.171 21.5638C21.1906 21.0347 20.7492 19.8466 20.6713 18.7332C20.5447 16.9641 21.1355 15.1853 22.1353 13.7213C23.135 12.2573 24.5276 11.0887 26.0435 10.1733C26.8388 9.6929 27.6795 9.27091 28.5755 9.01771C30.8542 8.37174 33.4348 8.91059 35.2721 10.407C36.1064 11.0887 37.0899 11.9197 37.3171 13.0688C37.4048 13.5135 37.2587 14.2277 37.1289 14.6659C35.9992 13.5622 34.7105 12.5916 33.0356 12.7247Z" fill="#3B2E2A"/>
<path d="M35.4932 48.5809L37.4473 51.3758H40.0701L40.7778 47.8895L38.0316 46.8053L35.7528 48.4803L35.4932 48.5809Z" fill="#C26F6B"/>
<path d="M37.4469 51.3757L37.3203 59.4422L41.6701 67.8333L41.9492 58.9164L40.0697 51.3757H37.4469Z" fill="#915350"/>
<path d="M18.999 43.2151L24.2577 52.8495L31.7431 55.3911L31.5386 61.945L37.3458 66.9926L41.6566 67.5737L32.7461 50.5026L23.7708 41.3486L18.999 43.2151Z" fill="#39424F"/>
<path d="M48.0423 44.6856L47.6105 53.4045L44.6274 56.2643L45.7051 66.2752L41.6572 67.5736L42.5272 48.5809L41.6832 42.1991L48.0423 44.6856Z" fill="#39424F"/>
</g>
</g>
<defs>
<clipPath id="clip0_2125_4851">
<rect width="62" height="62" fill="white" transform="translate(0.5 0.5)"/>
</clipPath>
</defs>
</svg>
