<svg width="63" height="63" viewBox="0 0 63 63" fill="none" xmlns="http://www.w3.org/2000/svg">
<g clip-path="url(#clip0_2125_4974)">
<path d="M31.461 62.4221C48.5604 62.4221 62.4221 48.5604 62.4221 31.461C62.4221 14.3617 48.5604 0.5 31.461 0.5C14.3617 0.5 0.5 14.3617 0.5 31.461C0.5 48.5604 14.3617 62.4221 31.461 62.4221Z" fill="#EBDFCC"/>
<mask id="mask0_2125_4974" style="mask-type:luminance" maskUnits="userSpaceOnUse" x="0" y="0" width="63" height="63">
<path d="M31.4806 62.4221C48.5799 62.4221 62.4416 48.5604 62.4416 31.461C62.4416 14.3617 48.5799 0.5 31.4806 0.5C14.3813 0.5 0.519531 14.3617 0.519531 31.461C0.519531 48.5604 14.3813 62.4221 31.4806 62.4221Z" fill="white"/>
</mask>
<g mask="url(#mask0_2125_4974)">
<path d="M55.4524 48.9379C54.3455 47.9381 46.1557 44.903 38.6151 41.4784C38.5112 41.4297 38.4041 41.3907 38.3002 41.3453C32.8241 39.0016 26.3579 39.9332 23.2709 40.6052C22.1347 40.8519 21.4531 41.0661 21.4531 41.0661L4.43066 47.6979C4.43066 47.6979 5.46941 64.4606 13.3087 66.379C17.3987 67.382 28.6009 67.632 38.43 67.5736C38.4852 67.5736 38.5372 67.5736 38.5923 67.5736C47.5223 67.5151 55.2772 67.2035 55.4524 66.9665C55.8225 66.4666 56.5594 49.9474 55.4524 48.9443V48.9379Z" fill="#F0F0F0"/>
<path d="M36.5703 32.8926C36.4567 34.7818 36.4924 36.697 36.9858 38.5343C37.4759 40.3715 38.453 42.1341 39.9884 43.3871C39.9884 43.3871 39.5275 46.0554 38.1933 46.8052H38.2225C35.4342 45.9645 26.91 43.517 24.417 42.0887C25.9524 40.839 26.6048 40.3715 27.095 38.5343C27.5852 36.697 27.6241 34.7818 27.5105 32.8926" fill="#E3B7A1"/>
<path d="M43.5492 20.736C43.5492 20.736 42.5981 28.1403 40.0921 31.2501C37.5894 34.3598 32.5807 37.1449 31.1005 36.6223C29.5326 36.7522 25.3971 32.7887 23.7611 29.1466C22.1251 25.5045 23.0794 18.1035 23.0794 18.1035L33.5448 14.1011L38.982 14.799L40.9166 15.5845L43.5492 20.736Z" fill="#EDBFA9"/>
<path d="M23.5204 22.3006C23.1374 21.8072 22.5044 21.515 21.8811 21.5442C21.2579 21.5735 20.6541 21.9175 20.3165 22.4434C19.9627 22.992 19.9043 23.6996 20.0666 24.3294C20.2289 24.9624 20.5924 25.5272 21.0274 26.0141C21.4267 26.462 21.8909 26.8548 22.3973 27.1762C22.7868 27.4229 23.212 27.6339 23.5236 27.9715" fill="#EDBFA9"/>
<path d="M41.9979 24.6799C42.4945 24.3001 43.1795 24.1768 43.7767 24.3618C44.374 24.5468 44.8707 25.0338 45.0622 25.6278C45.2634 26.2478 45.1433 26.9457 44.8252 27.517C44.5071 28.0883 44.0137 28.5428 43.4684 28.9031C42.9685 29.2374 42.4199 29.5004 41.8486 29.6821C41.4071 29.8217 40.9462 29.9191 40.5566 30.1658" fill="#EDBFA9"/>
<path d="M29.4029 23.1771C29.3445 23.6348 29.0069 23.9659 28.6531 23.9205C28.296 23.875 28.0558 23.4693 28.1142 23.0116C28.1727 22.5539 28.5102 22.2228 28.8641 22.2682C29.2179 22.3137 29.4613 22.7194 29.4029 23.1771Z" fill="#0A0807"/>
<path d="M37.0181 24.1573C36.9597 24.615 36.6221 24.9461 36.2683 24.9007C35.9112 24.8552 35.671 24.4495 35.7295 23.9918C35.7879 23.5341 36.1255 23.203 36.4793 23.2484C36.8331 23.2939 37.0766 23.6996 37.0181 24.1573Z" fill="#0A0807"/>
<path d="M31.4961 27.0853C31.4636 27.082 31.4344 27.0691 31.4084 27.0463L30.7787 26.4783C30.7008 26.4101 30.5969 26.3127 30.5547 26.1731C30.4866 25.9492 30.6164 25.7252 30.7722 25.5986C30.8761 25.5174 30.9897 25.4687 31.1001 25.42C31.1358 25.4038 31.1715 25.3876 31.2072 25.3714C31.746 25.1149 32.1128 24.5209 32.0999 23.9236C32.0999 23.8327 32.168 23.7613 32.2589 23.7581C32.3466 23.7581 32.4212 23.8262 32.4245 23.9171C32.4407 24.6377 31.996 25.3551 31.3468 25.6635C31.3078 25.683 31.2689 25.6992 31.2267 25.7154C31.1325 25.7576 31.0416 25.7966 30.9702 25.8518C30.8988 25.907 30.8404 26.0011 30.8631 26.0758C30.8793 26.1277 30.941 26.1829 30.9929 26.2316L31.6227 26.7996C31.6876 26.8613 31.6941 26.9619 31.6357 27.0301C31.6 27.0723 31.5448 27.0885 31.4928 27.082L31.4961 27.0853Z" fill="#A38375"/>
<path d="M44.7538 27.173C44.7538 27.173 44.7376 27.173 44.7278 27.1665C44.6434 27.1405 44.5915 27.0529 44.6175 26.9653C44.6564 26.8354 44.598 26.6764 44.5331 26.5238C44.2474 25.8616 43.8774 25.4591 43.4327 25.3325C43.0886 25.2319 42.6926 25.3195 42.4199 25.55C42.3517 25.6084 42.2478 25.5987 42.1927 25.5305C42.1342 25.4623 42.144 25.3585 42.2121 25.3033C42.5692 25.0014 43.0723 24.8943 43.5236 25.0241C44.0656 25.1799 44.5039 25.6441 44.8317 26.3972C44.9226 26.6049 44.9973 26.8289 44.9291 27.0594C44.9064 27.1373 44.8317 27.186 44.7538 27.1763V27.173Z" fill="#A38375"/>
<path d="M41.6604 28.9129C41.5793 28.9031 41.5176 28.835 41.5176 28.7506C41.5176 28.6597 41.589 28.5883 41.6799 28.5883C42.2804 28.5883 42.8939 28.2831 43.3256 27.7703C43.7411 27.2736 43.9911 26.4037 44.056 25.7609C44.0657 25.67 44.1436 25.6051 44.2345 25.6149C44.3189 25.6311 44.3871 25.7025 44.3806 25.7934C44.3157 26.4361 44.069 27.3937 43.5756 27.978C43.0854 28.5623 42.3778 28.9129 41.6799 28.9129C41.6734 28.9129 41.6669 28.9129 41.6604 28.9129Z" fill="#A38375"/>
<path d="M20.2912 24.0276C20.2133 24.0178 20.1516 23.9529 20.1516 23.8717C20.1451 23.6348 20.275 23.4368 20.4145 23.2582C20.9242 22.609 21.4663 22.2747 22.0278 22.2584C22.4953 22.2455 22.9562 22.4792 23.2256 22.8622C23.2776 22.9369 23.2581 23.0375 23.1867 23.0894C23.112 23.1414 23.0114 23.1219 22.9595 23.0505C22.755 22.7583 22.3914 22.5733 22.0343 22.5863C21.5734 22.5993 21.1124 22.8914 20.6677 23.4595C20.5671 23.5893 20.473 23.7289 20.4762 23.8653C20.4762 23.9561 20.408 24.0308 20.3171 24.0308C20.3074 24.0308 20.3009 24.0308 20.2912 24.0308V24.0276Z" fill="#A38375"/>
<path d="M22.8457 26.4914C22.8457 26.4914 22.8328 26.4914 22.8263 26.4881C22.1511 26.3128 21.5571 25.7967 21.2292 25.1053C20.9014 24.4139 20.9046 23.4238 21.0052 22.7876C21.0182 22.7 21.0994 22.6448 21.1903 22.6513C21.2779 22.6643 21.3396 22.7487 21.3266 22.8363C21.226 23.4758 21.2487 24.3814 21.5246 24.9657C21.8103 25.5695 22.3264 26.0207 22.9107 26.1733C22.9983 26.196 23.0503 26.2836 23.0275 26.3713C23.0081 26.4524 22.9301 26.5011 22.849 26.4914H22.8457Z" fill="#A38375"/>
<path d="M40.0564 28.5428C39.9396 29.4582 39.1021 30.1042 38.1867 29.9873C37.2713 29.8705 36.6253 29.033 36.7422 28.1176C36.859 27.2022 37.6965 26.5562 38.6119 26.6731C39.5273 26.7899 40.1733 27.6274 40.0564 28.5428Z" fill="#E3A1A1"/>
<path d="M27.7019 26.9522C27.5851 27.8676 26.7476 28.5136 25.8322 28.3967C24.9168 28.2799 24.2708 27.4424 24.3877 26.527C24.5045 25.6116 25.342 24.9656 26.2574 25.0825C27.1728 25.1994 27.8188 26.0368 27.7019 26.9522Z" fill="#E3A1A1"/>
<path d="M33.8949 40.8325C34.0637 40.8552 34.2423 40.8649 34.3981 40.8C34.5669 40.7318 34.687 40.5858 34.7941 40.4364C35.5277 39.4042 35.6803 38.0798 35.8101 36.8171C35.1122 36.9469 34.5896 37.5409 33.9079 37.7454C33.3723 37.9078 32.7978 37.8104 32.2459 37.7097C30.9637 37.4728 30.2139 36.9891 29.1264 36.3561C28.3214 35.8887 28.5876 36.6353 28.9057 37.2066C29.7951 38.8134 32.0576 40.5793 33.8949 40.8292V40.8325Z" fill="#BF9A88"/>
<path d="M33.1458 31.1041C31.3605 30.6464 30.0783 30.4549 29.3154 30.377C29.8608 30.7243 30.5749 31.0067 31.5163 31.182C32.0421 31.2794 32.6102 31.2534 33.1458 31.1041Z" fill="#FF5C5C"/>
<path d="M28.001 28.8707C28.0627 29.0233 28.1406 29.1726 28.2314 29.3187C29.0624 29.6498 30.7958 30.1399 34.2756 30.5327C34.3828 30.4451 34.4866 30.3477 34.5808 30.2406C30.4875 29.877 28.5853 29.1434 28.001 28.8707Z" fill="#212121"/>
<path d="M34.5804 30.2406C34.5804 30.2406 34.6031 30.2178 34.6128 30.2081C34.7297 30.0718 34.8336 29.916 34.8595 29.7374C32.7561 30.0068 29.9353 29.4875 28.0655 28.4942C27.9973 28.4844 27.9324 28.4747 27.8643 28.465C27.9 28.6013 27.9454 28.7376 28.0038 28.8707C28.5881 29.1434 30.4903 29.877 34.5836 30.2406H34.5804Z" fill="white"/>
<path d="M33.815 30.8345C33.9773 30.7469 34.1299 30.6495 34.2727 30.5326C30.7929 30.1399 29.0595 29.6497 28.2285 29.3186C28.3389 29.4939 28.4752 29.6659 28.6343 29.8282C29.3679 29.8672 31.2506 30.0457 33.815 30.8345Z" fill="#212121"/>
<path d="M28.6377 29.8282C28.826 30.023 29.0499 30.208 29.3161 30.3801C30.079 30.458 31.3612 30.6463 33.1465 31.1072C33.3802 31.0423 33.6042 30.9514 33.8184 30.8345C31.2573 30.0457 29.3713 29.8672 28.6377 29.8282Z" fill="#FF5C5C"/>
<path d="M23.4425 16.7791C23.8483 16.2272 24.4131 15.8182 24.9714 15.4222C25.7245 14.8931 26.4841 14.3705 27.3021 13.9452C29.6263 12.7409 32.3757 12.3904 34.9271 12.9682C35.8718 13.1824 36.7871 13.52 37.6896 13.8738C39.5074 14.5847 41.4193 15.4676 42.4061 17.1556C42.8898 17.9834 43.104 18.9345 43.3118 19.8693C43.3994 20.2588 43.487 20.6549 43.4351 21.0509C43.3864 21.4469 43.1722 21.8429 42.8054 22.002C42.3509 22.2 41.8315 21.9825 41.3836 21.765C40.7214 21.4437 40.0559 21.1256 39.3937 20.8042C38.5725 20.4082 37.7447 20.0089 36.8748 19.733C35.427 19.272 33.8949 19.1584 32.3757 19.0903C30.1035 18.9864 27.8312 18.9734 25.559 19.0546C24.9292 19.0773 23.7542 19.2818 23.2121 18.8208C22.6115 18.3112 23.0595 17.2919 23.4393 16.7791H23.4425Z" fill="#EDBFA9"/>
<path d="M39.3911 10.7316C39.4788 10.235 39.5664 9.72533 39.4463 9.23518C39.2516 8.43664 38.5536 7.86858 37.8655 7.41738C36.1937 6.3267 34.311 5.55738 32.3504 5.16785C31.5227 5.0023 30.6722 4.90492 29.8379 5.04125C28.0948 5.32366 26.6892 6.5734 25.3876 7.76795C24.9234 8.19319 24.4624 8.61842 23.9983 9.04366C23.7061 9.30984 23.414 9.57926 23.1705 9.88764C22.5537 10.6667 22.2681 11.7022 22.3947 12.689C22.4531 13.124 22.5862 13.546 22.6674 13.9777C22.8167 14.7438 22.8037 15.5293 22.794 16.3084C22.7647 18.256 22.7355 20.2069 22.7063 22.1545C23.1251 21.3528 23.5438 20.551 23.9625 19.7492C24.1054 19.4733 24.2514 19.1941 24.3423 18.8955C24.4592 18.5157 25.4882 16.9706 25.5856 16.581C25.868 15.4611 28.929 14.3997 30.0781 14.2958C32.4705 14.0751 34.8986 14.3023 37.2098 14.9613C37.4532 15.0294 37.7097 15.1073 37.9596 15.0489C39.1282 14.7795 39.2288 11.621 39.3879 10.7284L39.3911 10.7316Z" fill="#362D2C"/>
<path d="M46.2234 16.0065C46.2526 16.0746 46.2818 16.1493 46.2785 16.224C46.2785 16.3473 46.2006 16.4544 46.1325 16.5583C45.7722 17.1004 45.5969 17.7431 45.4281 18.3729C44.9347 20.2134 44.438 20.6289 44.1069 22.5019C44.0258 22.9498 43.9544 23.4108 43.7531 23.8198C43.5518 24.2288 43.198 24.5923 42.7533 24.6832C43.0033 23.3945 43.237 22.0831 43.1071 20.775C42.8442 18.1067 40.7797 15.9481 38.2607 15.0327C38.488 14.4613 38.7412 13.8413 38.6957 13.9582C38.5302 14.3802 39.28 11.5756 39.3904 10.7316C39.4585 10.209 39.3287 10.024 39.5624 9.84219C40.1435 9.38449 41.6042 10.1213 42.169 10.3875C43.9933 11.251 45.4054 14.1692 46.2201 16.0065H46.2234Z" fill="#362D2C"/>
<path d="M38.0859 15.2371C38.4105 14.3834 38.5696 13.5102 38.7838 12.624L39.1085 11.3094C39.2188 10.8712 39.3519 10.4362 39.5045 10.0012C39.4753 10.4557 39.4266 10.9101 39.3584 11.3613C39.2935 11.8125 39.2123 12.2637 39.102 12.702C38.9916 13.1402 38.878 13.5849 38.7222 14.0166C38.5696 14.4483 38.3651 14.8703 38.0892 15.2371H38.0859Z" fill="#EDBFA9"/>
<path d="M36.5501 13.2116C36.7124 11.8256 36.2579 10.3778 35.3296 9.33259C34.6089 8.52432 33.6449 7.97249 32.6645 7.51479C31.4148 6.93374 30.0352 6.47929 28.6719 6.68704" stroke="#4D403E" stroke-width="0.324607" stroke-miterlimit="10"/>
<path d="M35.4923 12.887C33.3174 11.6048 31.3048 10.0467 29.5227 8.26139C29.3864 8.12506 29.2403 7.93029 29.3247 7.755" stroke="#4D403E" stroke-width="0.324607" stroke-miterlimit="10"/>
<path d="M38.1252 12.5916C38.2713 11.9392 37.9986 11.2672 37.6935 10.6732C36.6515 8.65739 34.9732 6.79414 32.7529 6.31372" stroke="#4D403E" stroke-width="0.324607" stroke-miterlimit="10"/>
<path d="M32.3017 12.9617C31.2922 12.6793 30.4385 12.0041 29.6821 11.277C28.9258 10.5499 28.2344 9.7481 27.3904 9.12485C27.306 9.06318 27.2183 8.99826 27.1859 8.89763C27.1534 8.80025 27.2216 8.66716 27.3255 8.6769" stroke="#4D403E" stroke-width="0.324607" stroke-miterlimit="10"/>
<path d="M38.2835 20.8821C39.0204 20.8821 39.7897 20.8919 40.4356 21.2457C40.5525 21.3106 40.6759 21.421 40.6401 21.5476C40.5979 21.7034 40.3772 21.7001 40.2182 21.6644C39.2963 21.4599 38.3452 21.3755 37.4006 21.4112C37.0954 21.4242 35.8489 21.6222 36.3975 21.0964C36.7935 20.7133 37.7836 20.8821 38.2802 20.8821H38.2835Z" fill="#362D2C"/>
<path d="M22.5306 46.0976C22.5306 46.0976 31.4898 47.5713 33.142 48.5192C34.7943 49.467 38.8486 51.3627 38.8486 51.3627C38.8486 51.3627 33.2686 46.2566 32.8466 46.0976C32.4246 45.9385 28.2664 44.5719 27.0556 44.9387C25.8448 45.3088 22.5273 46.0976 22.5273 46.0976H22.5306Z" fill="#D9D9D9"/>
<path d="M26.4201 19.8076C26.2935 19.8238 26.1279 19.8985 26.1604 20.0218C26.1831 20.1127 26.3 20.1387 26.3973 20.1452C27.3874 20.2166 28.4261 20.2036 29.3026 20.6711C29.5525 20.8041 29.7895 20.9794 30.0654 21.0476C30.1953 21.0801 29.8804 20.4308 29.8025 20.3627C29.5558 20.1549 29.1435 20.064 28.8384 19.9796C28.0561 19.7589 27.2283 19.6972 26.4201 19.8044V19.8076Z" fill="#362D2C"/>
<path d="M26.9521 39.0244L23.7222 40.5144L22.5342 46.0976C22.5342 46.0976 28.1661 45.2569 31.9056 46.5196C35.6418 47.7823 38.8554 51.3627 38.8554 51.3627L38.1965 46.8085L26.3256 42.5204L26.9553 39.0277L26.9521 39.0244Z" fill="white"/>
<path d="M37.2715 39.4496L42.5139 43.202C42.5139 43.202 39.4821 47.9933 38.8523 51.3627C38.8523 51.3627 37.6415 48.0419 38.1934 46.8084C38.7452 45.5717 38.8523 43.413 38.8523 43.413L37.2747 39.4496H37.2715Z" fill="white"/>
<path d="M38.8521 43.4131L39.8941 46.0457L38.8521 51.6257C38.8521 51.6257 37.8945 47.5713 37.9789 46.7306C38.0633 45.8898 38.8521 43.4131 38.8521 43.4131Z" fill="#D9D9D9"/>
<path d="M39.6665 70.1478L39.3419 70.1413C39.4328 65.441 38.6959 51.5088 38.6895 51.3693L39.0141 51.353C39.0206 51.4926 39.7574 65.4345 39.6665 70.1478Z" fill="#C7C7C7"/>
<path d="M18.2854 69.8036C17.753 67.8365 17.357 65.8045 16.9772 63.8406C16.5942 61.8637 16.1981 59.8219 15.6593 57.8516C14.3738 53.1318 12.4554 49.7202 9.79688 47.4187L10.0079 47.172C12.7151 49.5157 14.666 52.9792 15.9709 57.7639C16.5098 59.7473 16.909 61.7956 17.2953 63.7757C17.6751 65.7363 18.0679 67.7618 18.6002 69.716L18.2886 69.8004L18.2854 69.8036Z" fill="#C7C7C7"/>
<path d="M38.0017 55.2125C38.0017 55.6151 37.6739 55.9429 37.2714 55.9429C36.8689 55.9429 36.541 55.6151 36.541 55.2125C36.541 54.81 36.8689 54.4822 37.2714 54.4822C37.6739 54.4822 38.0017 54.81 38.0017 55.2125Z" fill="white"/>
<path d="M38.0017 63.1492C38.0017 63.5517 37.6739 63.8796 37.2714 63.8796C36.8689 63.8796 36.541 63.5517 36.541 63.1492C36.541 62.7467 36.8689 62.4188 37.2714 62.4188C37.6739 62.4188 38.0017 62.7467 38.0017 63.1492Z" fill="white"/>
</g>
</g>
<defs>
<clipPath id="clip0_2125_4974">
<rect width="62" height="62" fill="white" transform="translate(0.5 0.5)"/>
</clipPath>
</defs>
</svg>
