<svg width="192" height="192" viewBox="0 0 192 192" fill="none" xmlns="http://www.w3.org/2000/svg">
<path d="M95.6847 191.91C148.362 191.91 191.065 148.983 191.065 96.0303C191.065 43.0775 148.362 0.150879 95.6847 0.150879C43.0078 0.150879 0.304688 43.0775 0.304688 96.0303C0.304688 148.983 43.0078 191.91 95.6847 191.91Z" fill="#EBDFCC"/>
<mask id="mask0_1734_12091" style="mask-type:luminance" maskUnits="userSpaceOnUse" x="0" y="0" width="191" height="192">
<path d="M95.38 191.759C148.057 191.759 190.76 148.832 190.76 95.8795C190.76 42.9268 148.057 0.00012207 95.38 0.00012207C42.7031 0.00012207 0 42.9268 0 95.8795C0 148.832 42.7031 191.759 95.38 191.759Z" fill="white"/>
</mask>
<g mask="url(#mask0_1734_12091)">
<path d="M76.5327 23.5528C72.8927 22.9999 69.4227 25.2516 66.7027 27.7546C60.6727 33.2834 56.2827 40.5915 54.2127 48.5228C53.1027 52.7649 52.6527 57.1477 52.2027 61.5105C49.8627 84.2991 47.5227 107.088 45.1827 129.877C45.0727 130.912 44.9727 131.988 45.3427 132.953C45.7327 133.988 46.6027 134.762 47.5027 135.405C52.7727 139.195 59.5428 139.999 66.0128 140.401C79.0828 141.226 92.2327 140.944 105.253 139.537C109.543 139.074 113.853 138.481 117.933 137.094C121.443 135.898 124.723 134.139 127.983 132.38C132.333 130.037 136.683 127.705 141.033 125.363C144.593 123.443 148.183 121.513 151.303 118.94C154.733 116.105 157.503 112.576 160.243 109.068C160.843 108.304 161.463 107.5 161.603 106.535C161.773 105.429 161.283 104.333 160.803 103.328C157.443 96.2011 154.093 89.074 150.673 81.9771C143.293 66.6573 135.633 51.4883 127.783 36.4097C126.313 33.5951 124.833 30.7603 122.893 28.2472C118.113 22.065 110.673 18.1546 102.933 17.2399C95.1928 16.3352 87.2328 18.3155 80.5428 22.3264" fill="#3B3230"/>
<path d="M180.512 171.141C177.622 165.271 174.702 159.36 170.672 154.223C161.912 143.055 148.722 136.491 135.732 130.942C135.462 130.831 135.192 130.711 134.922 130.6C128.752 127.987 122.512 125.514 116.232 123.192L88.832 126.006C81.872 125.946 80.432 126.378 73.272 127.434C58.792 129.555 33.632 142.995 20.992 149.257C19.142 150.172 17.292 151.208 15.862 152.705C12.192 156.565 13.052 157.49 13.172 162.838C13.352 171.252 13.802 180.239 18.762 187.004C22.152 191.618 32.252 185.567 37.362 188.09C54.462 196.524 73.302 201.138 92.292 202.394C122.842 204.415 154.782 197.278 178.792 178.108C180.002 177.143 181.272 175.997 181.442 174.449C181.572 173.293 181.042 172.187 180.532 171.141H180.512Z" fill="white"/>
<path d="M80.8411 133.254C78.6211 130.319 77.3511 128.037 77.3211 127.434C77.2311 125.373 84.8711 118.286 86.3511 112.707C87.8311 107.138 87.9411 101.318 87.5911 95.5879H114.811C114.471 101.318 114.581 107.138 116.051 112.707C117.531 118.276 125.081 125.313 125.081 127.434C125.081 128.027 125.231 130.198 125.041 133.013C121.351 134.631 116.881 134.812 112.741 134.832C102.091 134.883 91.3511 134.802 80.8311 133.254H80.8411Z" fill="#E3B7AA"/>
<path d="M109.621 118.658C108.321 119.895 106.821 121.151 105.041 121.181C104.021 121.201 103.041 120.809 102.131 120.337C98.5014 118.457 95.6114 115.16 94.1914 111.29C96.3814 112.466 98.5914 113.652 100.961 114.386C103.331 115.11 105.911 115.361 108.291 114.647C109.201 114.376 110.061 113.974 110.911 113.562C112.441 112.838 114.301 111.561 115.931 111.28C116.071 112.456 114.191 113.923 113.481 114.708C112.241 116.065 110.961 117.381 109.631 118.638L109.621 118.658Z" fill="#D49D90"/>
<path d="M67.5725 66.979C67.5725 66.979 74.0125 88.672 81.5825 97.5884C89.1525 106.505 103.983 114.245 108.253 112.576C112.823 112.818 124.522 100.785 128.952 89.9285C133.382 79.072 129.943 57.379 129.943 57.379L118.342 39.6969L95.7825 25.5834L83.5725 46.0098L74.7625 51.5989L67.5625 66.989L67.5725 66.979Z" fill="#F5CABD"/>
<path d="M127.992 70.3967C129.062 68.909 131.932 67.371 133.752 67.3911C135.572 67.4212 137.362 68.3762 138.392 69.8941C139.472 71.4723 139.702 73.5431 139.282 75.4229C138.862 77.3027 137.852 78.9915 136.632 80.4692C135.512 81.8262 134.192 83.0225 132.742 84.0177C131.632 84.7816 130.412 85.435 129.532 86.4604" fill="#F5CABD"/>
<path d="M75.4502 78.4386C73.9702 77.363 71.9702 77.0715 70.2402 77.6646C68.5102 78.2576 67.1202 79.7454 66.6102 81.5046C66.0802 83.3441 66.5002 85.3848 67.4702 87.0434C68.4402 88.692 69.9302 89.9887 71.5502 91.004C73.0402 91.9389 74.6602 92.6627 76.3402 93.1452C77.6302 93.5171 78.9902 93.7584 80.1502 94.452" fill="#F5CABD"/>
<path d="M111.991 72.8797C112.201 74.2167 113.211 75.1616 114.241 75.0008C115.271 74.8299 115.941 73.6135 115.721 72.2766C115.511 70.9396 114.501 69.9947 113.471 70.1555C112.441 70.3264 111.771 71.5428 111.991 72.8797Z" fill="#0A0807"/>
<path d="M89.9012 76.4583C90.1112 77.7953 91.1212 78.7402 92.1512 78.5794C93.1812 78.4085 93.8512 77.1922 93.6312 75.8552C93.4212 74.5182 92.4112 73.5733 91.3812 73.7341C90.3512 73.895 89.6812 75.1214 89.9012 76.4583Z" fill="#0A0807"/>
<path d="M106.254 84.5606C106.344 84.5505 106.434 84.5002 106.504 84.4299L108.284 82.7009C108.504 82.4898 108.804 82.1982 108.914 81.7861C109.074 81.2031 108.804 80.5497 108.224 80.1174C107.914 79.8862 107.574 79.7555 107.254 79.6248C107.144 79.5846 107.034 79.5444 106.934 79.4942C105.344 78.7905 104.214 77.0715 104.204 75.3224C104.204 75.0611 103.984 74.85 103.724 74.85C103.464 74.85 103.254 75.0711 103.254 75.3325C103.274 77.4535 104.634 79.5243 106.554 80.3788C106.674 80.429 106.784 80.4793 106.904 80.5195C107.184 80.6301 107.454 80.7407 107.664 80.8914C107.874 81.0523 108.054 81.3237 108.004 81.5448C107.964 81.7057 107.794 81.8665 107.634 82.0173L105.854 83.7463C105.664 83.9273 105.664 84.2288 105.844 84.4198C105.954 84.5405 106.114 84.5807 106.264 84.5606H106.254Z" fill="#A38375"/>
<path d="M76.8125 90.8634C77.0425 90.8232 77.2225 90.6221 77.2125 90.3809C77.2125 90.1195 76.9825 89.9084 76.7225 89.9185C74.9725 89.9788 73.1525 89.1344 71.8625 87.6667C70.6125 86.2494 69.8025 83.7061 69.5525 81.8263C69.5225 81.565 69.2825 81.384 69.0225 81.4142C68.7725 81.4644 68.5825 81.6856 68.6125 81.9469C68.8525 83.8267 69.6725 86.6213 71.1525 88.3C72.6325 89.9788 74.7325 90.9438 76.7525 90.8734C76.7725 90.8734 76.7925 90.8734 76.8125 90.8734V90.8634Z" fill="#A38375"/>
<path d="M138.612 74.5484C138.842 74.5082 139.012 74.3172 139.012 74.0759C139.012 73.3723 138.612 72.7993 138.192 72.2866C136.652 70.4269 135.042 69.4921 133.402 69.4921C132.032 69.4921 130.722 70.2259 129.962 71.3719C129.822 71.593 129.882 71.8845 130.102 72.0353C130.322 72.1761 130.612 72.1157 130.762 71.8946C131.332 71.02 132.372 70.447 133.412 70.437C134.752 70.437 136.122 71.2512 137.472 72.8797C137.782 73.2516 138.072 73.6537 138.072 74.0558C138.072 74.3172 138.292 74.5283 138.552 74.5283C138.572 74.5283 138.602 74.5283 138.622 74.5283L138.612 74.5484Z" fill="#A38375"/>
<path d="M67.4804 84.641C67.2504 84.6712 67.0304 84.5304 66.9604 84.2992C66.7604 83.6257 66.9804 82.9623 67.2404 82.3491C68.1804 80.1275 69.4604 78.7604 71.0304 78.298C72.3404 77.916 73.8104 78.2276 74.8604 79.1122C75.0604 79.2831 75.0904 79.5847 74.9204 79.7857C74.7504 79.9868 74.4504 80.0169 74.2504 79.846C73.4504 79.1725 72.2904 78.9212 71.3004 79.2127C70.0104 79.5947 68.9404 80.7708 68.1104 82.721C67.9204 83.1734 67.7604 83.6358 67.8704 84.0278C67.9404 84.2791 67.8004 84.5505 67.5504 84.6209C67.5304 84.6209 67.5004 84.631 67.4804 84.631V84.641Z" fill="#A38375"/>
<path d="M131.39 82.0274C131.39 82.0274 131.43 82.0274 131.45 82.0173C133.4 81.4443 135.09 79.8661 135.98 77.8054C136.87 75.7447 136.77 72.8295 136.42 70.9698C136.37 70.7084 136.13 70.5576 135.87 70.5878C135.61 70.6381 135.44 70.8894 135.49 71.1507C135.84 73.0205 135.86 75.6843 135.11 77.4334C134.33 79.2429 132.87 80.61 131.19 81.1126C130.94 81.183 130.8 81.4544 130.87 81.7057C130.94 81.9369 131.17 82.0776 131.4 82.0475L131.39 82.0274Z" fill="#A38375"/>
<path d="M84.2826 70.2358C84.3926 70.2157 84.5026 70.1554 84.5726 70.0649C85.6026 68.7883 87.3826 68.3862 89.2626 68.0545C90.0726 67.9137 90.9926 67.8032 91.5426 68.2656C91.7426 68.4365 92.0426 68.4063 92.2126 68.2053C92.3826 68.0042 92.3526 67.7026 92.1526 67.5318C91.2926 66.808 90.1326 66.9387 89.1126 67.1196C87.0426 67.4815 85.0826 67.9238 83.8526 69.4618C83.6926 69.6629 83.7226 69.9644 83.9226 70.1353C84.0326 70.2258 84.1626 70.256 84.2926 70.2358H84.2826Z" fill="#52423A"/>
<path d="M119.55 64.5262C119.44 64.5463 119.32 64.5262 119.22 64.4558C117.85 63.5612 116.03 63.7421 114.14 64.0336C113.32 64.1542 112.42 64.3352 112.04 64.9484C111.9 65.1695 111.61 65.2399 111.39 65.0992C111.17 64.9584 111.1 64.6669 111.24 64.4357C111.83 63.4807 112.98 63.2294 114 63.0786C116.08 62.767 118.08 62.576 119.73 63.6416C119.95 63.7823 120.01 64.0839 119.87 64.305C119.79 64.4257 119.68 64.496 119.55 64.5161V64.5262Z" fill="#52423A"/>
<path d="M81.4514 89.6269C81.8814 92.3109 84.3714 94.1304 87.0314 93.7082C89.6914 93.2759 91.4914 90.7528 91.0714 88.0789C90.6414 85.3949 88.1514 83.5754 85.4914 83.9976C82.8314 84.4299 81.0314 86.953 81.4514 89.6269Z" fill="#E3ADBE"/>
<path d="M117.291 83.8266C117.721 86.5106 120.211 88.3301 122.871 87.9079C125.531 87.4756 127.331 84.9525 126.911 82.2786C126.481 79.5946 123.991 77.7751 121.331 78.1973C118.671 78.6296 116.871 81.1527 117.291 83.8266Z" fill="#E3ADBE"/>
<mask id="mask1_1734_12091" style="mask-type:luminance" maskUnits="userSpaceOnUse" x="13" y="123" width="169" height="80">
<path d="M180.512 171.141C177.622 165.271 174.702 159.36 170.672 154.223C161.912 143.055 148.722 136.491 135.732 130.942C135.462 130.831 135.192 130.711 134.922 130.6C128.752 127.987 122.512 125.514 116.232 123.192L88.832 126.006C81.872 125.946 80.432 126.378 73.272 127.434C58.792 129.555 33.632 142.995 20.992 149.257C19.142 150.172 17.292 151.208 15.862 152.705C12.192 156.565 13.052 157.49 13.172 162.838C13.352 171.252 13.802 180.239 18.762 187.004C22.152 191.618 32.252 185.567 37.362 188.09C54.462 196.524 73.302 201.138 92.292 202.394C122.842 204.415 154.782 197.278 178.792 178.108C180.002 177.143 181.272 175.997 181.442 174.449C181.572 173.293 181.042 172.187 180.532 171.141H180.512Z" fill="white"/>
</mask>
<g mask="url(#mask1_1734_12091)">
<path d="M52.1045 128.087C65.2945 139.376 82.5245 142.542 99.4245 141.899C115.675 141.276 134.585 139.657 148.195 129.846C149.495 128.911 148.245 126.73 146.935 127.675C134.115 136.923 116.675 138.481 101.365 139.295C84.5545 140.19 67.0645 137.607 53.8645 126.308C52.6445 125.262 50.8645 127.032 52.0945 128.087H52.1045Z" fill="#333333"/>
<path d="M34.9554 138.712C56.1054 148.815 78.0954 151.75 101.305 151.187C123.215 150.665 145.365 148.403 165.375 138.783C166.825 138.089 165.555 135.918 164.115 136.611C144.525 146.02 122.745 148.152 101.305 148.664C78.5754 149.207 56.9354 146.423 36.2154 136.531C34.7654 135.837 33.4954 138.009 34.9554 138.702V138.712Z" fill="#333333"/>
<path d="M22.8746 143.668C44.0446 157.812 69.3046 161.732 94.3346 161.622C120.775 161.501 148.895 160.315 170.795 143.749C172.065 142.784 170.825 140.602 169.535 141.577C147.975 157.882 120.355 158.988 94.3346 159.109C69.7246 159.219 44.9646 155.409 24.1446 141.497C22.8046 140.602 21.5446 142.774 22.8846 143.668H22.8746Z" fill="#333333"/>
<path d="M16.5751 150.464C42.4251 165.411 72.2051 171.252 101.755 172.076C129.945 172.87 161.195 168.648 179.485 144.583C180.465 143.296 178.295 142.05 177.325 143.316C158.875 167.593 126.425 170.609 98.2951 169.442C70.3251 168.286 42.2851 162.426 17.8351 148.292C16.4351 147.488 15.1751 149.659 16.5751 150.464Z" fill="#333333"/>
<path d="M14.8837 162.667C40.7337 177.615 70.5137 183.456 100.064 184.28C128.254 185.074 159.504 180.852 177.794 156.787C178.774 155.5 176.604 154.253 175.634 155.52C157.184 179.796 124.734 182.812 96.6037 181.646C68.6337 180.49 40.5937 174.63 16.1437 160.496C14.7437 159.692 13.4837 161.863 14.8837 162.667Z" fill="#333333"/>
</g>
<path d="M108.312 36.4499C112.592 39.1138 114.112 45.0346 112.592 49.8598C111.072 54.6849 107.072 58.3942 102.562 60.6359C99.4322 62.194 95.6322 63.1289 92.4822 61.621C90.6422 60.7364 89.2522 59.128 87.9722 57.5398C90.8522 59.4598 94.8622 58.4445 97.6022 56.3234C99.6022 54.7754 101.222 52.584 101.592 50.0709C101.952 47.5578 100.832 44.7632 98.5722 43.6273C98.3522 43.5167 98.1022 43.4162 97.8522 43.4564C97.6222 43.4966 97.4322 43.6474 97.2422 43.7982C91.8022 48.2614 87.2422 53.8003 83.9122 60.0126C82.7122 62.2543 81.6622 64.5865 80.2422 66.6874C78.5322 69.2105 76.2822 71.4321 75.2222 74.287C74.7122 75.6441 74.2722 77.353 72.8822 77.745C71.9122 78.0164 70.7922 77.5138 69.9122 78.0064C69.4322 78.2778 69.0222 78.8307 68.4822 78.7201C68.2322 78.6698 68.0322 78.4587 67.8622 78.2677C64.1222 74.1161 61.5722 68.8889 60.6022 63.3701C60.3922 62.2041 60.2622 61.0279 60.1522 59.8518C59.8322 56.3536 59.7622 52.785 60.6522 49.3974C62.6522 41.8078 69.1922 36.2187 76.1822 32.7104C79.1722 31.2126 82.3122 29.9963 85.5322 29.0815C87.2522 28.599 89.0122 28.1969 90.8022 28.1467C96.4122 27.9858 101.502 31.1925 106.202 34.2786" fill="#3B3230"/>
<path d="M92.8125 28.1265C93.3325 26.498 94.6925 25.2415 96.2325 24.5077C97.7725 23.7739 99.4725 23.4924 101.163 23.2913C106.523 22.658 112.263 22.8289 116.893 25.6335C119.923 27.4731 124.223 30.2978 126.263 33.203C127.853 35.4748 129.333 37.8371 130.383 40.4105C131.023 41.9787 131.502 43.6172 131.982 45.2557C134.212 52.9156 134.443 61.1887 131.773 68.7079C130.283 67.8836 129.503 66.1948 128.743 64.6668C125.923 59.0275 121.993 54.0415 118.083 49.1058C116.383 46.9546 114.653 44.7732 112.423 43.195C109.633 41.2147 106.263 40.2899 102.963 39.4053C100.853 38.8423 98.7425 38.2693 96.6425 37.7064" fill="#3B3230"/>
<path d="M113.602 92.9041C108.322 93.3765 104.692 94.2611 102.582 94.9246C104.432 95.588 106.662 95.779 109.372 95.2664C110.882 94.9748 112.362 94.1606 113.612 92.9041H113.602Z" fill="#FF5C5C"/>
<path d="M97.342 90.7227C97.682 91.2353 98.062 91.7178 98.472 92.1702C101.062 92.4014 106.242 92.1199 115.942 89.245C116.122 88.7624 116.282 88.2598 116.412 87.7271C105.112 91.4866 99.202 91.0443 97.332 90.7227H97.342Z" fill="#212121"/>
<path d="M116.412 87.727C116.422 87.6667 116.442 87.6165 116.462 87.5561C116.612 86.8826 116.712 86.1388 116.572 85.425C111.292 89.1344 103.202 90.6824 97.0622 89.1846C96.8722 89.2349 96.6822 89.2751 96.4922 89.3254C96.7422 89.8079 97.0322 90.2803 97.3322 90.7327C99.2022 91.0443 105.112 91.4967 116.412 87.7371V87.727Z" fill="white"/>
<path d="M115.073 90.9941C115.403 90.4513 115.703 89.8783 115.943 89.245C106.233 92.12 101.063 92.4014 98.4727 92.1702C98.9727 92.7131 99.5327 93.2056 100.143 93.6379C102.133 92.8638 107.353 91.175 115.073 90.9941Z" fill="#212121"/>
<path d="M100.133 93.6379C100.863 94.1606 101.673 94.6029 102.573 94.9246C104.693 94.2611 108.323 93.3765 113.593 92.904C114.133 92.3512 114.623 91.7179 115.063 91.0042C107.333 91.1851 102.123 92.8739 100.133 93.6479V93.6379Z" fill="#FF5C5C"/>
</g>
</svg>
