<svg width="192" height="192" viewBox="0 0 192 192" fill="none" xmlns="http://www.w3.org/2000/svg">
<g clip-path="url(#clip0_1734_12060)">
<path d="M96.0714 190.76C148.748 190.76 191.451 148.057 191.451 95.38C191.451 42.7031 148.748 0 96.0714 0C43.3945 0 0.691406 42.7031 0.691406 95.38C0.691406 148.057 43.3945 190.76 96.0714 190.76Z" fill="#EBDFCC"/>
<mask id="mask0_1734_12060" style="mask-type:luminance" maskUnits="userSpaceOnUse" x="0" y="0" width="192" height="192">
<path d="M96.3097 191.13C148.987 191.13 191.69 148.427 191.69 95.75C191.69 43.0731 148.987 0.369995 96.3097 0.369995C43.6328 0.369995 0.929688 43.0731 0.929688 95.75C0.929688 148.427 43.6328 191.13 96.3097 191.13Z" fill="white"/>
</mask>
<g mask="url(#mask0_1734_12060)">
<path d="M79.5499 127.34C59.1999 141.08 33.0799 142.3 10.1899 151.2C6.01991 152.82 1.83991 154.78 -1.20009 158.05C-4.25009 161.32 -5.96009 166.18 -4.43009 170.38C-3.43009 173.12 -1.24009 175.23 0.989912 177.12C20.8999 194.04 47.4599 200.7 73.3099 204.52C77.2899 205.11 81.2799 205.64 85.2999 205.93C110.22 207.72 134.74 200.07 158.56 192.5C162.04 191.39 165.63 190.23 168.37 187.82C170.7 185.77 172.25 182.99 173.61 180.2C176.96 173.32 179.49 166.05 181.14 158.58C181.57 156.63 181.93 154.52 181.14 152.68C180.4 150.93 178.77 149.74 177.15 148.75C161.38 139.13 141.47 140.76 123.46 136.65C118.52 135.52 113.63 133.94 108.57 133.76C103.51 133.58 98.0699 135.07 94.8999 139.03" fill="#3B3230"/>
<path d="M67.5103 50.7999C59.3603 54.9299 52.4103 60.9499 45.6203 66.9599C43.1703 69.1199 40.5703 71.6199 40.3203 74.8199C40.0203 78.6899 43.2303 81.8799 46.1903 84.4899L54.4603 91.7699C57.6203 94.5499 61.1003 97.4799 65.3403 97.8599C67.2403 98.0299 69.1403 97.6699 71.0003 97.2299C79.5903 95.2299 87.8103 91.7499 95.1703 86.9999" fill="#EBDFCC"/>
<path d="M59.0112 98.6999C70.5412 103.24 79.1212 106.57 91.4612 107.74C97.8412 108.34 104.261 108.02 110.671 107.99C118.571 107.95 134.531 107.82 142.391 108.66C142.931 108.72 143.501 108.77 143.971 108.51C144.471 108.24 144.751 107.68 144.981 107.16C149.771 96.2199 144.351 84.2799 142.961 72.4199C142.011 64.3299 136.711 41.1499 131.411 34.9599C125.711 28.2999 117.241 40.2999 108.781 38.0199C104.511 36.8699 100.151 35.7099 95.7412 35.9699C93.0912 36.1299 90.4912 36.7999 87.9812 37.6699C82.8912 39.4499 78.1212 42.0999 73.9012 45.4499C68.9812 49.3599 64.9812 51.3599 62.7712 57.1099C57.9912 69.5599 58.5912 85.5899 59.0112 98.7099V98.6999Z" fill="#3B3230"/>
<path d="M122.921 147.62C121.431 141.53 120.141 136.93 120.141 136.93C115.231 132.93 112.121 127.3 110.551 121.44C108.981 115.57 108.861 109.46 109.231 103.42H80.3114C80.6714 109.45 80.5614 115.57 78.9914 121.44C77.4214 127.31 75.3414 128.79 70.4414 132.79C73.4914 134.54 78.9214 141.09 84.9514 148.66C86.7614 148.79 88.5814 148.86 90.3814 148.89C101.241 149.11 112.111 148.68 122.931 147.63L122.921 147.62Z" fill="#E3B7A1"/>
<path d="M90.3714 148.88C88.5614 148.84 86.7514 148.78 84.9414 148.65C94.6514 160.83 105.941 175.65 111.431 177.3L126.401 176.98C129.171 175.42 125.691 158.95 122.921 147.62C112.111 148.68 101.231 149.1 90.3714 148.88Z" fill="white"/>
<path d="M133.751 68.9999C133.751 68.9999 130.381 96.7699 122.591 106.85C114.791 116.93 99.7809 122.07 95.0109 120.5C90.0209 121.01 75.9609 111.67 70.5209 100.15C65.0709 88.6299 68.2409 61.8799 68.2409 61.8799L101.401 48.4399L118.801 50.3299L125.021 52.7199L133.751 68.9999Z" fill="#EDBFA9"/>
<path d="M95.658 90.03C95.558 90.02 95.458 89.98 95.378 89.91L93.328 88.14C93.078 87.92 92.738 87.63 92.598 87.18C92.368 86.47 92.768 85.74 93.258 85.34C93.588 85.07 93.948 84.91 94.298 84.75C94.408 84.7 94.528 84.65 94.638 84.59C96.348 83.74 97.478 81.82 97.398 79.91C97.388 79.62 97.608 79.38 97.898 79.37C98.178 79.37 98.428 79.58 98.438 79.87C98.528 82.17 97.158 84.49 95.098 85.52C94.978 85.58 94.848 85.64 94.718 85.7C94.418 85.84 94.128 85.97 93.908 86.15C93.688 86.33 93.498 86.64 93.578 86.87C93.628 87.04 93.828 87.21 94.008 87.36L96.058 89.13C96.278 89.32 96.298 89.64 96.108 89.86C95.988 89.99 95.828 90.05 95.658 90.04V90.03Z" fill="#A38375"/>
<path d="M101.47 137.57C102.01 137.64 102.58 137.68 103.08 137.47C103.62 137.25 104.01 136.78 104.34 136.31C106.68 133.01 107.17 128.78 107.58 124.76C105.35 125.17 103.68 127.07 101.51 127.72C99.7998 128.24 97.9598 127.93 96.1998 127.6C92.0998 126.84 89.7098 125.3 86.2398 123.28C83.6698 121.79 84.5198 124.17 85.5398 126C88.3798 131.13 95.6098 136.77 101.47 137.56V137.57Z" fill="#BF9A88"/>
<path d="M69.3117 57.63C70.5717 55.84 72.3517 54.5 74.1117 53.2C76.4817 51.46 78.8717 49.74 81.4617 48.34C88.8017 44.35 97.5617 43.06 105.742 44.75C108.772 45.38 111.712 46.39 114.622 47.46C120.472 49.62 126.632 52.32 129.882 57.64C131.482 60.25 132.222 63.28 132.952 66.25C133.252 67.48 133.552 68.75 133.422 70.01C133.292 71.27 132.632 72.56 131.472 73.09C130.032 73.75 128.362 73.09 126.912 72.43C124.772 71.45 122.632 70.47 120.502 69.49C117.852 68.28 115.192 67.06 112.402 66.23C107.752 64.85 102.852 64.58 98.0017 64.46C90.7417 64.27 83.4817 64.38 76.2317 64.77C74.2217 64.88 70.4817 65.61 68.7217 64.17C66.7717 62.58 68.1417 59.3 69.3117 57.63Z" fill="#EDBFA9"/>
<path d="M93.1903 43.1799C91.0403 48.4099 90.4003 54.2499 91.3803 59.8199C93.9103 60.2699 96.5003 60.3899 99.0603 60.1699C99.1703 57.3699 99.6703 54.5799 100.55 51.9199C101.73 54.8799 102.14 58.1399 101.72 61.2999C104.67 61.3799 107.63 61.4599 110.58 61.5399C110.48 58.6699 110.39 55.7999 110.29 52.9299C112.18 55.1799 113.27 58.0999 113.33 61.0399C115.72 61.3399 118.12 61.6299 120.51 61.9299C120.48 59.3999 120.35 56.8599 120.12 54.3399C120.93 55.6799 121.91 56.9299 123.03 58.0299C124.95 59.9199 127.27 61.3799 129.06 63.3999C133.24 68.1099 133.83 74.9099 134.21 81.1899C135.47 78.9399 135.71 76.2799 135.72 73.7099C135.75 67.8599 134.74 61.9999 132.76 56.4899C132.32 55.2799 131.84 54.0699 131.22 52.9399C128.58 48.0699 123.78 44.7499 118.86 42.1999C113.24 39.2799 107.24 37.0999 101.06 35.7299C99.0203 35.2799 96.9503 34.9199 94.8603 34.9799C91.9003 35.0699 89.0403 36.0199 86.2303 36.9599C84.1903 37.6399 82.1403 38.3299 80.2903 39.4399C78.0303 40.7999 76.1803 42.7499 74.3603 44.6599C73.2903 45.7799 72.2303 46.9099 71.1603 48.0299C70.0903 49.1599 69.0103 50.2999 68.1903 51.6299C66.3303 54.6699 66.0503 58.4099 66.2503 61.9599C66.4503 65.5099 67.0903 69.0599 66.9003 72.6099C69.7103 66.5199 72.7803 60.5499 76.0803 54.7199C75.5003 56.8199 75.5003 59.0899 76.1003 61.1899C76.1803 61.4599 76.2803 61.7499 76.5003 61.9199C76.7503 62.1099 77.1003 62.1099 77.4203 62.0899C79.1203 62.0099 80.8303 61.9399 82.5303 61.8599C82.9903 61.8399 83.5003 61.7999 83.8403 61.4899C84.1803 61.1799 84.2603 60.6799 84.3303 60.2199C84.8003 56.7999 85.3403 53.2599 87.2303 50.3599C88.9803 47.6699 91.8003 45.7699 94.8403 44.7199" fill="#3B3230"/>
<path d="M60.5703 64.65C60.5703 64.65 79.5703 28.91 128.16 48.02C128.16 48.02 135.7 33.02 122.42 26.07C109.14 19.12 96.7703 20.67 91.2003 22.07C85.6303 23.47 76.5003 27.43 70.6603 35.81C63.4503 46.15 60.5703 64.6399 60.5703 64.6399V64.65Z" fill="#3B3230"/>
<path d="M96.1911 102.89C93.3511 102.47 90.4711 102.25 87.6211 102.22C88.3611 103.5 89.1311 104.59 89.6811 105.16C91.5011 107.04 94.7911 108.46 97.7911 108.05C100.501 107.68 102.201 106 103.581 104.37C101.151 103.77 98.6911 103.25 96.2011 102.88L96.1911 102.89Z" fill="#FF5C5C"/>
<path d="M101.1 100.11C102.8 100.2 104.52 100.26 106.21 100.23C106.54 99.32 106.67 98.38 106.44 97.4C103.81 97.65 101.16 97.9 98.4597 97.74C95.7397 97.58 93.4697 96.89 90.8997 96.22C89.3897 95.83 85.5397 94.74 85.5397 94.74C85.1597 95.24 85.1497 96.08 85.3597 97.07C87.3297 97.96 89.4997 98.61 91.7097 99.06C94.7897 99.68 97.9497 99.94 101.09 100.11H101.1Z" fill="white"/>
<path d="M101.101 100.11C97.9611 99.9399 94.8011 99.6799 91.7211 99.0599C89.5111 98.6099 87.3411 97.9599 85.3711 97.0699C85.7011 98.6299 86.6011 100.57 87.5411 102.21C90.3911 102.24 93.2711 102.46 96.1111 102.88C98.6111 103.25 101.071 103.76 103.501 104.37C103.551 104.31 103.601 104.25 103.651 104.2C104.691 102.96 105.701 101.64 106.211 100.24C104.521 100.28 102.801 100.22 101.101 100.12V100.11Z" fill="#212121"/>
<path d="M94.0303 36.1299C99.8303 35.3699 105.73 35.3899 111.53 36.1799C111.69 36.1999 110.3 32.3499 110.09 32.0199C109.23 30.6299 108.04 29.4499 106.65 28.6099C104.4 27.2599 100.86 26.0099 98.1903 26.0999C92.7503 26.2699 86.0203 37.1799 94.0303 36.1299Z" fill="#3B3230"/>
<path d="M123.501 68.6499C123.391 68.6499 123.281 68.6099 123.191 68.5399C119.621 65.6999 114.241 65.1799 109.801 67.2399C109.551 67.3599 109.251 67.2399 109.141 66.9999C109.021 66.7499 109.141 66.4499 109.381 66.3399C114.161 64.1299 119.961 64.6999 123.821 67.7699C124.041 67.9399 124.071 68.2599 123.901 68.4699C123.801 68.5899 123.651 68.6599 123.511 68.6599L123.501 68.6499Z" fill="#A38375"/>
<path d="M91.8599 67.73C91.7799 67.73 91.6999 67.7099 91.6199 67.6699C90.4299 67.0199 89.0799 66.62 87.7899 66.23C85.4499 65.53 82.7899 64.7299 80.2599 65.1699C79.9899 65.2099 79.7299 65.03 79.6799 64.76C79.6299 64.49 79.8199 64.23 80.0899 64.18C82.8599 63.71 85.6299 64.5399 88.0799 65.2699C89.4299 65.6799 90.8199 66.09 92.0999 66.79C92.3399 66.92 92.4299 67.23 92.2999 67.47C92.2099 67.64 92.0399 67.73 91.8599 67.73Z" fill="#A38375"/>
</g>
<path d="M108.679 77.48C108.529 78.89 109.289 80.13 110.389 80.25C111.489 80.37 112.499 79.33 112.659 77.92C112.809 76.51 112.049 75.27 110.949 75.15C109.849 75.03 108.839 76.07 108.679 77.48Z" fill="#0A0807"/>
<path d="M83.1597 73.24C85.7397 73.2 88.5197 73.32 90.5897 74.86C90.7997 75.01 91.0197 75.24 90.9597 75.49C90.8997 75.78 90.5397 75.88 90.2397 75.9C89.4197 75.96 88.5997 75.87 87.7797 75.88C85.8797 75.89 84.0197 76.38 82.1797 76.87L83.1497 73.24H83.1597Z" fill="#0A0807"/>
</g>
<defs>
<clipPath id="clip0_1734_12060">
<rect width="192" height="192" fill="white"/>
</clipPath>
</defs>
</svg>
