<svg width="192" height="192" viewBox="0 0 192 192" fill="none" xmlns="http://www.w3.org/2000/svg">
<g clip-path="url(#clip0_1734_12191)">
<path d="M95.8794 191.759C148.832 191.759 191.759 148.832 191.759 95.8794C191.759 42.9267 148.832 0 95.8794 0C42.9267 0 0 42.9267 0 95.8794C0 148.832 42.9267 191.759 95.8794 191.759Z" fill="#F0E3D0"/>
<mask id="mask0_1734_12191" style="mask-type:luminance" maskUnits="userSpaceOnUse" x="0" y="0" width="192" height="192">
<path d="M95.8794 191.759C148.832 191.759 191.759 148.832 191.759 95.8794C191.759 42.9267 148.832 0 95.8794 0C42.9267 0 0 42.9267 0 95.8794C0 148.832 42.9267 191.759 95.8794 191.759Z" fill="white"/>
</mask>
<g mask="url(#mask0_1734_12191)">
<path d="M133.807 69.884C135.465 77.5841 137.134 85.2842 138.793 92.9843C139.285 95.2562 139.778 97.528 140.431 99.7496C141.306 102.705 142.462 105.57 143.397 108.505C146.714 118.919 147.116 130.228 144.543 140.844C144.271 141.949 143.94 143.105 143.075 143.859C142.522 144.342 141.798 144.593 141.095 144.814C138.26 145.709 135.325 146.282 132.369 146.523C130.479 146.674 128.569 146.684 126.72 146.292C124.729 145.87 122.86 144.995 121.111 143.97C112.255 138.813 106.012 129.937 102.725 120.307C99.4478 110.676 98.9251 100.313 99.6488 90.1697C99.7092 89.265 99.8801 88.2095 100.694 87.7973" fill="#523D3D"/>
<path d="M77.6956 43.2352L80.3695 28.2672L91.2361 20.3259C94.865 19.1397 98.6648 18.0339 102.465 18.5265C105.118 18.8683 107.601 19.9841 109.923 21.311C117.252 25.4827 123.243 31.7956 127.455 39.0534C131.667 46.3112 134.109 51.4781 135.105 59.7914C135.627 64.1039 135.738 68.5973 134.15 72.6484C129.033 85.7064 134.2 100.795 135.949 114.697C137.517 127.162 138.372 139.718 138.492 152.273L60.5664 154.394" fill="#523D3D"/>
<path d="M96.2917 21.3713C94.1505 19.6624 91.2856 19.0291 88.5313 19.1598C85.787 19.2904 83.113 20.1147 80.5296 21.0295C78.9011 21.6125 77.2827 22.2257 75.7547 23.05C71.8142 25.161 68.6376 28.418 65.6722 31.7453C56.1426 42.441 57.0674 60.5956 57.4092 61.6511C58.4446 64.8578 58.5149 68.2756 58.5752 71.6431C58.726 80.067 58.8768 88.4909 59.0276 96.9147C59.3895 117.06 57.369 136.923 58.2435 157.048" fill="#523D3D"/>
<path d="M110.035 98.9755C109.683 104.695 109.794 110.506 111.301 116.064C112.809 121.633 115.795 126.971 120.499 130.761C120.791 130.791 117.836 141.175 96.1224 141.125H96.2129C83.7781 141.135 71.9465 140.029 71.8359 130.761C76.5404 126.971 79.526 121.623 81.0338 116.064C82.5417 110.495 82.6523 104.695 82.3004 98.9755" fill="#E3B7A1"/>
<path d="M67.5404 69.7734C66.1833 68.4364 64.1527 67.8031 62.2629 68.1349C60.373 68.4565 58.6842 69.7332 57.8599 71.4421C57.0055 73.2314 57.106 75.3726 57.8398 77.2121C58.5837 79.0517 59.9106 80.6099 61.4185 81.9066C62.8057 83.1028 64.3638 84.098 66.0426 84.872C67.3192 85.4651 68.6964 85.9275 69.782 86.8323" fill="#EDBFA9"/>
<path d="M124.117 69.7734C125.474 68.4364 127.504 67.8031 129.394 68.1349C131.284 68.4565 132.973 69.7332 133.797 71.4421C134.652 73.2314 134.551 75.3726 133.817 77.2121C133.073 79.0517 131.746 80.6099 130.239 81.9066C128.851 83.1028 127.293 84.098 125.614 84.872C124.338 85.4651 122.961 85.9275 121.875 86.8323" fill="#EDBFA9"/>
<path d="M119.735 49.9904C122.981 55.8509 125.515 76.1466 124.328 79.9967C122.248 86.7116 119.875 93.4266 115.905 99.2469C111.934 105.067 106.194 109.973 99.2981 111.652C96.4433 112.345 93.3974 112.476 90.5626 111.682C87.7781 110.908 85.3153 109.299 82.9027 107.721C80.0378 105.841 77.1126 103.911 74.9915 101.227C72.4081 97.9502 71.2219 93.8388 70.2167 89.7977C66.8793 76.3979 67.6935 82.7108 67.0602 68.919C67.0602 68.919 66.0449 38.9227 91.5277 38.9227C117.01 38.9227 115.975 43.205 119.735 49.9904Z" fill="#EDBFA9"/>
<path d="M85.4143 71.4219C85.4143 72.8192 84.5197 73.9451 83.424 73.9451C82.3282 73.9451 81.4336 72.8192 81.4336 71.4219C81.4336 70.0247 82.3282 68.8988 83.424 68.8988C84.5197 68.8988 85.4143 70.0247 85.4143 71.4219Z" fill="#0A0807"/>
<path d="M108.926 71.4219C108.926 72.8192 108.031 73.9451 106.936 73.9451C105.84 73.9451 104.945 72.8192 104.945 71.4219C104.945 70.0247 105.84 68.8988 106.936 68.8988C108.031 68.8988 108.926 70.0247 108.926 71.4219Z" fill="#0A0807"/>
<path d="M105.218 89.4559C105.509 88.5914 105.74 87.5962 105.62 86.9529C105.68 87.2746 99.6486 88.5713 99.156 88.6517C95.6377 89.2448 92.049 89.1443 88.5507 88.3301C87.4651 88.0787 84.7107 86.8624 84.6404 87.2846C84.5499 87.7571 84.6605 88.6216 84.9319 89.6268C87.264 90.4511 93.1246 91.6172 105.218 89.4459V89.4559Z" fill="white"/>
<path d="M88.3994 93.8588C87.9973 93.9292 87.5952 94.0096 87.2031 94.1101C87.5047 94.462 87.8264 94.7736 88.1782 95.045C89.4247 95.9899 90.7617 96.7338 92.1991 96.9248C94.481 97.2163 96.9941 97.3369 99.1654 96.392C100.04 96.01 100.894 95.5677 101.658 94.9043C101.94 94.663 102.211 94.3916 102.473 94.1101C101.759 93.8689 100.995 93.7281 100.251 93.6377C96.3106 93.125 92.2997 93.2054 88.3893 93.8789L88.3994 93.8588Z" fill="#FF5C5C"/>
<path d="M104.717 90.7527C104.867 90.421 105.048 89.9586 105.219 89.4559C93.1263 91.6272 87.2657 90.4612 84.9336 89.6369C85.3357 91.0844 86.0997 92.8235 87.2054 94.1102C87.5975 94.0097 87.9996 93.9292 88.4017 93.8589C92.312 93.1854 96.3229 93.115 100.263 93.6176C101.017 93.7181 101.771 93.8488 102.485 94.0901C103.37 93.1451 104.144 92.0092 104.717 90.7426V90.7527Z" fill="#0A0807"/>
<path d="M83.305 110.576C84.8932 113.109 87.5169 115.019 90.3114 116.135C91.3468 116.547 92.4124 116.929 93.5182 117.12C95.6291 117.482 97.8206 117.14 99.831 116.396C100.967 115.974 102.053 115.441 103.108 114.858C103.912 114.416 104.706 113.943 105.37 113.31C106.074 112.637 106.606 111.812 107.139 110.998C107.732 110.073 108.345 109.118 108.526 108.043C106.104 109.4 103.591 110.636 100.937 111.461C98.283 112.295 95.4683 112.727 92.7039 112.456C90.3215 112.225 88.0296 111.481 85.7778 110.686C84.7324 110.315 83.6266 109.892 82.9531 109.008C82.9531 109.279 83.305 110.294 83.305 110.566" fill="#BD9481"/>
<path d="M92.5604 81.9669C92.4196 81.9669 92.2789 81.9066 92.1784 81.796L90.1076 79.4036C90.0272 79.3031 89.8663 79.1221 89.8462 78.8607C89.8161 78.4888 90.0674 78.2375 90.1981 78.1169C91.5451 76.79 92.3895 74.8096 92.5905 72.5479C92.7815 70.3263 92.3593 68.1148 91.917 66.235C91.8567 65.9736 92.0175 65.7022 92.289 65.6419C92.5604 65.5816 92.8217 65.7424 92.8821 66.0138C93.3344 67.964 93.7767 70.276 93.5757 72.6283C93.3646 75.1213 92.4096 77.3227 90.9017 78.8105C90.9017 78.8105 90.8917 78.8205 90.8816 78.8306L92.9323 81.1527C93.1133 81.3638 93.0831 81.6654 92.8821 81.8463C92.7916 81.9267 92.671 81.9669 92.5604 81.9669Z" fill="#BD9886"/>
<path d="M130.157 70.7183C128.961 70.3766 126.518 71.1305 125.563 71.9146C126.96 72.1257 128.347 72.377 129.725 72.6584C130.489 72.8092 131.373 73.1007 131.584 73.8346C131.665 74.1261 131.624 74.4377 131.584 74.7292C131.504 75.262 131.393 75.8551 130.961 76.1768C130.519 76.5185 129.895 76.4683 129.343 76.3979C128.468 76.2873 127.583 76.1768 126.709 76.0662C127.021 76.6392 127.614 77.0513 128.267 77.1418C128.458 77.1719 128.679 77.172 128.82 77.3127C128.961 77.4534 128.971 77.6746 128.961 77.8756C128.82 80.0168 127.121 81.9569 125 82.3992C126.649 82.7209 128.388 82.0574 129.634 80.9416C130.881 79.8258 131.685 78.2978 132.248 76.7296C132.61 75.7144 133.404 73.724 132.549 72.8092C131.846 72.0553 131.112 70.9797 130.157 70.7083V70.7183Z" fill="#D4A58E"/>
<path d="M61.5519 70.4268C62.7482 70.085 65.1909 70.839 66.1459 71.6231C64.7486 71.8342 63.3614 72.0855 61.9842 72.3669C61.2202 72.5177 60.3356 72.8092 60.1245 73.5431C60.0441 73.8346 60.0843 74.1462 60.1245 74.4377C60.2049 74.9705 60.3155 75.5636 60.7477 75.8853C61.1901 76.227 61.8133 76.1768 62.3662 76.1064C63.2407 75.9958 64.1253 75.8853 64.9999 75.7747C64.6883 76.3477 64.0952 76.7598 63.4418 76.8503C63.2508 76.8804 63.0296 76.8804 62.8889 77.0212C62.7482 77.1619 62.7381 77.3831 62.7482 77.5841C62.8889 79.7253 64.5877 81.6654 66.7088 82.1077C65.0602 82.4293 63.3111 81.7659 62.0747 80.6501C60.8282 79.5343 60.024 78.0063 59.461 76.4381C59.0992 75.4229 58.305 73.4325 59.1595 72.5177C59.8631 71.7638 60.597 70.6882 61.5519 70.4168V70.4268Z" fill="#BF9A88"/>
<path d="M81.2621 83.7763C81.2621 85.435 78.8697 86.792 75.9143 86.792C72.9589 86.792 70.5664 85.445 70.5664 83.7763C70.5664 82.1076 72.9589 80.7606 75.9143 80.7606C78.8697 80.7606 81.2621 82.1076 81.2621 83.7763Z" fill="#E38F8F"/>
<path d="M114.596 65.8831C114.515 65.8831 114.425 65.863 114.344 65.8128C112.043 64.4758 109.308 63.8224 106.634 63.9531C105.287 64.0234 104.342 64.3049 103.659 64.8276C103.438 64.9985 103.126 64.9583 102.965 64.7472C102.794 64.5361 102.835 64.2245 103.056 64.0536C103.91 63.3901 105.036 63.0484 106.594 62.9679C109.459 62.8172 112.384 63.5309 114.857 64.9583C115.098 65.099 115.169 65.4006 115.038 65.6318C114.948 65.7927 114.777 65.8731 114.606 65.8731L114.596 65.8831Z" fill="#54433B"/>
<path d="M75.6734 65.0186C75.5025 65.0186 75.3316 64.9281 75.2411 64.7773C75.1004 64.5461 75.1808 64.2446 75.4221 64.1038C77.8949 62.6764 80.8202 61.9627 83.6851 62.1135C85.2432 62.1939 86.3691 62.5357 87.2235 63.1991C87.4447 63.37 87.4748 63.6716 87.314 63.8927C87.1431 64.1038 86.8315 64.144 86.6204 63.9731C85.9368 63.4404 84.9919 63.169 83.6449 63.0986C80.981 62.9579 78.2468 63.6213 75.9347 64.9583C75.8543 65.0085 75.7739 65.0286 75.6834 65.0286L75.6734 65.0186Z" fill="#54433B"/>
<path d="M117.098 82.2685C117.098 83.9272 114.706 85.2842 111.75 85.2842C108.795 85.2842 106.402 83.9372 106.402 82.2685C106.402 80.5998 108.795 79.2528 111.75 79.2528C114.706 79.2528 117.098 80.5998 117.098 82.2685Z" fill="#E38F8F"/>
<path d="M177.395 168.357C175.978 163.894 174.39 159.471 172.621 155.108C171.314 151.881 169.856 148.594 167.162 146.121C164.428 143.608 160.678 142.18 157.039 140.803C152.456 139.074 147.872 137.355 143.288 135.626C142.685 135.405 142.092 135.174 141.488 134.953C131.949 131.364 122.409 127.775 112.869 124.187H80.4707C70.3077 128.007 60.1347 131.837 49.9718 135.657C49.3787 135.878 48.7957 136.099 48.2026 136.32C44.2319 137.808 40.2612 139.306 36.3006 140.793C32.6617 142.16 28.9121 143.598 26.1779 146.111C23.4839 148.584 22.0162 151.871 20.7195 155.098C18.9503 159.46 17.362 163.884 15.9446 168.347C15.5324 169.644 15.1304 171.001 15.3917 172.338C15.643 173.594 16.4573 174.71 17.4122 175.665C19.664 177.947 22.6897 179.525 25.7557 180.892C29.5253 182.571 33.4156 183.988 37.3963 185.205C46.2022 187.899 55.4302 189.597 64.6483 190.965C73.8663 192.332 83.2049 193.377 92.5536 193.809H100.807C110.155 193.377 119.494 192.332 128.712 190.965C137.297 189.698 145.901 188.12 154.164 185.737C158.768 184.41 163.272 182.822 167.615 180.892C170.681 179.525 173.706 177.947 175.958 175.665C176.913 174.7 177.727 173.584 177.979 172.338C178.24 171.011 177.838 169.654 177.426 168.347L177.395 168.357Z" fill="#E3B7A1"/>
<path d="M92.0508 44.0293C92.1614 43.3257 92.2719 42.6119 92.3825 41.8982C93.046 37.5053 93.5084 33.0823 93.7697 28.6392C94.2724 34.0473 94.775 39.4655 95.2675 44.8737" fill="#EDBFA9"/>
<path d="M126.578 44.361C126.879 45.0345 127.251 45.6779 127.694 46.271C126.477 47.246 125.271 48.2211 124.055 49.1962C122.798 50.2115 121.511 51.2368 120.003 51.85C119.913 51.8902 119.823 51.9204 119.732 51.8902C119.642 51.8601 119.581 51.7897 119.521 51.7093C118.978 50.9855 118.254 50.3019 119.189 49.6787C120.044 49.1057 120.958 48.6132 121.803 48.0301C122.255 47.7185 126.708 44.6425 126.578 44.351V44.361Z" fill="white"/>
<path d="M127.613 48.2614C127.914 48.9349 128.286 49.5783 128.729 50.1713C127.512 51.1464 126.306 52.1215 125.09 53.0966C123.833 54.1119 122.546 55.1372 121.039 55.7504C120.948 55.7906 120.858 55.8208 120.767 55.7906C120.677 55.7605 120.616 55.6901 120.556 55.6097C120.013 54.8859 119.29 54.2023 120.224 53.5791C121.079 53.0061 121.994 52.5135 122.838 51.9305C123.29 51.6189 127.744 48.5429 127.613 48.2513V48.2614Z" fill="white"/>
<path d="M128.699 52.2321C129 52.9056 129.372 53.549 129.815 54.142C128.598 55.1171 127.392 56.0922 126.176 57.0673C124.919 58.0826 123.632 59.1079 122.125 59.7211C122.034 59.7613 121.944 59.7915 121.853 59.7613C121.763 59.7312 121.702 59.6608 121.642 59.5804C121.099 58.8566 120.375 58.173 121.31 57.5498C122.165 56.9768 123.08 56.4842 123.924 55.9012C124.376 55.5896 128.829 52.5136 128.699 52.222V52.2321Z" fill="white"/>
<path d="M63.8541 45.4769C63.5525 46.1504 63.1806 46.7937 62.7383 47.3868C63.9546 48.3619 65.1609 49.337 66.3772 50.312C67.6338 51.3273 68.9205 52.3527 70.4283 52.9659C70.5188 53.0061 70.6093 53.0362 70.6997 53.0061C70.7902 52.9759 70.8505 52.9055 70.9108 52.8251C71.4537 52.1014 72.1774 51.4178 71.2426 50.7945C70.3881 50.2216 69.4734 49.729 68.629 49.146C68.1766 48.8343 63.7234 45.7583 63.8541 45.4668V45.4769Z" fill="white"/>
<path d="M62.8189 49.3771C62.5174 50.0506 62.1454 50.694 61.7031 51.2871C62.9195 52.2621 64.1257 53.2372 65.3421 54.2123C66.5986 55.2276 67.8853 56.2529 69.3932 56.8661C69.4836 56.9063 69.5741 56.9365 69.6646 56.9063C69.7551 56.8762 69.8154 56.8058 69.8757 56.7254C70.4185 56.0016 71.1423 55.3181 70.2074 54.6948C69.353 54.1218 68.4382 53.6293 67.5938 53.0462C67.1414 52.7346 62.6883 49.6586 62.8189 49.3671V49.3771Z" fill="white"/>
<path d="M61.733 53.3478C61.4314 54.0213 61.0595 54.6647 60.6172 55.2578C61.8335 56.2328 63.0398 57.2079 64.2561 58.183C65.5127 59.1983 66.7994 60.2236 68.3072 60.8368C68.3977 60.877 68.4882 60.9072 68.5787 60.877C68.6691 60.8469 68.7294 60.7765 68.7898 60.6961C69.3326 59.9723 70.0564 59.2888 69.1215 58.6655C68.267 58.0925 67.3523 57.6 66.5079 57.0169C66.0555 56.7053 61.6023 53.6293 61.733 53.3378V53.3478Z" fill="white"/>
<path d="M64.6049 82.6102C62.2426 84.8016 59.8401 87.0534 58.3021 89.868C55.8895 94.2609 55.9096 99.8701 58.3322 104.253C59.1163 105.67 60.1819 106.997 61.6495 107.691C62.5743 108.133 63.6097 108.294 64.625 108.294C67.0878 108.294 69.5507 107.249 71.1892 105.429C72.8277 103.61 73.6018 101.026 73.1192 98.6337C72.0336 101.328 69.8422 103.559 67.1582 104.725C66.2535 105.117 65.2684 105.389 64.2832 105.308C62.6547 105.178 61.2374 104.052 60.4131 102.665C59.5988 101.267 59.3174 99.6289 59.247 98.0205C59.1264 95.1455 59.6591 92.2102 61.0363 89.677C62.4135 87.1438 64.6552 85.0328 67.3894 84.0477" fill="#F5CB56"/>
<path d="M126.457 83.0928C128.819 85.2842 131.222 87.5359 132.76 90.3506C135.172 94.7434 135.152 100.353 132.73 104.735C131.946 106.153 130.88 107.48 129.412 108.173C128.488 108.616 127.452 108.777 126.437 108.777C123.974 108.777 121.511 107.731 119.873 105.912C118.234 104.092 117.46 101.509 117.943 99.1162C119.028 101.81 121.22 104.042 123.904 105.208C124.808 105.6 125.794 105.871 126.779 105.791C128.407 105.66 129.825 104.534 130.649 103.147C131.463 101.75 131.745 100.111 131.815 98.503C131.936 95.6281 131.403 92.6928 130.026 90.1596C128.648 87.6264 126.407 85.5154 123.672 84.5303" fill="#F5CB56"/>
<path d="M76.9405 139.517C72.246 139.456 67.5516 139.496 62.8672 139.537C64.6565 140.612 66.868 140.683 68.9589 140.763C75.1813 140.994 81.3937 141.557 87.5658 142.432C88.1589 142.512 88.7822 142.613 89.2848 142.934C89.9583 143.357 92.6322 145.799 93.175 143.739C93.5671 142.241 90.1292 141.266 89.2144 140.974C85.2739 139.718 81.0519 139.567 76.9405 139.517Z" fill="#CFA28D"/>
<path d="M118.086 139.517C122.78 139.456 127.475 139.496 132.159 139.537C130.37 140.612 128.158 140.683 126.067 140.763C119.845 140.994 113.633 141.557 107.461 142.432C106.867 142.512 106.244 142.613 105.742 142.934C105.068 143.357 102.394 145.799 101.851 143.739C101.459 142.241 104.897 141.266 105.812 140.974C109.752 139.718 113.974 139.567 118.086 139.517Z" fill="#CFA28D"/>
<path d="M47.1871 163.089C47.4686 163.311 47.921 163.099 48.0818 162.778C48.2326 162.456 48.1723 162.074 48.112 161.722C47.3982 157.772 46.775 153.962 45.9708 150.021C45.1566 145.98 44.674 141.819 44.0407 137.788C42.6736 137.597 42.3218 138.481 42.3218 138.481C42.1308 139.004 43.5884 145.377 44.2518 147.79C45.629 152.806 46.6141 157.922 47.1871 163.089Z" fill="#0A0807"/>
<path d="M143.931 162.336C143.649 162.557 143.197 162.346 143.036 162.024C142.885 161.702 142.946 161.32 143.006 160.968C143.72 157.018 144.343 153.208 145.147 149.267C145.961 145.226 146.444 141.065 147.077 137.034C148.444 136.843 148.796 137.727 148.796 137.727C148.987 138.25 147.529 144.623 146.866 147.036C145.489 152.052 144.504 157.169 143.931 162.336Z" fill="#0A0807"/>
<path d="M177.394 168.357C175.976 163.894 174.388 159.471 172.619 155.108C171.785 153.037 170.87 150.946 169.623 149.056C167.633 150.554 165.331 151.71 162.979 152.484C157.41 154.334 151.439 154.485 145.588 155.048C131.997 156.344 118.738 159.923 105.71 163.944C104.122 164.436 102.514 164.939 100.845 165.07C98.6035 165.241 96.3819 164.728 94.1905 164.246C84.4799 162.114 74.6185 160.526 64.6767 160.124C57.1475 159.822 49.558 160.184 42.1092 159.048C35.0324 157.963 27.9052 155.329 22.9695 150.243C22.0749 151.801 21.3712 153.459 20.7077 155.108C18.9385 159.471 17.3503 163.894 15.9329 168.357C15.5207 169.654 15.1186 171.011 15.38 172.348C15.6313 173.604 16.4455 174.72 17.4005 175.675C19.6522 177.957 22.678 179.535 25.744 180.902C29.5136 182.581 33.4039 183.998 37.3846 185.215C46.1905 187.909 55.4185 189.608 64.6365 190.975C73.8546 192.342 83.1932 193.387 92.5419 193.82H100.795C110.144 193.387 119.482 192.342 128.7 190.975C137.285 189.708 145.89 188.13 154.153 185.747C158.757 184.421 163.26 182.832 167.603 180.902C170.669 179.535 173.695 177.957 175.946 175.675C176.901 174.71 177.715 173.594 177.967 172.348C178.228 171.021 177.826 169.664 177.414 168.357H177.394Z" fill="#FF4336"/>
</g>
</g>
<defs>
<clipPath id="clip0_1734_12191">
<rect width="192" height="192" fill="white"/>
</clipPath>
</defs>
</svg>
