<svg width="192" height="193" viewBox="0 0 192 193" fill="none" xmlns="http://www.w3.org/2000/svg">
<path d="M95.8794 191.759C148.832 191.759 191.759 148.832 191.759 95.8793C191.759 42.9266 148.832 -2.60226e-05 95.8794 -1.67641e-05C42.9267 -7.50554e-06 7.50554e-06 42.9267 1.67641e-05 95.8794C2.60226e-05 148.832 42.9267 191.759 95.8794 191.759Z" fill="#F0E3D0"/>
<mask id="mask0_1734_12385" style="mask-type:luminance" maskUnits="userSpaceOnUse" x="0" y="1" width="192" height="192">
<path d="M95.8794 192.759C148.832 192.759 191.759 149.832 191.759 96.8794C191.759 43.9267 148.832 1 95.8794 1C42.9267 1 0 43.9267 0 96.8794C0 149.832 42.9267 192.759 95.8794 192.759Z" fill="white"/>
</mask>
<g mask="url(#mask0_1734_12385)">
<path d="M63.1391 57.3333C62.2042 59.5951 62.1037 62.1082 62.0233 64.561C61.6916 75.6889 61.7318 86.837 62.1339 97.9549C62.2444 101.131 62.3952 104.308 62.3148 107.474C62.0735 117.698 59.5403 127.72 58.2637 137.863C58.2034 138.355 58.1431 138.878 58.2939 139.35C58.515 140.024 59.1181 140.496 59.7112 140.878C63.3904 143.221 67.924 143.723 72.2867 143.874C76.1368 144.015 80.0572 143.914 83.7364 142.788C90.8836 140.607 96.4828 134.636 99.408 127.76C102.343 120.884 102.856 113.184 102.213 105.745C101.308 95.2508 98.1514 84.9673 93.0348 75.7593C88.2298 67.1143 81.5952 59.1427 79.7456 49.4221" fill="#695542"/>
<path d="M130.472 54.579C133.739 58.1275 136.272 62.3395 137.881 66.8831C140.032 72.9749 140.535 79.6295 143.4 85.4197C145.681 90.0438 149.33 93.8234 152.939 97.5026C158.85 103.534 165.273 109.787 173.506 111.686C177.005 112.491 180.664 112.461 184.142 113.345C188.575 114.481 192.475 117.044 196.285 119.568C198.637 121.126 201.06 122.754 202.608 125.116C204.829 128.524 204.86 133.018 203.573 136.878C202.286 140.738 199.843 144.095 197.31 147.282C192.184 153.756 183.036 155.022 174.863 156.249C168.882 157.153 162.861 157.756 156.829 158.068C151.009 158.37 145.088 158.38 139.479 156.822C126.894 153.313 117.595 142.266 112.519 130.223C107.452 118.18 88.9559 61.0729 86.7344 48.1958" fill="#695542"/>
<path d="M38.0781 62.4098C38.9125 64.5811 40.9833 66.099 43.1847 66.8328C45.3862 67.5666 50.7743 67.5868 53.1064 67.6471C56.5845 67.7375 65.9131 66.9836 69.3309 66.2699C73.7439 65.3451 77.7749 63.1235 81.6953 60.8919C84.1983 59.4745 86.7516 57.9968 88.5611 55.7551" fill="#565656"/>
<path d="M118.448 121.769C133.738 126.252 149.017 130.746 164.307 135.229C168.087 136.335 171.977 137.501 174.942 139.853C177.858 142.165 179.587 145.392 181.165 148.579C183.296 152.891 185.246 157.264 187.025 161.707C187.548 163.004 188.061 164.351 187.9 165.728C187.749 167.025 187.015 168.231 186.131 169.287C184.04 171.79 181.115 173.629 178.129 175.268C166.358 181.721 153.048 185.521 139.719 188.587C130.531 190.698 121.203 192.497 111.814 193.674L103.49 194.317C94.031 194.608 84.5315 194.277 75.1326 193.613C61.4815 192.648 47.75 190.949 35.1242 186.406C31.9276 185.25 28.751 183.883 26.2982 181.741C25.2628 180.837 24.3481 179.761 23.9962 178.505C23.6243 177.168 23.9259 175.76 24.2375 174.393C25.3131 169.739 26.5596 165.105 27.9971 160.521C29.0526 157.133 30.2689 153.665 32.7921 150.941C35.3554 148.167 39.0145 146.407 42.5831 144.729C56.9881 137.933 71.3931 131.128 85.7981 124.332" fill="#FFF7ED"/>
<path d="M112.949 154.047C134.13 153.745 139.739 136.878 127.998 127.619C116.267 118.361 117.925 94.5673 117.925 94.5673L89.5173 104.569C89.5173 104.569 91.96 118.14 80.0681 127.197C68.1661 136.244 89.3163 153.343 110.487 154.037" fill="#E3B7A1"/>
<path d="M68.3579 85.0578C68.6695 86.7969 70.1975 92.6674 71.7456 95.4017C74.9724 101.081 82.009 110.148 88.352 111.385C89.5583 111.616 90.7948 111.737 92.0212 111.606C94.7454 111.325 97.2082 109.897 99.5705 108.51C107.19 104.017 115.383 99.9051 119.494 92.004C120.087 90.8681 120.59 89.6819 121.354 88.6666C122.218 87.5106 123.385 86.636 124.43 85.6408C127.999 82.2331 130.12 77.3175 130.16 72.3416C130.19 68.7428 128.893 64.7923 125.777 63.0532C124.209 62.1786 122.349 61.9776 120.57 62.0982C118.007 62.2691 115.152 63.4352 114.418 65.9181C112.709 60.1079 110.95 54.1971 107.683 49.1106C104.406 44.0241 99.3393 39.782 93.4084 38.9979C88.151 38.3043 82.7127 38.1435 77.5056 39.2693C75.0126 39.8122 74.1983 39.6312 72.0572 41.0586C69.9261 42.4861 67.0008 46.0848 66.1665 48.4371C63.8846 54.9108 65.7041 59.5248 67.3627 65.707C69.4536 73.4775 66.9204 77.1366 68.3479 85.0578H68.3579Z" fill="#EDBFA9"/>
<path d="M124.36 64.6314C122.922 64.4404 120.369 65.9784 119.484 67.2551C121.103 67.235 122.731 67.2551 124.35 67.3254C125.244 67.3657 126.32 67.5466 126.742 68.4815C126.913 68.8534 126.933 69.2756 126.963 69.6777C127.004 70.4115 127.034 71.2157 126.632 71.7485C126.219 72.3014 125.506 72.3717 124.862 72.4019C123.847 72.4521 122.832 72.5024 121.817 72.5527C122.309 73.2463 123.083 73.6685 123.847 73.6383C124.078 73.6383 124.32 73.5881 124.511 73.7489C124.712 73.8997 124.772 74.2013 124.812 74.4727C125.194 77.3577 123.767 80.3231 121.505 81.3887C123.445 81.4591 125.234 80.1824 126.36 78.4132C127.476 76.644 127.999 74.4325 128.24 72.2109C128.401 70.7734 128.793 67.9487 127.597 66.9032C126.622 66.0488 125.516 64.7822 124.37 64.6314H124.36Z" fill="#C79F8E"/>
<path d="M78.1064 71.3766C78.3577 72.7839 77.6741 74.0706 76.5784 74.2616C75.4827 74.4526 74.3971 73.4775 74.1458 72.0702C73.8945 70.6628 74.578 69.3761 75.6737 69.1851C76.7694 68.9941 77.8551 69.9692 78.1064 71.3766Z" fill="#0A0807"/>
<path d="M100.825 68.3005C101.076 69.7078 100.393 70.9945 99.2972 71.1855C98.2015 71.3765 97.1158 70.4014 96.8645 68.9941C96.6132 67.5868 97.2968 66.3001 98.3925 66.1091C99.4882 65.9181 100.574 66.8932 100.825 68.3005Z" fill="#0A0807"/>
<path d="M98.6343 86.455C98.765 85.5302 98.8253 84.4948 98.5941 83.8716C98.7047 84.1832 92.1505 86.0429 91.668 86.1736C88.3105 87.0984 87.9989 86.8873 83.2542 87.4603C82.1283 87.591 77.7656 87.4603 77.7656 87.9026C77.7656 88.3951 78.0169 89.2496 78.4793 90.2146C80.9422 90.6368 86.9937 90.7775 98.6444 86.4651L98.6343 86.455Z" fill="white"/>
<path d="M82.6811 93.8737C82.2991 94.0144 81.9071 94.1652 81.5352 94.3361C81.897 94.6377 82.279 94.899 82.6711 95.1001C84.0784 95.8339 85.546 96.3466 87.0036 96.2862C89.3358 96.1757 91.8489 95.854 93.8493 94.517C94.6535 93.9843 95.4275 93.3811 96.0709 92.5769C96.3021 92.2854 96.5333 91.9637 96.7444 91.632C95.9904 91.5114 95.2064 91.5114 94.4424 91.5415C90.4315 91.7225 86.4508 92.5066 82.6711 93.8636L82.6811 93.8737Z" fill="#FF5C5C"/>
<path d="M98.3741 87.8524C98.4646 87.4905 98.5651 86.9979 98.6455 86.4551C86.9948 90.7675 80.9433 90.6268 78.4805 90.2046C79.1339 91.5918 80.2095 93.2002 81.5464 94.306C81.9184 94.1351 82.3104 93.9843 82.6924 93.8436C86.4721 92.4865 90.4528 91.6924 94.4637 91.5215C95.2277 91.4913 96.0118 91.4913 96.7657 91.6119C97.4794 90.5062 98.0524 89.2295 98.3841 87.8524H98.3741Z" fill="#0A0807"/>
<path d="M84.6627 81.4691C84.5219 81.4892 84.3711 81.4691 84.2606 81.3585L81.7776 79.3179C81.6771 79.2375 81.4861 79.0766 81.4157 78.8153C81.3253 78.4433 81.5263 78.1518 81.6268 78.0111C82.7326 76.4429 83.2252 74.3018 83.0141 71.9797C82.813 69.7179 81.9887 67.5566 81.2248 65.7472C81.1142 65.4959 81.2348 65.1943 81.4861 65.0838C81.7475 64.9732 82.039 65.0938 82.1496 65.3451C82.9538 67.2249 83.7982 69.4766 84.0193 71.8792C84.2505 74.4325 83.6976 76.8048 82.4511 78.574C82.4511 78.574 82.4511 78.5841 82.4411 78.5941L84.9039 80.5644C85.115 80.7453 85.1452 81.057 84.9743 81.2681C84.8939 81.3686 84.7833 81.4289 84.6727 81.449L84.6627 81.4691Z" fill="#BD9886"/>
<path d="M76.8609 82.6049C77.1524 84.2837 75.5139 85.9725 73.2018 86.3746C70.8898 86.7867 68.7688 85.7614 68.4672 84.0826C68.1757 82.4039 69.8142 80.7151 72.1262 80.313C74.4383 79.9009 76.5593 80.9262 76.8609 82.6049Z" fill="#E3A1A1"/>
<path d="M109.231 78.6041C109.161 80.303 106.688 81.5796 103.713 81.459C100.737 81.3384 98.3648 79.8607 98.4351 78.1618C98.5055 76.463 100.978 75.1863 103.954 75.307C106.939 75.4276 109.302 76.9053 109.231 78.6041Z" fill="#E3A1A1"/>
<path d="M110.467 65.2748C111.332 65.8679 112.397 67.5969 113.443 67.5566C114.659 67.5064 115.564 65.4758 116.599 64.8526C119.907 62.832 124.832 62.1585 127.788 64.6616C128.341 62.9929 127.677 62.2088 127.355 60.4798C126.742 57.2027 126.129 53.9257 125.516 50.6486C125.144 48.6783 124.772 46.688 124.028 44.8283C123.254 42.8882 122.108 41.1089 120.862 39.4302C117.042 34.2331 111.965 29.5185 105.652 28.2017C102.315 27.5081 98.857 27.8096 95.4794 28.3123C93.8006 28.5636 92.0314 28.9053 90.7548 30.0212C86.1106 34.0823 87.2364 37.1483 89.3977 41.1391C92.2526 46.4165 98.5855 54.2071 102.697 58.6C105.039 61.103 107.623 63.3749 110.457 65.2949L110.467 65.2748Z" fill="#695542"/>
<path d="M63.332 50.4676C63.7341 44.8484 65.1716 39.3095 67.5239 34.2833C68.0767 33.1072 68.6698 31.9612 69.3936 30.9057C73.3944 24.995 83.3865 22.6226 89.8904 20.582C92.4537 19.7778 95.0573 18.9635 97.7211 18.9836C99.7216 19.0037 101.692 19.4863 103.632 19.9989C110.468 21.8285 117.102 24.3415 121.696 30.1317C123.244 32.0819 124.45 34.3436 125.496 36.6557C128.411 43.0791 133.065 49.573 132.251 56.6699C128.23 57.0519 119.022 55.7552 115.051 54.951C112.257 54.378 109.392 54.4182 106.547 54.4484C98.6057 54.5489 90.6644 54.6494 82.7331 54.7499" fill="#898989"/>
<path d="M100.906 114.933C102.072 114.36 103.078 113.526 104.153 112.802C106.646 111.124 109.501 110.028 111.914 108.249C114.326 106.469 116.357 103.695 116.045 100.709C114.366 101.564 112.698 102.408 111.019 103.263C109.732 103.916 103.128 108.47 100.936 109.827C99.6497 110.621 90.1804 113.938 90.2307 114.29C90.4016 115.506 94.2013 115.768 94.9854 115.838C97.006 116.019 99.0667 115.858 100.916 114.943L100.906 114.933Z" fill="#BD9886"/>
<path d="M42.3003 62.832C46.3213 62.0881 59.3893 60.3189 63.36 61.2236C66.0842 61.8469 68.6475 63.2944 71.231 64.3198C72.7389 64.9129 74.2769 65.516 75.8953 65.6266C77.5137 65.7271 79.112 65.3351 80.6702 64.8928C91.959 61.7062 114.396 59.4645 125.745 56.489C124.086 55.3933 110.244 51.4829 108.334 50.8898C98.7543 47.9244 68.2354 46.5472 64.9382 48.7487C62.4553 50.4073 40.2697 59.4444 39.0132 60.5401C37.3646 61.9776 37.7466 63.596 40.0787 63.2241C40.8126 63.1034 41.5464 62.9728 42.3003 62.832Z" fill="#A0A0A0"/>
<path d="M79.7152 107.605C81.2532 116.622 78.4587 126.081 81.1125 134.877C82.6706 140.014 85.9678 144.517 89.2247 148.92C90.8733 151.142 92.5219 153.384 94.6128 155.263C96.4926 156.952 98.6739 158.319 100.845 159.676C104.816 162.159 108.807 164.652 113.019 166.753C106.083 166.814 98.7946 166.291 92.9441 162.843C89.9686 161.084 87.5259 158.651 85.1435 156.239C81.4945 152.529 77.8354 148.679 75.7043 144.065C70.9194 133.731 74.5081 121.477 70.5273 110.852" fill="#695542"/>
<path d="M72.1655 116.843C72.4571 125.528 74.6284 134.033 76.7896 142.457C77.5033 145.231 78.2271 148.046 79.6545 150.519C80.5995 152.147 81.8259 153.605 83.0925 154.992C87.9075 160.29 93.6374 165.034 100.463 167.196C97.4975 170.985 92.0994 171.659 87.2843 171.769C83.957 171.85 80.3281 171.689 77.7647 169.558C75.8749 167.98 74.9199 165.587 74.0252 163.295C74.3569 165.326 75.1008 167.286 76.2066 169.025C72.3766 168.925 69.8233 165.145 67.9838 161.787C65.6918 157.596 63.4501 153.384 61.2487 149.141C59.6302 146.005 57.9917 142.728 57.8811 139.2C57.7907 136.325 58.7155 133.52 59.6403 130.786C60.9471 126.906 62.2539 123.015 63.5607 119.135" fill="#695542"/>
<path d="M129.125 57.9667C131.186 59.8063 132.362 62.4601 133.026 65.1541C133.689 67.8381 133.89 70.6125 134.342 73.3468C135.086 77.7899 136.524 82.0923 138.012 86.3445C139.459 90.476 140.977 94.6276 143.359 98.3168C148.325 106.027 156.649 111.033 165.294 114.089C173.939 117.155 183.076 118.512 192.013 120.573C181.237 121.085 170.782 117.225 160.68 113.415C157.071 112.058 153.412 110.671 150.275 108.419C144.113 103.976 140.706 96.7286 137.901 89.6618C136.996 87.3698 136.122 85.0578 135.378 82.7055C133.146 75.5684 132.151 68.009 128.995 61.2236C128.452 60.0475 127.758 58.8211 126.582 58.2984" fill="#574737"/>
<path d="M110.465 65.2748C113.651 67.9688 115.28 71.3163 116.526 75.307C117.089 73.1759 117.461 70.9946 117.622 68.7931C117.723 67.3456 117.773 65.8076 118.557 64.5912C119.462 63.204 121.12 62.5506 122.668 61.9877" fill="#695542"/>
<path d="M135.455 100.981C137.104 106.942 139.547 112.963 144.191 117.044C146.412 118.995 149.036 120.422 151.67 121.759C162.194 127.117 173.242 131.429 184.601 134.636C175.504 134.827 167.492 129.137 158.968 125.971C153.911 124.091 148.413 123.016 144.06 119.839C142.743 118.884 141.557 117.748 140.552 116.471C138.36 113.717 137.013 110.41 135.797 107.103C133.907 101.966 132.279 96.7387 131.062 91.4009C130.761 90.0639 130.489 88.7269 130.238 87.39C130.097 86.6461 129.434 85.2187 130.55 85.3493C132.138 85.5403 132.842 90.6369 133.163 91.8633C133.957 94.889 134.621 97.9449 135.455 100.961V100.981Z" fill="#574737"/>
<path d="M122.38 92.2452C123.285 97.3518 125.647 102.066 128.04 106.67C130.091 110.601 132.222 114.572 135.358 117.698C139.479 121.809 144.998 124.151 150.376 126.393C147.431 126.474 144.566 125.448 141.832 124.352C139.359 123.357 136.896 122.282 134.654 120.844C128.995 117.205 124.904 111.194 123.607 104.579C123.466 103.856 123.355 103.112 123.144 102.408C122.742 101.031 121.988 99.7845 121.446 98.4576C120.893 97.1307 120.551 95.6329 121.013 94.2658" fill="#574737"/>
<path d="M65.2812 78.2423C66.3367 100.267 63.8136 122.553 67.5933 144.276C68.1562 147.513 68.9101 150.84 70.8704 153.474C72.4586 155.605 74.8209 157.284 75.5648 159.847C72.1671 150.83 69.5837 141.482 68.2869 131.932C67.1409 123.478 67.0103 114.923 66.8896 106.399C66.769 98.5581 66.6584 90.7172 66.5378 82.8764C66.4976 80.1221 65.5125 75.7794 66.6383 73.2664" fill="#574737"/>
<path d="M74.7719 134.646C75.2846 137.823 75.8073 141.039 77.1443 143.965C79.0944 148.207 82.6128 151.484 86.0507 154.64C81.2255 149.584 77.9987 143.04 76.9131 136.144C76.4909 133.43 76.3904 130.685 76.0787 127.961C75.7571 125.167 75.2142 122.402 74.6613 119.638C74.018 116.401 73.3746 113.164 72.7313 109.937C72.7313 107.072 71.5049 103.675 70.9219 100.87C71.6657 112.209 72.9625 123.428 74.7518 134.656L74.7719 134.646Z" fill="#574737"/>
</g>
</svg>
