<svg width="63" height="63" viewBox="0 0 63 63" fill="none" xmlns="http://www.w3.org/2000/svg">
<g clip-path="url(#clip0_2125_5174)">
<path d="M31.461 62.4221C48.5604 62.4221 62.4221 48.5604 62.4221 31.461C62.4221 14.3617 48.5604 0.5 31.461 0.5C14.3617 0.5 0.5 14.3617 0.5 31.461C0.5 48.5604 14.3617 62.4221 31.461 62.4221Z" fill="#EBDFCC"/>
<mask id="mask0_2125_5174" style="mask-type:luminance" maskUnits="userSpaceOnUse" x="0" y="0" width="63" height="63">
<path d="M31.461 62.4221C48.5604 62.4221 62.4221 48.5604 62.4221 31.461C62.4221 14.3617 48.5604 0.5 31.461 0.5C14.3617 0.5 0.5 14.3617 0.5 31.461C0.5 48.5604 14.3617 62.4221 31.461 62.4221Z" fill="white"/>
</mask>
<g mask="url(#mask0_2125_5174)">
<path d="M57.664 55.9981C56.7259 54.1024 55.7748 52.1937 54.4699 50.535C51.6263 46.9286 47.3448 44.8089 43.1281 43.0171C43.0405 42.9814 42.9528 42.9424 42.8652 42.9067C42.5503 46.5261 41.1188 52.132 39.4795 54.1641C37.5481 56.5564 35.9478 54.9918 35.9478 54.9918C24.1873 49.9247 21.5742 44.2603 20.9932 41.9102C16.2928 42.5951 11.6055 43.9876 7.50248 46.0099C6.90195 46.3053 6.30143 46.6397 5.83724 47.1234C4.64593 48.3698 4.92509 48.6685 4.96405 50.3954C5.02248 53.1124 5.16855 56.0143 6.7786 58.199C7.87902 59.6889 9.53452 60.6562 11.1933 61.471C16.744 64.1944 22.8596 65.6844 29.0239 66.0902C38.9407 66.7426 49.3087 64.4379 57.1025 58.2476C57.4952 57.936 57.9075 57.566 57.9627 57.0661C58.0049 56.6928 57.8328 56.3357 57.6673 55.9981H57.664Z" fill="#8693B3"/>
<path d="M35.9449 54.9919C35.9449 54.9919 37.5452 56.5565 39.4766 54.1641C41.1159 52.1354 42.5474 46.5261 42.8623 42.9068C40.8595 42.0628 38.8339 41.2642 36.7954 40.5144L27.9011 41.4233C25.6419 41.4038 23.3144 41.5726 20.9902 41.9102C21.5713 44.2604 24.1844 49.9248 35.9449 54.9919Z" fill="#2F3236"/>
<path d="M25.5179 45.2115C24.7972 44.2636 24.385 43.5268 24.3753 43.332C24.346 42.6666 26.826 40.3781 27.3065 38.5765C27.7869 36.7782 27.8226 34.8987 27.709 33.0485H36.5448C36.4344 34.8987 36.4701 36.7782 36.9473 38.5765C37.4277 40.3749 39.8785 42.6471 39.8785 43.332C39.8785 43.5235 39.9272 44.2247 39.8655 45.1336C38.6677 45.6562 37.2167 45.7146 35.8728 45.7211C32.4158 45.7374 28.9295 45.7114 25.5146 45.2115H25.5179Z" fill="#E3B7AA"/>
<path d="M35.8758 45.7211C37.2197 45.7146 38.6674 45.6562 39.8685 45.1335C39.7191 47.435 39.4789 52.5119 36.6127 52.5119C34.3956 52.5119 27.2672 47.5162 25.5176 45.2147C28.9292 45.7113 32.4155 45.7373 35.8758 45.7243V45.7211Z" fill="#F0F0F0"/>
<path d="M34.8603 40.985C34.4383 41.3843 33.9514 41.7901 33.3736 41.7998C33.0425 41.8063 32.7243 41.6797 32.4289 41.5271C31.2506 40.9201 30.3125 39.8554 29.8516 38.6057C30.5625 38.9855 31.2798 39.3685 32.0492 39.6055C32.8185 39.8392 33.656 39.9203 34.4285 39.6899C34.7239 39.6022 35.0031 39.4724 35.279 39.3393C35.7756 39.1056 36.3794 38.6933 36.9085 38.6024C36.954 38.9822 36.347 39.4561 36.1132 39.7093C35.7107 40.1475 35.2952 40.5728 34.8635 40.9785L34.8603 40.985Z" fill="#D49D90"/>
<path d="M22.1881 23.8101C22.1881 23.8101 23.3048 30.8151 25.7621 33.6944C28.2193 36.5737 33.0333 39.0731 34.4193 38.5343C35.9028 38.6122 39.7007 34.7266 41.1387 31.2209C42.5767 27.7151 41.4601 20.7101 41.4601 20.7101L37.6946 15.0003L32.7346 13.4584L26.4048 17.0388L24.5188 18.8436L22.1816 23.8133L22.1881 23.8101Z" fill="#F5CABD"/>
<path d="M40.8232 24.9138C41.1706 24.4333 42.1022 23.9367 42.693 23.9432C43.2838 23.9529 43.8648 24.2613 44.1992 24.7514C44.5497 25.2611 44.6244 25.9298 44.4881 26.5368C44.3517 27.1406 44.0239 27.6891 43.6278 28.1663C43.2643 28.6045 42.8358 28.9908 42.3651 29.3122C42.0048 29.5589 41.6088 29.7699 41.3231 30.101" fill="#F5CABD"/>
<path d="M23.7688 27.5106C23.2884 27.1633 22.6392 27.0691 22.0776 27.2606C21.5193 27.4554 21.0649 27.9326 20.8993 28.5006C20.7273 29.0947 20.8636 29.7536 21.1785 30.2892C21.4933 30.8216 21.977 31.2403 22.5029 31.5682C22.9865 31.8701 23.5124 32.1038 24.0577 32.2596C24.4765 32.3797 24.9179 32.4576 25.2945 32.6816" fill="#F5CABD"/>
<path d="M35.6327 25.7155C35.7009 26.1472 36.0287 26.4524 36.3631 26.4004C36.6974 26.3453 36.9149 25.9525 36.8435 25.5208C36.7753 25.089 36.4475 24.7839 36.1131 24.8358C35.7788 24.8878 35.5613 25.2838 35.6327 25.7155Z" fill="#0A0807"/>
<path d="M28.4599 26.8712C28.528 27.3029 28.8559 27.608 29.1902 27.5561C29.5246 27.5041 29.7421 27.1081 29.6707 26.6764C29.6025 26.2447 29.2746 25.9395 28.9403 25.9915C28.6059 26.0467 28.3885 26.4394 28.4599 26.8712Z" fill="#0A0807"/>
<path d="M33.7668 29.4875C33.796 29.4843 33.8252 29.468 33.8479 29.4453L34.4257 28.887C34.4972 28.8188 34.5945 28.7247 34.6302 28.5916C34.6822 28.4033 34.5945 28.1923 34.4063 28.0527C34.3056 27.9781 34.1953 27.9359 34.0914 27.8937C34.0557 27.8807 34.02 27.8677 33.9875 27.8515C33.4714 27.6243 33.1046 27.0692 33.1013 26.5044C33.1013 26.42 33.0299 26.3518 32.9455 26.3518C32.8611 26.3518 32.793 26.4232 32.793 26.5076C32.7995 27.1925 33.2409 27.8612 33.8642 28.1371C33.9031 28.1534 33.9388 28.1696 33.9778 28.1826C34.0687 28.2183 34.1563 28.254 34.2245 28.3027C34.2927 28.3546 34.3511 28.4423 34.3349 28.5137C34.3219 28.5656 34.2667 28.6176 34.2147 28.6663L33.6369 29.2246C33.5753 29.283 33.5753 29.3804 33.6337 29.4421C33.6694 29.481 33.7213 29.494 33.77 29.4875H33.7668Z" fill="#A38375"/>
<path d="M24.2136 31.5228C24.2882 31.5098 24.3467 31.4449 24.3434 31.367C24.3434 31.2826 24.2688 31.2145 24.1844 31.2177C23.6163 31.2372 23.0255 30.9645 22.6068 30.4906C22.201 30.0329 21.9381 29.2116 21.8569 28.6046C21.8472 28.5202 21.7693 28.4618 21.6849 28.4715C21.6037 28.4877 21.5421 28.5592 21.5518 28.6436C21.6297 29.2506 21.8959 30.153 22.3763 30.6951C22.8567 31.2372 23.5384 31.5488 24.1941 31.5261C24.2006 31.5261 24.2071 31.5261 24.2136 31.5261V31.5228Z" fill="#A38375"/>
<path d="M44.2708 26.2544C44.3454 26.2414 44.4006 26.1797 44.4006 26.1018C44.4006 25.8746 44.2708 25.6895 44.1344 25.524C43.6345 24.9235 43.1119 24.6216 42.5796 24.6216C42.1349 24.6216 41.7096 24.8585 41.4629 25.2286C41.4175 25.3 41.437 25.3941 41.5084 25.4428C41.5798 25.4883 41.6739 25.4688 41.7226 25.3974C41.9076 25.115 42.2452 24.93 42.5828 24.9267C43.0178 24.9267 43.4625 25.1896 43.9007 25.7155C44.0014 25.8356 44.0955 25.9655 44.0955 26.0953C44.0955 26.1797 44.1669 26.2479 44.2513 26.2479C44.2578 26.2479 44.2675 26.2479 44.274 26.2479L44.2708 26.2544Z" fill="#A38375"/>
<path d="M41.9276 28.6694C41.9276 28.6694 41.9406 28.6694 41.947 28.6661C42.58 28.4811 43.1286 27.9715 43.4175 27.306C43.7064 26.6406 43.674 25.6992 43.5603 25.0987C43.5441 25.0143 43.4662 24.9656 43.3818 24.9754C43.2974 24.9916 43.2422 25.0727 43.2585 25.1571C43.3721 25.7609 43.3786 26.6211 43.1351 27.1859C42.8819 27.7702 42.408 28.2117 41.8626 28.374C41.7815 28.3967 41.736 28.4844 41.7588 28.5655C41.7815 28.6402 41.8562 28.6856 41.9308 28.6759L41.9276 28.6694Z" fill="#A38375"/>
<path d="M26.6348 24.8618C26.6705 24.8553 26.7062 24.8358 26.7289 24.8066C27.0633 24.3943 27.6411 24.2645 28.2513 24.1574C28.5143 24.1119 28.8129 24.0762 28.9914 24.2255C29.0564 24.2807 29.1538 24.271 29.2089 24.2061C29.2641 24.1411 29.2544 24.0438 29.1895 23.9886C28.9103 23.7549 28.5338 23.7971 28.2027 23.8555C27.5307 23.9723 26.8945 24.1152 26.4952 24.6118C26.4433 24.6767 26.453 24.7741 26.5179 24.8293C26.5536 24.8585 26.5958 24.8683 26.638 24.8618H26.6348Z" fill="#52423A"/>
<path d="M38.0843 23.0181C38.0486 23.0246 38.0096 23.0181 37.9771 22.9954C37.5324 22.7065 36.9417 22.7649 36.3281 22.859C36.062 22.898 35.7698 22.9564 35.6465 23.1544C35.601 23.2258 35.5069 23.2486 35.4355 23.2031C35.3641 23.1577 35.3413 23.0635 35.3868 22.9921C35.5783 22.6837 35.9516 22.6026 36.2827 22.5539C36.9579 22.4533 37.6071 22.3916 38.1427 22.7357C38.2141 22.7811 38.2336 22.8785 38.1881 22.9499C38.1622 22.9889 38.1265 23.0116 38.0843 23.0181Z" fill="#52423A"/>
<path d="M25.716 31.1235C25.8556 31.9902 26.6639 32.5777 27.5273 32.4414C28.3908 32.3018 28.9751 31.487 28.8387 30.6236C28.6992 29.7569 27.8909 29.1693 27.0274 29.3057C26.164 29.4452 25.5797 30.26 25.716 31.1235Z" fill="#E3ADBE"/>
<path d="M37.3508 29.2505C37.4904 30.1172 38.2986 30.7048 39.1621 30.5684C40.0256 30.4289 40.6098 29.6141 40.4735 28.7506C40.3339 27.8839 39.5257 27.2964 38.6622 27.4327C37.7987 27.5723 37.2145 28.3871 37.3508 29.2505Z" fill="#E3ADBE"/>
<path d="M29.138 21.2327C29.1867 21.3431 29.2418 21.4599 29.3425 21.5216C29.4334 21.5768 29.547 21.5833 29.6508 21.5833C30.4234 21.5833 31.196 21.4177 31.9036 21.1061L31.6407 18.2171C32.4619 18.7073 32.4977 19.8564 32.8352 20.7555C32.8742 20.8562 32.9229 20.9633 33.0203 21.0152C33.1209 21.0672 33.241 21.0444 33.3481 21.0152C34.0136 20.8627 34.679 20.7068 35.3445 20.5543C35.5652 19.1228 35.2893 17.6198 34.5719 16.3668C35.4711 17.4348 36.0911 18.7397 36.3572 20.1161C36.3735 20.194 36.3864 20.2751 36.4416 20.3303C36.4871 20.3757 36.552 20.3985 36.6169 20.4147C37.0422 20.5381 37.4804 20.616 37.9218 20.6484C38.016 20.6549 38.1231 20.6582 38.1978 20.5997C38.2789 20.5381 38.3049 20.4277 38.3211 20.3238C38.5126 19.0806 38.2627 17.7724 37.6232 16.6915C37.6459 16.9998 37.8569 17.2563 38.0484 17.4997C39.2917 19.0546 40.2298 20.8237 41.1614 22.5831C41.4633 23.1511 41.7619 23.7192 42.0638 24.2873C42.5864 23.4693 42.6222 22.4403 42.6157 21.4697C42.6059 20.1453 42.5507 18.8111 42.2034 17.5354C42.0346 16.9187 41.8009 16.3214 41.5023 15.7598C40.1162 13.1338 37.3927 11.3419 34.481 10.8193C33.2702 10.6018 31.9978 10.5921 30.8389 11.0043C29.1347 11.6081 27.7389 13.2863 28.0375 15.182C28.3524 17.2011 28.3102 19.3305 29.138 21.236V21.2327Z" fill="#242629"/>
<path d="M28.2905 14.6009C28.1217 16.039 27.9497 17.477 27.7809 18.915C27.6965 19.6356 27.6218 20.4212 27.9983 21.0412C27.4238 21.3073 26.8492 21.5735 26.2747 21.8429C26.1935 21.8819 26.1026 21.9208 26.015 21.8981C25.8722 21.8624 25.8137 21.6969 25.7748 21.5573C25.5898 20.8464 25.4047 20.1355 25.2165 19.4246C25.0769 20.1712 24.934 20.9178 24.7945 21.6676C24.4309 23.5958 24.0641 25.5402 23.337 27.3613C23.3013 27.4522 23.2461 27.556 23.152 27.569C23.074 27.5787 23.0026 27.5203 22.9377 27.4749C22.5514 27.1827 21.9996 27.1243 21.5614 27.3353C20.0747 24.891 19.2339 22.0539 19.1463 19.1909C19.1301 18.7007 19.1398 18.2106 19.2177 17.7269C19.3151 17.1167 19.5261 16.5324 19.7566 15.9611C20.052 15.2307 20.396 14.5003 20.9576 13.9485C21.5419 13.3772 22.3112 13.0428 23.0643 12.7247C23.5025 12.5364 23.944 12.3514 24.4049 12.2216C26.4208 11.6535 28.7287 12.319 30.1375 13.8771" fill="#242629"/>
<path d="M38.6454 13.679C38.0578 11.0984 35.7109 9.16376 33.1498 8.54701C30.5886 7.93025 27.8684 8.45936 25.4241 9.45266C23.3661 10.2869 21.3795 11.5107 20.159 13.3707C18.2146 16.3311 18.6106 20.3367 20.1103 23.5471C20.344 24.0503 20.7563 24.6216 21.3016 24.5177C21.7723 24.43 21.9865 23.8879 22.1164 23.4238C22.8792 20.7003 23.642 17.7172 25.8818 16.0032C27.151 15.0327 28.7546 14.6009 30.3419 14.4743C31.9292 14.3477 33.5263 14.5003 35.1169 14.5847C35.7401 14.6172 36.3991 14.6334 36.9444 14.325C37.4898 14.0166 37.8274 13.2636 37.4833 12.7409" fill="#242629"/>
<path d="M25.0479 10.9426C25.8497 10.2902 25.8043 8.982 25.207 8.13803C24.6097 7.29405 23.6229 6.81363 22.6556 6.43708C21.4286 5.95666 20.1301 5.57363 18.8155 5.64179C17.5008 5.70996 16.1602 6.2975 15.4623 7.40441C15.1701 7.86536 15.0013 8.39447 14.8553 8.92033C14.7189 9.41373 14.5988 9.91687 14.5501 10.4265C14.3489 12.5657 15.5564 14.7762 17.4781 15.7793C19.3998 16.7823 21.9155 16.5161 23.5742 15.1366" fill="#242629"/>
<path d="M16.1401 7.78748C15.2961 8.0147 14.6372 8.72884 14.3093 9.5436C13.9815 10.3584 13.9425 11.264 14.0107 12.1405C14.0594 12.7507 14.16 13.3707 14.4489 13.9096C15.1078 15.1301 16.5556 15.6527 17.893 16.0065C18.3702 16.1331 18.8506 16.25 19.3407 16.2727C20.4444 16.3214 21.561 15.854 22.3044 15.0295C23.0445 14.205 23.3983 13.0429 23.236 11.9424" fill="#242629"/>
<path d="M32.8447 33.7722C33.3284 33.9767 33.8575 34.1682 34.2698 34.35C34.3996 34.4084 34.5392 34.4669 34.682 34.4604C34.9969 34.4474 35.2144 34.1552 35.3832 33.8891C35.5747 33.5904 35.7662 33.2918 35.9447 32.9834C34.893 33.1587 33.8543 33.4249 32.8447 33.7754V33.7722Z" fill="#FF5E5E"/>
<path d="M30.8711 32.4575C31.1243 32.8275 31.8319 33.2528 32.1371 33.4281C32.3448 33.5482 32.5883 33.6618 32.8447 33.7689C33.8542 33.4183 34.8897 33.1554 35.9447 32.9768C36.2271 32.4899 36.4673 31.9836 36.6134 31.4447C34.4126 32.3082 31.7053 32.4348 30.8711 32.4542V32.4575Z" fill="black"/>
<path d="M36.6485 31.3311C36.6907 31.1623 36.681 30.9221 36.509 30.8832C36.4311 30.8669 36.3564 30.9027 36.285 30.9384C35.5741 31.2922 34.8113 31.5421 34.029 31.685C33.3376 31.8116 32.6332 31.8505 31.932 31.8051C31.6496 31.7856 30.6141 31.7337 30.7894 32.3017C30.8056 32.3504 30.8316 32.4023 30.8673 32.4543C31.7015 32.4348 34.4088 32.3082 36.6096 31.4448C36.6193 31.4058 36.6356 31.3668 36.6453 31.3279L36.6485 31.3311Z" fill="white"/>
<path d="M23.1322 27.2671C22.9764 28.3059 22.457 29.2505 21.9279 30.1561C21.3988 31.0618 20.8405 31.9772 20.6003 32.9965C20.3601 34.019 20.4867 35.1908 21.1943 35.9634C21.6293 36.4341 22.2298 36.71 22.8141 36.9729C22.3889 37.106 21.9312 36.908 21.5644 36.6515C20.4769 35.8855 19.844 34.5091 19.9738 33.1782C20.1491 31.3572 21.5676 29.9322 22.3045 28.2572C22.9505 26.79 23.0576 25.1442 23.0576 23.5406" fill="#242629"/>
<path d="M41.3779 22.8816C42.0369 24.1573 42.6991 25.4395 43.1795 26.7932C44.1403 29.4971 44.3481 32.4673 43.7735 35.2816C44.2832 34.3662 44.6013 33.3405 44.6954 32.2953C44.9097 29.9289 44.0105 27.6177 43.1243 25.4136C42.6374 24.1995 42.1505 22.9855 41.6636 21.7715" fill="#242629"/>
<path d="M20.8181 12.5592C20.8375 11.8386 20.8538 11.1179 20.8732 10.3973C20.8927 9.69617 20.9219 8.95282 21.3115 8.37502C21.701 7.79397 22.5937 7.49858 23.113 7.96601C23.4247 8.24517 23.6064 8.76779 24.0252 8.76779C24.5251 8.76779 24.6517 8.05366 25.0542 7.75502C25.3918 7.50182 25.8982 7.6057 26.2228 7.87188C26.5506 8.1413 26.7389 8.53732 26.9207 8.92036C24.366 9.81303 21.6555 11.0076 20.3896 13.4064C20.1948 13.7797 20.0358 14.1725 19.8085 14.5263C19.6008 14.8509 19.3411 15.3378 19.1398 15.6689C18.7406 16.3279 19.1398 16.409 18.8477 17.6945C18.2439 17.8276 17.572 17.5322 17.2539 16.9998C16.939 16.4675 17.0007 15.7339 17.4032 15.2632C17.5201 15.1268 17.6629 15.01 17.7635 14.8607C18.0362 14.4614 17.9583 13.9323 17.9355 13.4519C17.9128 12.9682 18.0102 12.3937 18.4484 12.1892C18.799 12.0268 19.2113 12.1794 19.5943 12.1307C20.0974 12.0658 20.0682 11.7347 20.0877 11.2251" fill="#8E82BD"/>
<path d="M36.2363 53.4305C36.2363 53.4305 36.8239 64.6522 36.9083 68.3333L39.3818 67.5964C39.3818 67.5964 39.6317 59.7766 38.9078 53.4305H36.2363Z" fill="#2F3236"/>
<path d="M38.5833 58.0723C38.5833 58.4878 38.2457 58.8254 37.8302 58.8254C37.4147 58.8254 37.0771 58.4878 37.0771 58.0723C37.0771 57.6568 37.4147 57.3192 37.8302 57.3192C38.2457 57.3192 38.5833 57.6568 38.5833 58.0723Z" fill="#F0F0F0"/>
<mask id="mask1_2125_5174" style="mask-type:luminance" maskUnits="userSpaceOnUse" x="4" y="41" width="54" height="26">
<path d="M57.665 55.9981C56.7269 54.1024 55.7758 52.1937 54.4709 50.535C51.6273 46.9286 47.3458 44.8089 43.1291 43.0171C43.0415 42.9814 42.9538 42.9424 42.8662 42.9067C42.5513 46.5261 41.1198 52.132 39.4805 54.1641C37.5491 56.5564 35.9488 54.9918 35.9488 54.9918C24.1883 49.9247 21.5752 44.2603 20.9941 41.9102C16.2938 42.5951 11.6065 43.9876 7.50345 46.0099C6.90293 46.3053 6.30241 46.6397 5.83822 47.1234C4.64691 48.3698 4.92607 48.6685 4.96502 50.3954C5.02345 53.1124 5.16953 56.0143 6.77958 58.199C7.88 59.6889 9.53549 60.6562 11.1942 61.471C16.745 64.1944 22.8606 65.6844 29.0249 66.0902C38.9417 66.7426 49.3096 64.4379 57.1035 58.2476C57.4962 57.936 57.9085 57.566 57.9637 57.0661C58.0059 56.6928 57.8338 56.3357 57.6683 55.9981H57.665Z" fill="white"/>
</mask>
<g mask="url(#mask1_2125_5174)">
<path d="M35.2605 71.0826L35.2118 70.5534H35.2377C35.056 66.3952 34.6177 62.211 33.9361 58.108C33.8841 57.7931 33.8322 57.5367 33.6764 57.3419C33.5368 57.1666 33.3258 57.0595 33.0823 56.9427C32.2254 56.5401 31.323 56.1604 30.4498 55.7968C27.5867 54.6022 24.6263 53.3655 22.6754 50.9374C22.1268 50.2525 21.6789 49.4962 21.2309 48.7204C20.4486 47.357 19.6793 45.9612 18.9457 44.5621C18.4166 43.5559 17.9167 42.4782 18.105 41.381L18.4263 41.4362C18.2543 42.4327 18.712 43.413 19.2346 44.4096C19.965 45.8021 20.731 47.1979 21.5133 48.5548C21.9548 49.3209 22.393 50.0642 22.9286 50.7329C24.8276 53.0993 27.749 54.3166 30.5731 55.4982C31.4496 55.865 32.3585 56.2447 33.2187 56.6505C33.4881 56.7771 33.7445 56.9102 33.9296 57.1407C34.1471 57.4166 34.2087 57.7704 34.2542 58.0561C34.9651 62.3441 35.413 66.7198 35.5818 71.0631L35.2572 71.0858L35.2605 71.0826Z" fill="#77829E"/>
<path d="M32.1442 70.1347C32.0046 66.9016 31.5372 63.6718 30.7549 60.5328C30.6478 60.1109 30.5439 59.7376 30.3069 59.4487C30.1317 59.2312 29.8785 59.0656 29.6545 58.9293C28.4989 58.2216 27.2167 57.6893 25.9734 57.1764C24.5581 56.5921 23.0974 55.9883 21.8055 55.1119C19.9357 53.8459 18.5042 52.0866 17.235 50.3726C15.3685 47.8504 13.4825 44.8251 13.6578 41.4784L13.9824 41.4946C13.8136 44.7375 15.6639 47.7011 17.4947 50.1779C18.7477 51.8691 20.1565 53.6025 21.9873 54.8425C23.2532 55.6994 24.6977 56.2967 26.0968 56.8745C27.3498 57.3939 28.645 57.9295 29.8233 58.6501C30.07 58.7994 30.3491 58.9845 30.5569 59.2409C30.8328 59.5817 30.9562 60.007 31.0665 60.4517C31.8553 63.6134 32.326 66.8659 32.4656 70.1185L32.141 70.1315L32.1442 70.1347Z" fill="#77829E"/>
<path d="M25.3346 69.5666L24.1368 63.6068C23.9874 62.8667 23.8219 62.0324 23.3707 61.3767C22.7799 60.5165 21.7769 60.0458 20.803 59.5881C20.6083 59.4973 20.4135 59.4064 20.222 59.3122C17.2453 57.845 14.6939 55.339 12.8404 52.0702C11.1849 49.1488 10.2144 45.828 10.0391 42.4748L10.3637 42.4586C10.5357 45.7631 11.4901 49.0319 13.1228 51.9112C14.9439 55.1248 17.4498 57.5853 20.3681 59.0233C20.5563 59.1175 20.7511 59.2084 20.9426 59.2992C21.9554 59.7732 23.0006 60.2666 23.6401 61.1982C24.127 61.9058 24.3023 62.779 24.4549 63.5484L25.5163 68.8395H25.6332L25.6559 69.5341L25.3346 69.5698V69.5666Z" fill="#77829E"/>
<path d="M16.4044 67.5638L16.1577 63.5549C16.1025 62.685 16.044 61.6949 15.5864 60.8964C15.2845 60.3705 14.817 59.9388 14.3626 59.5201C14.2652 59.4292 14.1678 59.3415 14.0737 59.2506C12.1358 57.4199 10.5452 54.9334 9.06824 51.4276C7.90614 48.6684 6.99724 45.7859 6.36426 42.858L6.68237 42.7898C7.31211 45.6983 8.21452 48.5613 9.37012 51.301C10.8276 54.7646 12.3955 57.2153 14.3009 59.0137C14.395 59.1013 14.4924 59.1922 14.5866 59.2798C15.0572 59.7148 15.5442 60.1628 15.872 60.7308C16.3687 61.5975 16.4303 62.6233 16.4855 63.529L16.6316 65.9148L16.8653 65.8889C16.9075 66.2686 16.8393 66.6484 16.677 66.9925L16.4076 67.5573L16.4044 67.5638Z" fill="#77829E"/>
<path d="M43.431 70.6152L43.5478 69.505C43.7783 67.3301 43.3531 65.1196 42.9441 62.9869C42.6422 61.4223 42.3338 59.8057 42.2721 58.1924C42.2526 57.6731 42.2494 56.9881 42.4052 56.313C42.6292 55.3359 43.1518 54.4692 43.6582 53.6317C43.8562 53.3071 44.0575 52.9695 44.2392 52.6319C45.8006 49.7299 46.0376 46.3832 46.1674 42.6243L46.492 42.634C46.3589 46.4352 46.122 49.8208 44.5249 52.7845C44.3399 53.1286 44.1354 53.4694 43.9341 53.7973C43.4407 54.6153 42.9311 55.4592 42.7201 56.3844C42.574 57.0238 42.5772 57.6796 42.5967 58.1795C42.6551 59.7668 42.9635 61.3736 43.2622 62.9252C43.5835 64.5937 43.9114 66.3076 43.9373 68.0248L44.1354 68.0151C44.1613 68.5474 44.0672 69.0895 43.8594 69.5829L43.431 70.6152Z" fill="#77829E"/>
<path d="M47.5014 67.1028L46.6023 61.3735C46.5211 60.8606 46.44 60.3315 46.4562 59.7927C46.4951 58.5591 47.0567 57.4328 47.5988 56.3453L47.8001 55.9396C49.7834 51.8917 50.8449 47.3732 50.8741 42.8644H51.1987C51.1695 47.4219 50.095 51.9923 48.089 56.0824L47.8877 56.4881C47.3618 57.5464 46.8165 58.6403 46.7775 59.8024C46.7613 60.3088 46.8425 60.8217 46.9204 61.3216L47.5501 65.3434H47.7871L47.8228 67.0736L47.5014 67.1028Z" fill="#77829E"/>
<path d="M52.8708 65.9181L52.8221 60.4647C52.8156 59.5785 52.8058 58.6631 52.8708 57.7607C52.9974 56.0078 53.4031 54.2582 53.7959 52.567C54.3575 50.1519 54.9353 47.6524 54.6788 45.1692L55.0034 45.1367C55.2631 47.6719 54.6788 50.1973 54.1108 52.6384C53.7212 54.3166 53.3187 56.0565 53.1954 57.7802C53.1305 58.6728 53.1402 59.5817 53.1467 60.4582L53.1954 65.9116H52.8708V65.9181Z" fill="#77829E"/>
<path d="M44.4827 47.7854C44.0802 47.7854 43.6777 47.6459 43.3725 47.3894C42.9343 47.0194 42.7006 46.4156 42.7785 45.8475L43.0999 45.893C43.0349 46.3539 43.2265 46.8441 43.5803 47.1427C43.9373 47.4414 44.4535 47.542 44.8949 47.3992L44.9956 47.7075C44.83 47.7595 44.658 47.7854 44.4859 47.7854H44.4827Z" fill="#77829E"/>
<path d="M44.3922 50.642C43.4573 50.642 42.5354 50.061 42.1719 49.1878L42.4705 49.0645C42.8243 49.9182 43.8533 50.4668 44.759 50.2817L44.8239 50.5998C44.6811 50.6291 44.535 50.642 44.3922 50.642Z" fill="#77829E"/>
<path d="M42.4637 53.6868C42.3014 53.6868 42.1391 53.6738 41.9801 53.6381C41.6035 53.5505 41.1523 53.2908 41.0225 52.8136L41.3341 52.726C41.412 53.0051 41.6944 53.2388 42.0515 53.32C42.402 53.4011 42.7786 53.3492 43.1389 53.3005L43.1811 53.6219C42.9539 53.6511 42.7104 53.6835 42.4605 53.6835L42.4637 53.6868Z" fill="#77829E"/>
<path d="M41.1912 56.8322C40.8796 56.8322 40.5647 56.8225 40.2531 56.803C40.172 56.7965 39.8928 56.7673 39.75 56.5855C39.6883 56.5076 39.6623 56.4135 39.6786 56.3129L39.9999 56.3648C39.9999 56.3648 39.9999 56.3745 40.0064 56.381C40.0389 56.42 40.146 56.4654 40.2758 56.4752C40.7757 56.5076 41.2821 56.5141 41.7788 56.4914L41.7917 56.816C41.5937 56.8257 41.3925 56.829 41.1912 56.829V56.8322Z" fill="#77829E"/>
<path d="M40.9645 60.2471C40.6562 60.2471 40.3445 60.2146 40.0459 60.1497L40.1141 59.8316C40.6756 59.9517 41.2697 59.9517 41.8312 59.8284L41.8994 60.1465C41.5943 60.2114 41.2794 60.2471 40.9645 60.2471Z" fill="#77829E"/>
<path d="M48.5631 48.9638C47.8912 48.9638 47.2225 48.6392 46.8135 48.1036L47.0732 47.9088C47.4594 48.4152 48.1152 48.6976 48.7481 48.6327L48.7838 48.954C48.7124 48.9605 48.6378 48.967 48.5664 48.967L48.5631 48.9638Z" fill="#77829E"/>
<path d="M48.0079 51.9762C47.8554 51.9762 47.7061 51.9665 47.5535 51.9373C47.0276 51.8399 46.6089 51.538 46.4336 51.129L46.7322 50.9991C46.888 51.3627 47.2906 51.5575 47.6152 51.6159C48.0112 51.6906 48.4299 51.6289 48.8357 51.5705L48.8811 51.8918C48.6085 51.9308 48.3098 51.9762 48.0079 51.9762Z" fill="#77829E"/>
<path d="M47.2067 54.9691C46.8496 54.9691 46.4926 54.9528 46.1387 54.9204C45.8823 54.8976 45.5479 54.797 45.3824 54.5828C45.298 54.4724 45.2623 54.3426 45.285 54.2095L45.6064 54.2614C45.5999 54.3069 45.6064 54.3458 45.6388 54.3848C45.72 54.4886 45.9375 54.5763 46.1679 54.599C46.7263 54.6509 47.2976 54.6607 47.8592 54.6282L47.8786 54.9528C47.6547 54.9658 47.4307 54.9723 47.2067 54.9723V54.9691Z" fill="#77829E"/>
<path d="M45.5835 58.2216C44.9213 58.2216 44.2526 57.9554 43.8047 57.4685L44.0449 57.251C44.6324 57.8937 45.6647 58.0885 46.447 57.7054L46.5898 57.9976C46.2782 58.1501 45.9309 58.2216 45.5835 58.2216Z" fill="#77829E"/>
<path d="M45.4923 60.9775C44.8334 60.9775 44.1777 60.7308 43.6875 60.2926L43.905 60.0524C44.3984 60.4938 45.0866 60.7146 45.7423 60.6399L45.778 60.9613C45.6838 60.971 45.5865 60.9775 45.4923 60.9775Z" fill="#77829E"/>
<path d="M51.8546 51.6581C51.741 51.6581 51.6241 51.6451 51.5105 51.6159C51.1015 51.5153 50.7672 51.2426 50.6211 50.892L50.9197 50.7687C51.0269 51.0251 51.2768 51.2264 51.5884 51.3043C51.9001 51.3822 52.2149 51.3238 52.4292 51.1452L52.6337 51.3952C52.4227 51.5705 52.1467 51.6613 51.8546 51.6613V51.6581Z" fill="#77829E"/>
<path d="M51.5437 55.2417C51.0568 55.2417 50.5666 55.1022 50.1738 54.8198L50.3621 54.5568C51.0697 55.06 52.1182 55.0372 52.8031 54.5049L53.0012 54.7613C52.5889 55.0794 52.0663 55.2417 51.5437 55.2417Z" fill="#77829E"/>
<path d="M20.2413 43.9973C20.04 43.9973 19.8355 43.9259 19.6895 43.7863L19.9134 43.5526C20.0822 43.7149 20.3939 43.7182 20.5659 43.5526L20.7899 43.7863C20.6438 43.9259 20.4425 43.9973 20.2413 43.9973Z" fill="#77829E"/>
<path d="M21.1861 46.3734C21.0628 46.3734 20.9394 46.3637 20.8193 46.341L20.8745 46.0196C21.316 46.0975 21.7867 46.0066 22.1665 45.7697L22.3385 46.0456C21.9944 46.2566 21.5887 46.3702 21.1861 46.3702V46.3734Z" fill="#77829E"/>
<path d="M22.6077 48.8144C22.4454 48.8144 22.2863 48.8047 22.124 48.782L22.1695 48.4606C22.744 48.5418 23.3316 48.4606 23.8672 48.2334L23.9938 48.532C23.5555 48.7203 23.0816 48.8177 22.6077 48.8177V48.8144Z" fill="#77829E"/>
<path d="M24.7825 51.499C24.6202 51.499 24.4579 51.4795 24.2988 51.4373L24.3832 51.1224C25.0714 51.3075 25.8862 50.9666 26.2367 50.3434L26.5191 50.5024C26.1751 51.1192 25.4772 51.499 24.7792 51.499H24.7825Z" fill="#77829E"/>
<path d="M27.1161 53.0278L27.0771 52.7065C27.7686 52.6253 28.4275 52.3202 28.9339 51.843L29.1579 52.08C28.6028 52.6058 27.8757 52.9434 27.1161 53.0311V53.0278Z" fill="#77829E"/>
<path d="M29.9925 54.6217L29.8789 54.3166C30.3074 54.1575 30.7391 53.979 31.1611 53.7875C31.4305 53.6641 31.5636 53.5408 31.5669 53.4142H31.8915C31.8915 53.8167 31.4435 54.018 31.2974 54.0861C30.869 54.2809 30.4307 54.4594 29.9958 54.6217H29.9925Z" fill="#77829E"/>
<path d="M32.9631 55.9267L32.9111 55.6053C33.3883 55.5307 33.8525 55.3164 34.2193 55.0016L34.3329 54.9042L34.5926 55.1639L34.3621 55.3943L34.3134 55.3456C33.9207 55.6508 33.4565 55.8488 32.9598 55.9267H32.9631Z" fill="#77829E"/>
<path d="M35.3741 58.3644H34.4814V58.689H35.3741V58.3644Z" fill="#77829E"/>
<path d="M35.7589 61.0516L34.9482 61.1335L34.9809 61.4565L35.7915 61.3746L35.7589 61.0516Z" fill="#77829E"/>
<path d="M16.6223 44.7861C16.4178 44.7861 16.2133 44.7569 16.0186 44.692L16.1192 44.3836C16.7002 44.5751 17.3852 44.4128 17.8201 43.9811L18.0506 44.2116C17.6773 44.5816 17.1482 44.7861 16.6223 44.7861Z" fill="#77829E"/>
<path d="M18.3132 47.8309C17.7971 47.8309 17.2777 47.6913 16.8428 47.4219L17.0148 47.146C17.6965 47.5712 18.6054 47.6264 19.3293 47.2888L19.4656 47.5842C19.1085 47.7498 18.7093 47.8342 18.31 47.8342L18.3132 47.8309Z" fill="#77829E"/>
<path d="M19.4817 50.7914C19.0435 50.7914 18.6085 50.7167 18.1963 50.5609L18.3099 50.2558C19.1409 50.5641 20.0823 50.5317 20.8905 50.1616L21.0269 50.457C20.5432 50.6777 20.0141 50.7914 19.485 50.7914H19.4817Z" fill="#77829E"/>
<path d="M21.799 53.0507C21.6302 53.0507 21.4582 53.0279 21.2959 52.9792L21.3868 52.6676C21.9743 52.8364 22.656 52.6254 23.0455 52.1515L23.2955 52.356C22.9352 52.7942 22.3671 53.0474 21.799 53.0474V53.0507Z" fill="#77829E"/>
<path d="M24.9079 53.9321L23.6191 54.6798L23.782 54.9606L25.0708 54.2129L24.9079 53.9321Z" fill="#77829E"/>
<path d="M25.9869 56.2902L25.9414 55.9688C26.5354 55.8844 27.1067 55.5825 27.5125 55.1443L27.7527 55.365C27.2918 55.8682 26.6653 56.1993 25.9869 56.2934V56.2902Z" fill="#77829E"/>
<path d="M28.7302 57.3874L28.6426 57.0758L29.4054 56.8615C29.6943 56.7804 30.178 56.5954 30.1617 56.2675L30.4863 56.2545C30.4993 56.5434 30.337 56.9394 29.493 57.1764L28.7302 57.3906V57.3874Z" fill="#77829E"/>
<path d="M31.1608 58.9455L31.1445 58.6209C31.6282 58.5982 32.0989 58.4846 32.5436 58.2898L32.6767 58.5852C32.1963 58.7994 31.6866 58.9195 31.164 58.9455H31.1608Z" fill="#77829E"/>
<path d="M32.2555 61.3021C32.0543 61.3021 31.8562 61.2697 31.668 61.1983L31.7783 60.8931C32.1679 61.036 32.6093 60.9938 32.9664 60.786L33.1319 61.0652C32.8658 61.221 32.5606 61.3021 32.2555 61.3021Z" fill="#77829E"/>
<path d="M13.1061 46.3442C12.7068 46.3442 12.3076 46.263 11.9375 46.1072L12.0641 45.8086C12.4991 45.9936 12.9795 46.0585 13.4502 46.0001L13.4924 46.3215C13.3658 46.3377 13.2359 46.3474 13.1093 46.3474L13.1061 46.3442Z" fill="#77829E"/>
<path d="M13.4866 48.5776C13.1652 48.5776 12.8438 48.5354 12.5322 48.4542L12.6166 48.1393C13.3308 48.3276 14.1033 48.2789 14.7882 47.9998L14.9116 48.3016C14.4604 48.4867 13.9767 48.5808 13.4898 48.5808L13.4866 48.5776Z" fill="#77829E"/>
<path d="M13.8403 51.2295C13.8209 51.2295 13.8014 51.2295 13.7852 51.2295L13.7949 50.9049C14.4019 50.9212 15.0154 50.642 15.3985 50.1746L15.6484 50.3823C15.2134 50.9114 14.5253 51.2328 13.8436 51.2328L13.8403 51.2295Z" fill="#77829E"/>
<path d="M15.9366 54.3978L15.8652 54.0829C16.8196 53.8654 17.6701 53.2649 18.1927 52.4371L18.4686 52.6092C17.9005 53.5083 16.9786 54.1608 15.9399 54.3978H15.9366Z" fill="#77829E"/>
<path d="M18.3654 56.5141L18.3037 56.196C18.7809 56.1019 19.2256 55.8292 19.5242 55.4462L19.7807 55.6474C19.4333 56.0921 18.9205 56.407 18.3654 56.5174V56.5141Z" fill="#77829E"/>
<path d="M20.2864 57.9781L20.2734 57.6535C20.7831 57.634 21.2797 57.3646 21.5719 56.9491L21.838 57.1341C21.4875 57.634 20.8934 57.9554 20.2864 57.9781Z" fill="#77829E"/>
<path d="M23.2825 59.7634C23.1624 59.7634 23.0456 59.7537 22.9287 59.731L22.9904 59.4129C23.7759 59.5622 24.6394 59.1012 24.951 58.3644L25.2497 58.491C24.925 59.2506 24.107 59.7634 23.2825 59.7634Z" fill="#77829E"/>
<path d="M25.5226 61.5488C25.5064 61.5488 25.4869 61.5488 25.4707 61.5488L25.4772 61.2242C26.2952 61.2372 27.1132 60.9191 27.7072 60.3478L27.9312 60.5815C27.2885 61.195 26.4121 61.5456 25.5226 61.5456V61.5488Z" fill="#77829E"/>
<path d="M9.29599 47.4446C8.97788 47.4446 8.66301 47.3472 8.40332 47.1622L8.59159 46.896C8.88374 47.1005 9.26353 47.1687 9.60761 47.0778L9.69201 47.3926C9.56217 47.4284 9.43233 47.4446 9.29924 47.4446H9.29599Z" fill="#77829E"/>
<path d="M10.3666 49.8824C9.93491 49.8824 9.50318 49.7753 9.12988 49.5708L9.28569 49.2852C9.81805 49.5773 10.4835 49.639 11.0613 49.4475L11.1652 49.7558C10.9087 49.8402 10.6393 49.8824 10.3699 49.8824H10.3666Z" fill="#77829E"/>
<path d="M11.2987 52.2163C10.8995 52.2163 10.5034 52.1838 10.1074 52.1157L10.1626 51.7943C10.8995 51.9177 11.6461 51.9209 12.3829 51.804L12.4349 52.1254C12.0583 52.1871 11.6785 52.2163 11.2987 52.2163Z" fill="#77829E"/>
<path d="M12.064 54.7256C11.7296 54.7256 11.3985 54.6801 11.0771 54.5892L11.1648 54.2776C11.8497 54.4691 12.5898 54.4367 13.2553 54.1835L13.3721 54.4854C12.9566 54.6444 12.5119 54.7256 12.0672 54.7256H12.064Z" fill="#77829E"/>
<path d="M12.7849 56.6083L12.6875 56.2967C12.9537 56.2155 13.2199 56.2383 13.4795 56.2577C13.6029 56.2675 13.7295 56.2805 13.8528 56.2772C14.1677 56.2707 14.515 56.1019 14.5248 55.839L14.8494 55.852C14.8332 56.3097 14.3333 56.5921 13.8593 56.6018C13.7262 56.6018 13.5867 56.5921 13.4503 56.5823C13.2134 56.5629 12.9861 56.5434 12.7816 56.6051L12.7849 56.6083Z" fill="#77829E"/>
<path d="M14.619 58.6826L14.5801 58.3612C15.08 58.2996 15.5636 58.16 16.0213 57.949L16.1577 58.2444C15.6708 58.4683 15.1546 58.6177 14.6223 58.6826H14.619Z" fill="#77829E"/>
<path d="M16.6995 59.9388C16.5048 59.9388 16.3068 59.9225 16.1152 59.8901L16.1704 59.5687C16.8488 59.6856 17.5565 59.5752 18.1635 59.2571L18.3128 59.546C17.8162 59.8057 17.2579 59.9388 16.6995 59.9388Z" fill="#77829E"/>
<path d="M19.1767 61.8248C18.5761 61.8248 17.9756 61.7371 17.4043 61.5683L17.4984 61.2567C18.258 61.4839 19.0728 61.5521 19.8583 61.4612L19.8973 61.7826C19.6603 61.8118 19.4201 61.8248 19.1799 61.8248H19.1767Z" fill="#77829E"/>
<path d="M6.65665 49.1293C6.31581 49.1293 5.97497 49.0969 5.64062 49.0287L5.7023 48.7106C6.14052 48.7982 6.59172 48.8242 7.03644 48.7885L7.0624 49.1131C6.92607 49.1228 6.79298 49.1293 6.65665 49.1293Z" fill="#77829E"/>
<path d="M7.89973 51.3367C7.65627 51.2718 7.39334 51.2912 7.11742 51.3107C7.00057 51.3205 6.88695 51.3269 6.77009 51.3302C6.44873 51.3334 5.86769 51.2815 5.58203 50.8368L5.8547 50.6615C6.05271 50.9731 6.50716 51.0088 6.76036 51.0056C6.87072 51.0056 6.98109 50.9958 7.08821 50.9861C7.37711 50.9634 7.679 50.9439 7.97763 51.0218L7.89648 51.3367H7.89973Z" fill="#77829E"/>
<path d="M9.13063 54.2549C8.22173 54.1055 7.29984 53.9757 6.3877 53.8751L6.4234 53.5537C7.34204 53.6576 8.27042 53.7842 9.18256 53.9367L9.13063 54.2581V54.2549Z" fill="#77829E"/>
<path d="M8.60702 56.7642C8.11362 56.7642 7.64943 56.6506 7.30859 56.2967L7.54231 56.0728C8.01624 56.5662 8.85372 56.472 9.61331 56.3195L9.67823 56.6376C9.32765 56.709 8.9576 56.7674 8.60702 56.7674V56.7642Z" fill="#77829E"/>
<path d="M10.162 59.1371C9.45434 59.1371 8.74994 58.9358 8.14941 58.5495L8.3247 58.2769C9.05831 58.7475 9.97046 58.9196 10.8274 58.7443L10.8923 59.0624C10.6521 59.1111 10.4054 59.1371 10.162 59.1371Z" fill="#77829E"/>
</g>
</g>
</g>
<defs>
<clipPath id="clip0_2125_5174">
<rect width="62" height="62" fill="white" transform="translate(0.5 0.5)"/>
</clipPath>
</defs>
</svg>
