<svg width="62" height="62" viewBox="0 0 62 62" fill="none" xmlns="http://www.w3.org/2000/svg">
<g clip-path="url(#clip0_2125_5133)">
<path d="M31 62C48.1208 62 62 48.1208 62 31C62 13.8792 48.1208 0 31 0C13.8792 0 0 13.8792 0 31C0 48.1208 13.8792 62 31 62Z" fill="#EBDFCC"/>
<mask id="mask0_2125_5133" style="mask-type:luminance" maskUnits="userSpaceOnUse" x="0" y="0" width="62" height="62">
<path d="M31 62C48.1208 62 62 48.1208 62 31C62 13.8792 48.1208 0 31 0C13.8792 0 0 13.8792 0 31C0 48.1208 13.8792 62 31 62Z" fill="white"/>
</mask>
<g mask="url(#mask0_2125_5133)">
<path d="M21.2556 11C19.7971 11.8018 19.0616 13.4921 18.6508 15.115C17.514 19.6117 18.0999 24.3457 18.7591 28.9355C18.8291 29.4294 18.9023 29.9361 18.8227 30.4301C18.7431 30.924 18.482 31.4147 18.0426 31.6457C17.4567 31.9536 16.7211 31.729 16.1797 31.3474C15.8072 32.0209 16.0524 32.9061 16.5619 33.4803C17.0714 34.0544 17.7942 34.3879 18.4979 34.6894C20.2875 35.456 22.195 36.1391 24.1342 35.9756C24.8889 35.9114 25.6309 35.719 26.3187 35.4047C26.5161 35.3148 26.7167 35.2122 26.8632 35.0519C27.032 34.869 27.1211 34.6253 27.1912 34.3847C27.4587 33.4386 27.4523 32.4411 27.4491 31.4564C27.4364 29.3588 27.4268 27.258 27.4141 25.1604C27.4045 23.329 27.395 21.4944 27.6147 19.6791C27.7039 18.9318 27.8344 18.1909 28 17.4596" fill="#3B2E2A"/>
<path d="M25.6585 48.4443C24.6618 46.629 24.0134 44.9119 24.0005 44.6004C23.9715 43.8925 25.1198 41.803 25.6069 39.8861C26.094 37.9692 26.1327 35.9711 26.0198 34H35.0194C34.9065 35.9711 34.942 37.9692 35.4323 39.8861C35.9194 41.803 37 43.5336 37 44.2617C37 44.5767 36.4258 46.2869 35.5001 48.1259C32.3357 49.1758 28.8874 49.2774 25.6618 48.4443H25.6585Z" fill="#E3B7AA"/>
<path d="M32.5221 40.1479C32.0151 40.5867 31.4349 41.0254 30.7781 40.9988C30.4019 40.9822 30.048 40.8127 29.7228 40.6133C28.4283 39.8155 27.4368 38.5025 27 37C27.7811 37.4986 28.5654 37.9972 29.4231 38.3296C30.2807 38.662 31.2244 38.8149 32.114 38.5989C32.4551 38.5158 32.7803 38.3828 33.1023 38.2498C33.6826 38.0105 34.3936 37.5684 34.9993 37.5019C35.0248 37.9507 34.3011 38.4626 34.0205 38.7451C33.5359 39.2304 33.0322 39.6991 32.5157 40.1479H32.5221Z" fill="#D49D90"/>
<path d="M21.0557 20.1191C21.0557 20.1191 20.5704 27.5154 22.4652 31.0186C24.3599 34.5218 28.8161 38.1893 30.3973 37.9605C31.9355 38.3859 36.8374 35.3049 39.1744 32.0692C41.5115 28.8303 42 21.434 42 21.434L34.7776 13L27.0864 14.1957L24.6834 15.5976L21.0557 20.1191Z" fill="#EDC0B2"/>
<path d="M34.0017 24.9493C33.9792 25.4994 34.184 25.9714 34.4588 25.9988C34.7335 26.0261 34.9758 25.6008 34.9983 25.0507C35.0208 24.5006 34.816 24.0286 34.5412 24.0012C34.2665 23.9739 34.0242 24.3992 34.0017 24.9493Z" fill="#0A0807"/>
<path d="M26.0017 24.9493C25.9792 25.4994 26.184 25.9714 26.4588 25.9988C26.7335 26.0261 26.9758 25.6008 26.9983 25.0507C27.0208 24.5006 26.816 24.0286 26.5412 24.0012C26.2665 23.9739 26.0242 24.3992 26.0017 24.9493Z" fill="#0A0807"/>
<path d="M30.1122 27.9968C30.0763 27.9968 30.0439 27.9823 30.0116 27.9649L29.2893 27.4804C29.1995 27.4224 29.0809 27.3412 29.027 27.2164C28.9515 27.0424 29.0378 26.8393 29.2426 26.6972C29.354 26.6188 29.4762 26.5724 29.5984 26.526C29.6379 26.5115 29.6774 26.4941 29.7169 26.4796C30.3027 26.2301 30.68 25.6847 30.6369 25.1539C30.6297 25.0726 30.7051 25.0059 30.8058 25.0001C30.9064 24.9972 30.989 25.0552 30.9962 25.1364C31.0465 25.7776 30.5902 26.439 29.8858 26.7378C29.8427 26.7552 29.7996 26.7726 29.7565 26.79C29.6523 26.8306 29.5552 26.8683 29.4798 26.9205C29.4043 26.9728 29.3432 27.0598 29.372 27.1236C29.3935 27.17 29.4618 27.2164 29.5229 27.2599L30.2452 27.7444C30.3206 27.7966 30.3314 27.8866 30.2703 27.9475C30.2308 27.9852 30.1733 28.0026 30.1158 27.9997L30.1122 27.9968Z" fill="#A38375"/>
<path d="M20.9952 24.4786C20.5628 24.0697 19.9426 23.9055 19.385 24.0536C18.8275 24.2017 18.3444 24.6492 18.1327 25.2255C17.9091 25.8275 17.9836 26.5262 18.2401 27.1089C18.4965 27.6948 18.9259 28.1746 19.4029 28.5673C19.8412 28.9279 20.3302 29.2241 20.8431 29.4398C21.2397 29.6072 21.6571 29.7296 22 30" fill="#EDC0B2"/>
<path d="M18.1913 25.9969C18.1104 26.0031 18.0329 25.9506 18.016 25.8765C17.9621 25.6543 18.0531 25.4474 18.161 25.2561C18.5487 24.5584 19.0375 24.1479 19.6072 24.0306C20.0826 23.9349 20.5984 24.0676 20.949 24.3763C21.0164 24.4349 21.0164 24.5337 20.9524 24.5955C20.8883 24.6572 20.7804 24.6603 20.713 24.5986C20.4467 24.364 20.0388 24.259 19.678 24.3331C19.2094 24.4288 18.7981 24.7869 18.4576 25.3981C18.3801 25.537 18.3127 25.6851 18.343 25.8148C18.3632 25.8981 18.3059 25.9815 18.2149 25.9969C18.2048 25.9969 18.198 25.9969 18.1879 26L18.1913 25.9969Z" fill="#A38375"/>
<path d="M20.8829 28C20.8829 28 20.8732 28 20.8683 28C20.3477 27.9633 19.8344 27.6222 19.4963 27.0865C19.1581 26.5508 19.017 25.7077 19 25.1466C19 25.0677 19.0511 25.0085 19.1168 25C19.1849 25 19.2408 25.0592 19.2433 25.1353C19.2603 25.6964 19.4063 26.4662 19.6933 26.9173C19.9901 27.3853 20.4353 27.6842 20.8853 27.718C20.9535 27.7237 21.0045 27.7885 20.9997 27.8675C20.9948 27.938 20.9462 27.9944 20.8853 28H20.8829Z" fill="#A38375"/>
<path d="M25.1526 22C25.1912 22 25.2299 21.9858 25.2621 21.9479C25.7004 21.4407 26.3192 21.4454 26.9702 21.4976C27.2506 21.5165 27.5632 21.5687 27.7115 21.8531C27.7663 21.9573 27.8662 21.9763 27.9371 21.8957C28.008 21.8151 28.0209 21.6682 27.9661 21.5639C27.734 21.1183 27.3376 21.052 26.9863 21.0235C26.2709 20.9667 25.5876 20.9667 25.0623 21.5734C24.9914 21.654 24.9785 21.8009 25.0365 21.9052C25.0655 21.9621 25.1074 21.9905 25.1526 21.9953V22Z" fill="#52423A"/>
<path d="M36.83 22.9996C36.791 22.9996 36.7552 22.9782 36.7259 22.9461C36.3323 22.508 35.711 22.4225 35.0539 22.3691C34.7709 22.3442 34.4554 22.337 34.2798 22.5294C34.2147 22.6006 34.1139 22.6006 34.0488 22.5294C33.9837 22.4617 33.9837 22.3477 34.0488 22.2765C34.3188 21.9773 34.7221 21.9844 35.0767 22.0129C35.7956 22.0735 36.482 22.1696 36.9536 22.6968C37.0155 22.768 37.0155 22.8784 36.9536 22.9497C36.9179 22.9853 36.8723 23.0031 36.83 22.9996Z" fill="#52423A"/>
<path d="M23.0031 28.4039C22.9506 29.231 23.5768 29.9416 24.4039 29.9969C25.231 30.0494 25.9445 29.4232 25.9969 28.5961C26.0494 27.769 25.4232 27.0555 24.5961 27.0031C23.769 26.9506 23.0555 27.5768 23.0031 28.4039Z" fill="#E3A1A9"/>
<path d="M35.0031 29.4039C34.9506 30.231 35.5768 30.9445 36.4039 30.9969C37.231 31.0494 37.9445 30.4232 37.9969 29.5961C38.0494 28.769 37.4232 28.0584 36.5961 28.0031C35.769 27.9506 35.0584 28.5768 35.0031 29.4039Z" fill="#E3A1A9"/>
<path d="M30.3425 32.0329C31.2359 32.0893 32.1292 32.2182 33 32.4196C32.6979 32.8386 32.3991 33.1851 32.1967 33.3583C31.5283 33.9224 30.4389 34.2044 29.5488 33.8297C28.7423 33.4913 28.3246 32.7419 28 32.0369C28.7776 31.9926 29.5585 31.9845 30.3458 32.0329H30.3425Z" fill="#FF5C5C"/>
<path d="M28.6625 31.6493C28.1125 31.5403 27.5626 31.4171 27.0261 31.2559C26.9758 30.8294 26.9925 30.4076 27.1267 30C27.9482 30.3365 28.7798 30.6777 29.6483 30.8436C30.5269 31.0142 31.2915 30.9052 32.1532 30.8341C32.6596 30.7915 33.954 30.654 33.954 30.654C34.0445 30.9052 33.9942 31.2701 33.8668 31.6872C33.1861 31.9005 32.4517 32 31.7207 32C30.6979 32 29.6752 31.8436 28.6658 31.6445L28.6625 31.6493Z" fill="white"/>
<path d="M28.6779 31.3194C29.7108 31.4791 30.7608 31.6084 31.8039 31.6046C32.552 31.6046 33.3034 31.5247 34 31.3536C33.7907 31.8745 33.3755 32.4943 32.9637 33C32.0304 32.8099 31.0799 32.6882 30.126 32.635C29.2887 32.5894 28.4549 32.597 27.6211 32.6388C27.6074 32.616 27.5971 32.5932 27.5833 32.5665C27.326 32.0608 27.0789 31.5247 27 31C27.549 31.1293 28.1152 31.2281 28.6745 31.3156L28.6779 31.3194Z" fill="#212121"/>
<path d="M31 12.6616C31.9607 14.9558 36.3071 18.8389 37.6356 20.9486C38.1358 21.7446 38.5598 22.5892 39.1396 23.3334C39.5835 23.9062 40.1169 24.411 40.7165 24.8284C40.8357 24.9125 40.9682 24.9934 41.114 24.9999C41.2664 25.0031 41.4055 24.9222 41.5347 24.8446C42.4491 24.288 43.37 23.6667 43.9299 22.7672C44.1287 22.4468 44.2777 22.1006 44.4069 21.7479C45.255 19.4213 45.2186 16.7679 44.1353 14.5352C43.052 12.3024 40.8954 10.5583 38.4074 10.1085C37.3606 9.91763 36.2475 9.95969 35.2802 10.3868C34.548 10.7104 33.9285 11.2379 33.3952 11.8235" fill="#3B2E2A"/>
<path d="M21.7263 50.8341C22.8595 51.3614 32.276 53.1707 40.6021 50.8341L45 44.9893C44.1263 44.7746 43.2527 44.5599 42.3823 44.342C41.7779 44.1936 41.1769 44.0452 40.5726 43.8968C39.9354 43.7389 39.2982 43.581 38.661 43.4263C38.0862 43.2842 37.5114 43.1421 36.9399 43L26.5348 43.4515C25.6283 43.4673 24.7185 43.54 23.8087 43.6252C22.9777 43.7042 22.1467 43.7989 21.3158 43.8778C20.7574 43.9315 20.1991 43.9789 19.6407 44.0136C18.7605 44.0641 17.8802 44.1462 17 44.2504C18.1824 46.1829 20.856 50.4299 21.7263 50.8341Z" fill="#8A7976"/>
<path d="M57.9598 51.8684C57.8232 51.1123 57.3286 50.4734 56.795 49.9348C54.2569 47.3755 50.6419 46.3685 47.1994 45.4586C46.3468 45.2345 45.4911 45.007 44.6386 44.7828L40.2817 50.9752C32.0331 53.4508 22.7044 51.5339 21.5818 50.9752C20.7195 50.547 18.0709 46.0474 16.8995 44C12.5426 44.552 8.23124 45.753 4.08908 47.1748C3.48712 47.3822 2.86238 47.6231 2.45565 48.1249C1.71703 49.0382 2.00011 52.4204 2.43613 53.521C3.57172 56.3847 5.51427 55.8929 7.96767 57.6827C8.73884 58.2447 9.55881 58.7365 10.3788 59.2216C13.9971 61.366 21.5818 65.7351 21.5818 65.5143C23.3942 66.4778 36.6927 67.3309 38.3586 66.8725C38.7784 66.7588 39.1949 66.6417 39.6081 66.5246C42.2112 65.7886 44.8436 65.0426 47.2221 63.7312C50.7721 61.7708 53.5704 58.6629 56.2874 55.5985C57.218 54.5481 58.2136 53.2701 57.9598 51.8751V51.8684Z" fill="#A38F8C"/>
<path d="M36.4861 43C36.4861 43 39.4388 43.7973 42 44.5775L39.0538 49.8211C39.0538 49.8211 35.4225 51 30.186 51C24.9494 51 21.3181 49.8211 21.3181 49.8211L18 44.1959C20.7406 43.8416 24.6362 43 24.6362 43" fill="#E3B7AA"/>
<path d="M33.4326 12.8717C32.3026 13.3503 31.8763 14.7287 31.5856 15.9385C31.4402 16.5485 31.2915 17.1686 31.3311 17.7921C31.3708 18.4189 31.6252 19.0626 32.1308 19.4131C31.2386 19.3356 30.3861 18.8671 29.8343 18.1493C29.2825 17.4315 29.038 16.4744 29.1801 15.5745C28.625 16.4238 28.6944 17.6101 29.2429 18.4627C29.7914 19.3153 30.7562 19.8377 31.7508 19.9624C31.5889 20.2623 31.2122 20.3466 30.8785 20.3904C30.0095 20.5117 29.1371 20.5791 28.2615 20.5993C27.2603 20.6196 26.1898 20.5522 25.3902 19.9388C24.4187 19.1974 24.1114 17.8561 24.0255 16.6226C23.9462 17.391 23.9099 18.1661 23.9198 18.9413C23.9231 19.2884 23.9396 19.6456 24.0718 19.9691C24.2998 20.5252 24.8317 20.8723 25.3373 21.1891C24.7657 21.3711 24.194 21.5531 23.6224 21.7317C22.7897 21.9946 21.7753 22.2204 21.1409 21.6137C20.9196 21.4014 20.7841 21.115 20.6684 20.8285C20.186 19.6254 20.0175 18.3144 20.001 17.0136C19.9911 16.0935 20.0539 15.1634 20.2918 14.2771C21.0815 11.3451 25.3968 8.2581 28.3673 8.02556C31.3411 7.79302 34.3347 9.15791 36 11.6787" fill="#3B2E2A"/>
<path d="M27.7373 48.8811C25.8386 48.5813 23.9262 48.3544 22 48.1951C22.2403 48.0546 22.5562 48.0276 22.8549 48.0141C24.5099 47.9385 26.1648 48.1788 27.7854 48.457C28.1082 48.5138 28.4378 48.5705 28.7365 48.6839C29.3923 48.9297 29.8798 49.4375 30 49.9993C29.5365 50.0209 29.4094 49.5563 29.1416 49.3483C28.7708 49.0621 28.2318 48.9594 27.7373 48.8811Z" fill="#C9A291"/>
<path d="M34.2627 48.8811C36.1614 48.5813 38.0738 48.3544 40 48.1951C39.7597 48.0546 39.4438 48.0276 39.1451 48.0141C37.4901 47.9385 35.8352 48.1788 34.2146 48.457C33.8918 48.5138 33.5622 48.5705 33.2635 48.6839C32.6077 48.9297 32.1202 49.4375 32 49.9993C32.4635 50.0209 32.5906 49.5563 32.8584 49.3483C33.2292 49.0621 33.7682 48.9594 34.2627 48.8811Z" fill="#C9A291"/>
<path d="M39.6243 22.8273C40.1728 24.9275 40.7277 27.0539 40.7468 29.2294C40.7564 30.2533 40.6352 31.31 40.1632 32.2129C39.6913 33.1158 38.8111 33.8453 37.813 33.9009C37.4016 33.9238 36.9616 33.8224 36.6618 33.5313C36.362 33.2401 36.2409 32.7363 36.4577 32.3765C35.6413 32.8246 35.0737 33.721 35.0067 34.6697C34.9398 35.6184 35.3767 36.5867 36.1261 37.1494C36.598 37.506 37.172 37.699 37.746 37.8233C40.1601 38.3467 42.7909 37.6892 44.7043 36.0895C45.3357 35.5628 48.1292 32.9653 48.4704 32.2063C48.8531 31.3558 48.936 30.4005 48.9902 29.4682C49.1688 26.3865 46.8441 25.2514 46.4837 22.1861C46.2764 20.4261 45.9767 18.6595 45.3038 17.0271C44.6278 15.3947 43.5467 13.8964 42.0575 13" fill="#3B2E2A"/>
<path d="M38.9711 22.1486C39.4139 24.2539 39.7147 26.4333 39.3445 28.5554C38.9744 30.6742 37.8474 32.7424 36 33.79C36.9419 34.8746 38.5282 35.0296 39.9493 34.9959C40.1575 34.9892 40.3723 34.9824 40.564 34.9016C40.7888 34.8106 40.9672 34.6355 41.1259 34.4502C42.7122 32.6515 43.0394 30.0477 42.9964 27.6325C42.9535 25.2072 42.4875 22.5529 40.6632 21" fill="#3B2E2A"/>
<path d="M30 8.35031C30.4523 7.47056 31.2805 6.83162 32.1947 6.47201C33.1089 6.1092 34.1027 6.00645 35.0838 6.00003C35.9566 5.99361 38.2341 7.05958 38.5527 7.30039C38.9795 7.62468 39.4605 7.86228 39.9224 8.12877C42.7127 9.74058 44.7959 12.55 45.5445 15.703C45.9681 17.4882 45.9777 19.3472 45.9841 21.1838C45.9904 22.7891 45.9968 24.3945 46 25.9999C44.8979 26.0095 43.9136 25.2614 43.267 24.3656C42.6203 23.4698 42.2254 22.4135 41.703 21.4374C41.1806 20.4613 40.5276 19.5559 39.7631 18.7596C38.8839 17.8413 37.8487 17.0451 37.2053 15.947" fill="#3B2E2A"/>
<path d="M31 8.17152C29.4524 7.22939 27.544 6.83019 25.7233 7.06652C23.8992 7.30285 22.1763 8.17471 20.9557 9.47772C20.3657 10.1069 19.897 10.8222 19.4452 11.544C19.1181 12.0678 18.7978 12.5947 18.5618 13.16C17.7189 15.1592 17.965 17.4107 18.3898 19.5249C18.582 20.4766 18.8922 21.5337 19.7891 22C19.8869 20.978 19.988 19.9561 20.0858 18.9341C20.1701 18.0654 20.2578 17.184 20.605 16.3792C20.8343 15.849 21.1681 15.3636 21.539 14.9101C23.1507 12.946 25.5075 11.5408 28.0734 11.0139" fill="#3B2E2A"/>
</g>
</g>
<defs>
<clipPath id="clip0_2125_5133">
<rect width="62" height="62" fill="white"/>
</clipPath>
</defs>
</svg>
