<svg width="192" height="192" viewBox="0 0 192 192" fill="none" xmlns="http://www.w3.org/2000/svg">
<g clip-path="url(#clip0_1734_12138)">
<path d="M191.749 95.8794C191.749 111.983 187.778 127.162 180.751 140.482C177.424 146.825 173.393 152.746 168.769 158.154C167.915 159.159 167.03 160.154 166.125 161.119C163.411 164.054 160.506 166.809 157.45 169.372H157.44C156.636 170.056 155.822 170.709 154.997 171.352C154.615 171.654 154.233 171.956 153.851 172.237C152.273 173.443 150.665 174.589 149.016 175.685C145.679 177.917 142.201 179.937 138.582 181.737C136.591 182.742 134.551 183.667 132.48 184.511C130.279 185.436 128.027 186.27 125.735 187.014C125.715 187.024 125.695 187.034 125.675 187.034C116.296 190.1 106.284 191.759 95.8794 191.759C84.5805 191.759 73.734 189.799 63.6716 186.21C61.4702 185.426 59.319 184.571 57.1979 183.626H57.1878C56.1525 183.174 55.1271 182.702 54.1018 182.199C51.8098 181.093 49.5682 179.897 47.3868 178.6C45.306 177.384 43.2754 176.087 41.2951 174.71C39.9079 173.755 38.5508 172.76 37.2239 171.714H37.2138C34.1479 169.352 31.2327 166.789 28.4783 164.065C27.4027 163.009 26.3573 161.923 25.3319 160.808C22.4369 157.671 19.7529 154.334 17.3001 150.826C6.3933 135.265 0 116.316 0 95.8794C0 42.9336 42.9236 0 95.8794 0C148.835 0 191.749 42.9336 191.749 95.8794Z" fill="#EBDFCC"/>
<path d="M47.7293 164.115C47.7293 165.221 47.7192 166.336 47.7092 167.452C47.6991 168.236 47.6891 169.02 47.6689 169.804C47.6488 171.021 47.6287 172.227 47.5885 173.443C47.5684 174.298 47.5383 175.162 47.4981 176.027C47.4679 176.881 47.4377 177.746 47.3875 178.6C45.3066 177.384 43.2761 176.087 41.2958 174.71C39.9085 173.755 38.5515 172.76 37.2245 171.714H37.2145C34.1485 169.352 31.2333 166.789 28.479 164.065C27.4034 163.009 26.358 161.923 25.3326 160.808C22.4375 157.671 19.7536 154.334 17.3008 150.826C25.1014 143.528 35.9881 140.592 46.3722 137.928C46.6235 137.868 46.8748 137.798 47.1261 137.737C47.2065 139.527 47.287 141.316 47.3573 143.105C47.3875 143.879 47.4176 144.653 47.4377 145.427C47.4679 146.372 47.4981 147.317 47.5182 148.252C47.5483 149.217 47.5785 150.182 47.5986 151.147C47.6388 152.836 47.6689 154.515 47.6891 156.194C47.7092 157.4 47.7192 158.606 47.7092 159.812C47.7293 161.25 47.7293 162.677 47.7293 164.115Z" fill="white"/>
<path d="M100.264 23.4622C92.6443 19.2905 82.8834 21.3713 75.3643 25.7139C71.9766 27.6641 69.2323 30.539 66.5885 33.414C64.0352 36.1885 61.5121 39.0232 59.572 42.2601C57.9435 44.9642 56.7473 47.9196 55.8124 50.9353C50.4947 68.0042 53.42 86.41 56.3955 104.042C56.5462 104.957 56.7171 105.892 57.2197 106.666C57.8329 107.6 58.8683 108.163 59.8736 108.656C79.7471 118.517 104.134 118.718 124.158 109.189L100.264 23.4521V23.4622Z" fill="#0A0807"/>
<path d="M99.2279 24.3971C100.796 21.0295 104.737 19.4211 108.436 19.0291C116.699 18.1646 124.912 24.96 131.174 30.4285C132.752 31.8056 134.25 33.3034 135.547 34.952C143.71 45.3462 143.026 59.9522 147.127 72.5076C149.721 80.4389 154.244 87.5661 158.738 94.6027C160.286 97.0253 161.924 99.5384 164.427 100.946C161.221 103.72 157.039 105.047 152.978 106.284C134.622 111.903 115.965 117.291 96.7852 118.085L99.2178 24.387L99.2279 24.3971Z" fill="#0A0807"/>
<path d="M180.751 140.482C177.423 146.825 173.392 152.746 168.768 158.154C167.914 159.159 167.029 160.154 166.124 161.119C163.41 164.054 160.505 166.809 157.449 169.372H157.439C156.635 170.056 155.821 170.709 154.996 171.352C154.836 170.508 154.675 169.674 154.534 168.829C153.901 165.381 153.348 161.923 152.885 158.455C152.725 157.249 152.574 156.053 152.433 154.846H152.423C151.599 147.8 151.146 140.733 151.156 133.636C160.797 134.973 170.316 136.973 179.554 140.059C179.956 140.19 180.348 140.331 180.751 140.482Z" fill="white"/>
<path d="M95.2745 167.372C125.452 167.804 129.121 143.216 129.694 131.666C123.391 131.324 117.088 131.123 110.805 131.002L78.9596 129.565C74.3455 130.751 69.7415 131.927 65.1275 133.113C64.5545 140.411 64.6048 166.919 95.2846 167.362L95.2745 167.372Z" fill="white"/>
<path d="M111.372 102.524C111.02 108.374 111.13 114.305 112.658 119.995C114.176 125.685 117.202 131.143 121.957 135.023C114.237 139.446 105.943 143.015 97.2984 145.608H97.3889C88.7539 143.005 80.4507 139.446 72.7305 135.023C77.4852 131.153 80.511 125.685 82.0289 119.995C83.5468 114.305 83.6674 108.374 83.3156 102.524H111.362H111.372Z" fill="#E3B7A1"/>
<path d="M129.574 64.124C129.574 64.124 128.066 87.1942 120.929 97.2867C113.791 107.379 98.8636 116.969 94.1792 115.632C89.3641 116.336 75.8035 104.896 70.0435 93.9594C64.2835 83.0225 65.7913 59.9523 65.7913 59.9523L80.4678 47.9297L114.294 46.6631L120.426 48.7138L129.553 64.124H129.574Z" fill="#EDBFA9"/>
<path d="M67.9745 72.8494C66.6878 71.4019 64.6874 70.6178 62.7573 70.8289C60.8273 71.04 59.038 72.2262 58.093 73.915C57.1079 75.6842 57.0677 77.8756 57.6909 79.7956C58.3142 81.7156 59.5506 83.3944 60.9881 84.8218C62.315 86.1286 63.8229 87.2545 65.4514 88.1491C66.7079 88.8327 68.0549 89.4057 69.0903 90.3908L67.9745 72.8494Z" fill="#EDBFA9"/>
<path d="M114.688 48.1709C116.668 49.3973 118.719 50.5131 120.84 51.4983C121.142 51.639 121.494 51.7797 121.785 51.6289C121.986 51.5284 122.107 51.3073 122.177 51.0962C122.67 49.729 121.906 48.1609 120.74 47.2964C119.574 46.4319 118.096 46.1202 116.668 45.889C115.492 45.698 114.085 45.6277 113.331 46.5626C112.778 47.2562 113.783 47.0853 113.331 47.8493L114.688 48.181V48.1709Z" fill="#CCA592"/>
<path d="M125.546 76.609C127.003 75.3324 129.094 74.8297 130.984 75.2821C132.874 75.7344 134.492 77.1518 135.206 78.9512C135.95 80.831 135.708 83.0124 134.844 84.8318C133.969 86.6614 132.532 88.1592 130.924 89.3855C129.436 90.5114 127.797 91.4362 126.068 92.1097C124.731 92.6325 123.324 93.0145 122.168 93.8588L125.566 76.609H125.546Z" fill="#EDBFA9"/>
<path d="M99.7689 51.7897C99.4975 51.8902 99.1557 51.8601 98.9346 51.6892C98.7536 51.5485 98.6833 51.3173 98.633 51.1062C98.251 49.4576 98.4219 47.6884 99.206 46.1805C99.9901 44.6727 101.407 43.4664 103.096 42.9738C103.8 42.7728 104.544 42.6923 105.288 42.632C107.067 42.5013 108.876 42.5114 110.595 42.9939C112.344 43.4965 113.591 43.9087 114.656 45.3462C116.034 47.1958 115.812 47.3968 114.013 47.8794C109.56 49.0555 105.931 49.3973 99.7689 51.7897Z" fill="#CCA592"/>
<path d="M168.769 158.154C167.915 159.159 167.03 160.154 166.125 161.119C161.722 160.144 157.309 159.249 152.886 158.455C150.675 158.043 148.463 157.671 146.252 157.319C140.803 156.465 135.335 155.751 129.856 155.239H129.846C129.414 155.188 128.982 155.148 128.56 155.118C128.54 155.108 128.519 155.108 128.499 155.108C126.71 154.947 124.931 154.796 123.141 154.686C117.784 154.314 112.406 154.133 107.038 154.153C94.8541 154.213 82.6807 154.927 70.5777 156.334H70.5676C68.2254 156.596 65.8732 156.897 63.531 157.219H63.5209C60.9475 157.571 58.3842 157.953 55.8208 158.375C55.2478 158.465 54.6749 158.566 54.1119 158.666C51.9708 159.018 49.8397 159.4 47.7086 159.812C42.0793 160.878 36.4901 162.094 30.9312 163.461C30.117 163.662 29.3027 163.863 28.4784 164.065C27.4028 163.009 26.3574 161.923 25.332 160.808C32.7306 158.867 40.3201 157.45 47.6885 156.194C49.8095 155.832 51.9205 155.48 53.9913 155.138C54.0114 155.138 54.0215 155.128 54.0416 155.128C56.7657 154.676 59.4799 154.263 62.2141 153.871H62.2242C64.3452 153.58 66.4763 153.298 68.5974 153.047C80.7507 151.569 92.9743 150.775 105.208 150.655C111.843 150.584 118.477 150.826 125.092 151.338C126.378 151.429 127.665 151.539 128.952 151.66C128.972 151.66 128.992 151.66 129.002 151.67C129.796 151.74 130.59 151.811 131.384 151.901C136.21 152.384 141.035 153.007 145.84 153.751C148.031 154.083 150.233 154.454 152.424 154.847H152.434C157.903 155.801 163.341 156.917 168.769 158.154Z" fill="#120E0D"/>
<path d="M157.439 169.372C156.635 170.056 155.82 170.709 154.996 171.352C154.614 171.654 154.232 171.956 153.85 172.237C151.98 171.885 150.101 171.554 148.221 171.252C141.194 170.086 134.127 169.181 127.051 168.588C127.02 168.588 126.98 168.578 126.95 168.578C124.558 168.377 122.155 168.216 119.763 168.096C115.52 167.854 111.278 167.744 107.036 167.764C96.7125 167.814 86.3988 168.327 76.1253 169.352H76.1152C69.3299 170.005 62.5546 170.88 55.8195 171.986C55.2867 172.076 54.754 172.157 54.2312 172.257C52.0097 172.629 49.7982 173.021 47.5866 173.443C45.4857 173.835 43.3848 174.258 41.2939 174.71C39.9066 173.755 38.5496 172.76 37.2227 171.714C40.7309 171.011 44.2291 170.387 47.6671 169.804C49.7982 169.443 51.9091 169.091 53.99 168.739C54.0704 168.729 54.1408 168.709 54.2212 168.699C59.6796 167.804 65.1682 167.03 70.6669 166.407C74.6275 165.954 78.5881 165.572 82.5588 165.261C90.0981 164.678 97.6474 164.336 105.207 164.266C107.428 164.245 109.64 164.256 111.861 164.306H111.871C115.711 164.376 119.551 164.557 123.381 164.828C124.688 164.909 125.985 165.009 127.292 165.13C127.332 165.13 127.362 165.13 127.392 165.14C134.158 165.713 140.903 166.568 147.628 167.643C149.93 168.015 152.232 168.407 154.524 168.829C155.499 169.01 156.464 169.191 157.429 169.372H157.439Z" fill="#120E0D"/>
<path d="M138.583 181.737C136.593 182.742 134.552 183.667 132.481 184.511C130.29 184.27 128.088 184.069 125.887 183.898C125.857 183.888 125.827 183.888 125.796 183.888C119.554 183.385 113.301 183.134 107.039 183.164C92.5332 183.234 78.0378 184.23 63.6729 186.21C61.4715 185.426 59.3203 184.571 57.1992 183.626C73.0819 181.154 89.1356 179.817 105.209 179.656C112.145 179.585 119.082 179.857 125.998 180.41C126.038 180.41 126.068 180.42 126.098 180.42C130.27 180.751 134.431 181.194 138.583 181.737Z" fill="#120E0D"/>
<path d="M110.065 75.9656C109.974 77.383 108.999 78.4787 107.893 78.4083C106.787 78.338 105.963 77.1216 106.054 75.7042C106.144 74.2868 107.119 73.1911 108.225 73.2615C109.331 73.3319 110.155 74.5482 110.065 75.9656Z" fill="#0A0807"/>
<path d="M93.5479 86.0884C93.4474 86.0884 93.3468 86.0482 93.2664 85.9778L91.2057 84.3393C90.9544 84.1382 90.6126 83.8668 90.4518 83.4446C90.2306 82.8515 90.4518 82.1378 91.0147 81.6352C91.3163 81.3638 91.6681 81.1828 91.9998 81.022C92.1104 80.9617 92.221 80.9114 92.3215 80.8511C93.9399 79.9565 94.9552 78.0465 94.8044 76.2069C94.7843 75.9255 94.9854 75.6842 95.2668 75.6641C95.5483 75.644 95.7896 75.8451 95.8097 76.1265C96.0007 78.3481 94.7642 80.6601 92.8141 81.7357C92.6934 81.796 92.5728 81.8564 92.4522 81.9267C92.1607 82.0775 91.8892 82.2082 91.6882 82.3992C91.4771 82.5801 91.3163 82.8918 91.3967 83.1129C91.457 83.2737 91.658 83.4346 91.8289 83.5753L93.8897 85.2138C94.1108 85.3847 94.141 85.7064 93.9701 85.9175C93.8595 86.0482 93.6987 86.1186 93.5479 86.1085V86.0884Z" fill="#A38375"/>
<path d="M134.551 83.7864C134.551 83.7864 134.501 83.7864 134.47 83.7764C134.199 83.7161 134.028 83.4446 134.088 83.1732C134.179 82.7611 133.978 82.2786 133.747 81.8162C132.731 79.8258 131.515 78.6597 130.118 78.3481C129.042 78.1169 127.826 78.4486 127.032 79.2126C126.831 79.4036 126.509 79.3935 126.318 79.2025C126.127 79.0015 126.137 78.6798 126.328 78.4888C127.374 77.4836 128.912 77.0513 130.329 77.363C132.028 77.745 133.485 79.0819 134.641 81.3538C134.963 81.977 135.234 82.6505 135.074 83.3743C135.023 83.6155 134.792 83.7864 134.551 83.7663V83.7864Z" fill="#A38375"/>
<path d="M125.321 89.7575C125.07 89.7374 124.869 89.5464 124.849 89.2851C124.829 89.0036 125.04 88.7724 125.321 88.7523C127.181 88.6417 129.021 87.5762 130.247 85.9075C131.433 84.2991 132.036 81.5548 132.117 79.5544C132.127 79.2729 132.358 79.0618 132.64 79.0719C132.911 79.102 133.132 79.3131 133.122 79.5946C133.052 81.595 132.469 84.6007 131.061 86.5106C129.654 88.4206 127.533 89.6268 125.382 89.7575C125.362 89.7575 125.342 89.7575 125.321 89.7575Z" fill="#A38375"/>
<path d="M58.3325 78.8005C58.0912 78.7804 57.8902 78.5894 57.8701 78.3381C57.8097 77.6042 58.1616 76.9609 58.5637 76.3879C60.0011 74.287 61.6196 73.141 63.3586 72.9902C64.8062 72.8595 66.2738 73.4928 67.1785 74.6187C67.3494 74.8398 67.3193 75.1515 67.0981 75.3224C66.887 75.4932 66.5653 75.4631 66.3945 75.2419C65.7008 74.3774 64.5448 73.8849 63.4491 73.9854C62.0217 74.1161 60.6646 75.1113 59.398 76.9508C59.1065 77.373 58.8451 77.8254 58.8753 78.2476C58.8954 78.529 58.6943 78.7703 58.4129 78.7904C58.3827 78.7904 58.3626 78.7904 58.3325 78.7904V78.8005Z" fill="#A38375"/>
<path d="M66.7044 85.9276C66.7044 85.9276 66.6642 85.9276 66.6441 85.9276C64.5331 85.5155 62.5829 84.0378 61.437 81.967C60.291 79.8962 60.1101 76.8303 60.291 74.8499C60.3212 74.5685 60.5624 74.3976 60.8338 74.3976C61.1153 74.4277 61.3164 74.669 61.2862 74.9404C61.0952 76.9308 61.3365 79.7253 62.3115 81.4845C63.3067 83.2939 64.9955 84.5907 66.825 84.9425C67.0965 84.9928 67.2774 85.2541 67.2271 85.5356C67.1769 85.7869 66.9457 85.9578 66.7044 85.9377V85.9276Z" fill="#A38375"/>
<path d="M81.5135 67.19C81.6241 67.2402 81.7447 67.2503 81.8754 67.2201C83.534 66.7175 85.3334 67.4312 87.183 68.2756C87.9872 68.6375 88.8517 69.0899 89.0628 69.8237C89.1432 70.0951 89.4146 70.2459 89.6861 70.1655C89.9474 70.0851 90.1083 69.8137 90.0278 69.5422C89.6961 68.3963 88.6004 67.8132 87.5952 67.3609C85.5646 66.4361 83.5742 65.662 81.5839 66.2551C81.3225 66.3355 81.1717 66.617 81.2521 66.8784C81.2923 67.0191 81.3929 67.1297 81.5235 67.19H81.5135Z" fill="#52423A"/>
<path d="M120.296 88.9231C120.105 91.778 117.643 93.9392 114.798 93.7482C111.943 93.5572 109.782 91.0944 109.973 88.2496C110.164 85.3947 112.627 83.2335 115.471 83.4245C118.326 83.6155 120.487 86.0783 120.296 88.9231Z" fill="#E3A1A1"/>
<path d="M81.8043 86.41C81.6133 89.2649 79.1504 91.4262 76.3056 91.2352C73.4508 91.0442 71.2895 88.5814 71.4805 85.7365C71.6715 82.8817 74.1343 80.7204 76.9791 80.9114C79.834 81.1024 81.9953 83.5652 81.8043 86.41Z" fill="#E3A1A1"/>
<path d="M95.1371 100.282C92.7849 100.081 90.4125 100.101 88.0703 100.343C88.7237 101.71 89.3872 102.876 89.8596 103.469C91.4177 105.419 94.1721 106.716 96.6148 105.972C98.8263 105.298 100.173 103.248 101.249 101.278C99.2284 100.825 97.1979 100.473 95.1371 100.292V100.282Z" fill="#FF5C5C"/>
<path d="M99.0763 96.6836C100.474 96.6233 101.891 96.5328 103.278 96.3317C103.519 95.2662 103.6 94.1906 103.379 93.115C101.228 93.6478 99.0562 94.1705 96.8346 94.2509C94.593 94.3313 92.7031 93.7583 90.572 93.2457C89.3255 92.9441 86.1188 92.0796 86.1188 92.0796C85.8273 92.6827 85.8474 93.6277 86.0484 94.7234C87.697 95.5376 89.4964 96.0704 91.3259 96.372C93.8792 96.7841 96.4828 96.7841 99.0663 96.6735L99.0763 96.6836Z" fill="white"/>
<path d="M99.0764 96.6836C96.4929 96.7841 93.8894 96.7941 91.3361 96.382C89.5066 96.0905 87.6971 95.5577 86.0586 94.7334C86.3803 96.4624 87.1845 98.5734 88.0188 100.333C90.361 100.091 92.7334 100.071 95.0856 100.272C97.1463 100.453 99.187 100.805 101.197 101.257C101.238 101.187 101.278 101.117 101.318 101.046C102.132 99.5485 102.916 97.9602 103.288 96.3317C101.901 96.5328 100.484 96.6232 99.0864 96.6836H99.0764Z" fill="#212121"/>
<path d="M92.219 120.849C93.8173 122.176 95.6469 123.503 97.7176 123.423C98.9038 123.373 100.02 122.86 101.045 122.257C105.126 119.844 108.253 115.873 109.63 111.33C107.167 112.838 104.694 114.346 101.99 115.351C99.2858 116.356 96.3103 116.818 93.5057 116.165C92.4301 115.914 91.4048 115.512 90.3895 115.11C88.5599 114.386 86.3183 113.049 84.4083 112.848C84.3279 114.205 86.6098 115.753 87.4944 116.607C89.0224 118.075 90.6106 119.492 92.2391 120.849H92.219Z" fill="#BD9886"/>
<path d="M81.8366 72.1458C83.3545 72.2865 84.8825 72.5277 86.32 73.0304C87.1443 73.3219 87.9485 73.6938 88.6924 74.1462C88.9738 74.3171 89.2754 74.6488 89.0844 74.9102C89.004 75.0207 88.8632 75.0609 88.7326 75.081C87.3152 75.3927 85.8375 75.1112 84.3899 75.2519C83.4551 75.3424 82.5504 75.5937 81.6557 75.8551C81.133 76.0059 81.4345 75.7747 80.9219 75.9254L81.8467 72.1458H81.8366Z" fill="#0A0807"/>
<path d="M86.5906 39.2042C84.942 39.7571 83.6955 41.1845 82.9717 42.7627C82.248 44.341 81.9665 46.0901 81.6951 47.809C81.2628 50.5734 80.8205 53.378 81.0417 56.1726C81.0618 56.4641 81.102 56.7858 81.3131 56.9969C81.5242 57.208 81.8358 57.2582 82.1273 57.2984L92.8331 58.6756C93.768 54.9764 95.3964 51.458 97.5979 48.3518C97.6683 51.1062 98 53.8605 98.5931 56.5546C98.6936 57.0069 98.8142 57.4794 99.1259 57.8111C99.4878 58.1931 100.031 58.3338 100.553 58.4444C103.288 59.0375 106.052 59.4999 108.836 59.8316C109.279 59.8819 109.781 59.9221 110.133 59.6306C110.415 59.3994 110.515 59.0174 110.596 58.6555C111.4 55.0869 111.742 51.4178 111.591 47.7688C114.526 52.4532 117.471 57.1376 120.407 61.822C122.156 64.6166 123.915 67.4111 125.664 70.2057L128.821 75.2318C130.208 73.5833 130.932 71.4723 131.474 69.3814C133.515 61.6109 133.555 53.0463 130.047 45.8187C127.172 39.8978 122.065 35.2235 116.205 32.2379C110.344 29.2524 103.76 24.8595 97.1958 24.5077C95.2356 24.4071 93.2653 24.387 91.3252 24.6786C86.6207 25.3923 82.3384 30.9512 78.8603 34.1881C75.3822 37.4249 72.6178 41.3554 70.0042 45.3361C69.1799 46.5927 68.3556 47.8693 67.7223 49.2365C65.7018 53.5791 65.6415 58.5449 65.6113 63.3399C65.6013 65.9435 65.159 68.6677 65.6616 71.221C71.693 65.471 77.2017 58.6254 81.0618 51.2469L86.5805 39.1841L86.5906 39.2042Z" fill="#0A0807"/>
<path d="M131.895 131.776C131.715 132.932 131.544 134.008 131.383 135.043C131.544 134.018 131.715 132.932 131.895 131.776Z" fill="#2EA7AB"/>
<path d="M129.495 147.096C129.485 147.176 129.475 147.236 129.465 147.286C129.465 147.236 129.485 147.176 129.495 147.096Z" fill="#2EA7AB"/>
<path d="M125.735 187.014C128.027 186.27 130.278 185.436 132.48 184.511C134.551 183.667 136.591 182.742 138.582 181.737C142.2 179.937 145.679 177.917 149.016 175.685C148.734 174.238 148.473 172.75 148.222 171.252C148.021 170.056 147.82 168.849 147.639 167.643C147.116 164.205 146.654 160.717 146.251 157.319C146.101 156.113 145.97 154.927 145.839 153.751C144.884 145.106 144.301 137.366 144 132.782C143.698 132.751 143.407 132.721 143.105 132.691C142.13 132.591 141.155 132.5 140.18 132.41C139.034 132.299 137.888 132.209 136.732 132.118L136.37 132.088C136.31 132.681 136.239 133.294 136.159 133.908C136.139 134.109 136.119 134.31 136.089 134.501C136.008 135.114 135.918 135.727 135.807 136.35C135.707 136.973 135.596 137.597 135.475 138.23C135.445 138.381 135.415 138.542 135.385 138.692C135.254 139.376 135.103 140.07 134.943 140.753C134.892 140.984 134.842 141.206 134.792 141.427C134.742 141.628 134.691 141.819 134.641 142.02C134.54 142.442 134.43 142.874 134.319 143.296C134.088 144.141 133.847 144.985 133.586 145.83C133.455 146.252 133.324 146.674 133.183 147.086C133.053 147.508 132.912 147.931 132.751 148.343C132.61 148.765 132.46 149.177 132.299 149.589C132.198 149.891 132.078 150.192 131.957 150.484C131.776 150.966 131.585 151.439 131.384 151.901C131.093 152.615 130.781 153.309 130.449 153.992C130.258 154.414 130.057 154.826 129.846 155.239C129.756 155.44 129.655 155.641 129.555 155.842C129.243 156.435 128.931 157.008 128.61 157.571C128.469 157.822 128.328 158.063 128.167 158.315C128.167 158.315 128.147 158.385 128.127 158.405L128.067 158.496C127.916 158.757 127.755 159.018 127.594 159.28C127.273 159.792 126.941 160.305 126.589 160.808C126.478 160.978 126.358 161.139 126.247 161.3C126.137 161.461 126.016 161.622 125.895 161.783C125.694 162.064 125.493 162.326 125.282 162.597C125.071 162.868 124.87 163.13 124.649 163.381C124.438 163.632 124.237 163.874 124.026 164.115C123.815 164.356 123.604 164.597 123.382 164.829C122.84 165.412 122.277 165.975 121.694 166.507C121.121 167.03 120.528 167.523 119.914 167.985C119.864 168.025 119.814 168.055 119.764 168.096C119.623 168.196 119.472 168.307 119.321 168.407C119.17 168.508 119.01 168.608 118.849 168.709C118.215 169.111 117.522 169.483 116.788 169.825C116.607 169.915 116.416 169.995 116.225 170.076C116.004 170.176 115.773 170.267 115.552 170.357C115.33 170.448 115.099 170.538 114.858 170.619C114.627 170.709 114.386 170.79 114.144 170.88C113.863 170.981 113.581 171.071 113.29 171.162C112.898 171.282 112.496 171.393 112.084 171.503C111.581 171.644 111.058 171.775 110.535 171.895C110.063 172.006 109.58 172.106 109.088 172.207C108.344 172.348 107.59 172.478 106.816 172.589C106.303 172.659 105.791 172.73 105.258 172.79C104.735 172.85 104.202 172.911 103.66 172.961H103.65C103.388 172.981 103.127 173.001 102.855 173.021C102.453 173.051 102.041 173.082 101.629 173.102C101.217 173.132 100.805 173.152 100.393 173.162C100.292 173.172 100.192 173.172 100.081 173.172C99.7895 173.182 99.4879 173.192 99.1863 173.192C98.7641 173.202 98.3319 173.212 97.8896 173.212C97.2462 173.212 96.6029 173.202 95.9495 173.182C95.8088 173.182 95.6781 173.182 95.5474 173.172C95.1453 173.162 94.7332 173.142 94.311 173.112C93.9189 173.092 93.5269 173.071 93.1248 173.041C92.3105 172.991 91.4862 172.921 90.672 172.83C90.29 172.79 89.908 172.75 89.526 172.7C88.6917 172.599 87.8473 172.478 87.023 172.338C86.7717 172.308 86.5204 172.257 86.2691 172.207C85.8167 172.137 85.3644 172.046 84.912 171.956C84.0576 171.785 83.2232 171.594 82.3989 171.393C82.0471 171.302 81.6952 171.212 81.3535 171.121C81.072 171.041 80.7805 170.96 80.499 170.88C80.2176 170.8 79.9361 170.719 79.6647 170.629C79.2827 170.508 78.9107 170.387 78.5288 170.257C77.7045 169.985 76.9003 169.684 76.1262 169.352H76.1162C75.8247 169.231 75.5332 169.101 75.2416 168.97C74.6686 168.719 74.1158 168.447 73.5729 168.166C73.3116 168.025 73.0402 167.884 72.7788 167.734C72.4471 167.553 72.1254 167.362 71.8138 167.161C71.462 166.95 71.1302 166.728 70.7985 166.497C70.7482 166.467 70.708 166.437 70.6678 166.407C69.7128 165.723 68.8483 164.999 68.0944 164.215C67.833 163.944 67.5817 163.662 67.3304 163.371C67.1193 163.13 66.9183 162.888 66.7273 162.637C66.2247 161.994 65.7522 161.32 65.33 160.617C65.1792 160.385 65.0385 160.154 64.9078 159.913C64.7872 159.722 64.6766 159.521 64.566 159.32C64.4555 159.119 64.3549 158.918 64.2544 158.717L64.0433 158.325C63.9528 158.144 63.8624 157.953 63.7719 157.752C63.6915 157.571 63.6111 157.4 63.5306 157.219C63.41 156.958 63.2894 156.686 63.1688 156.415C62.9376 155.852 62.7164 155.289 62.5154 154.726C62.4148 154.444 62.3244 154.163 62.2238 153.871C62.1736 153.721 62.1233 153.57 62.063 153.419C61.49 151.65 61.0276 149.83 60.6657 148.031C60.5451 147.428 60.4345 146.825 60.3239 146.232C60.2134 145.558 60.1028 144.885 60.0123 144.221C59.9319 143.688 59.8716 143.156 59.8012 142.633C59.6605 141.397 59.5499 140.2 59.4695 139.064C59.4393 138.602 59.4092 138.15 59.3891 137.707C59.3489 136.953 59.3187 136.23 59.2986 135.546C59.2986 135.385 59.2885 135.234 59.2885 135.074C59.2885 134.923 59.2785 134.772 59.2785 134.621C57.3283 135.114 55.3782 135.616 53.418 136.119C53.5989 140.502 53.8603 147.348 54.0412 155.128C54.0613 156.294 54.0915 157.47 54.1116 158.666C54.1719 161.933 54.2121 165.311 54.2222 168.699C54.2322 169.885 54.2322 171.071 54.2322 172.257C54.2222 175.625 54.1819 178.972 54.1015 182.199C55.1269 182.702 56.1522 183.174 57.1876 183.626H57.1977C59.3187 184.571 61.4699 185.426 63.6714 186.21C73.7338 189.799 84.5803 191.759 95.8791 191.759C106.283 191.759 116.295 190.1 125.674 187.034L125.735 187.014Z" fill="#2EA7AB"/>
<path d="M119.913 167.985C129.644 160.637 135.132 144.794 136.369 132.088C134.881 131.977 133.393 131.867 131.896 131.776C131.715 132.932 131.544 134.018 131.383 135.043C130.77 138.954 130.297 141.939 129.976 144.01C129.925 144.332 129.875 144.633 129.835 144.905C129.664 145.97 129.553 146.704 129.493 147.096C129.483 147.167 129.473 147.237 129.463 147.287C129.433 147.478 129.433 147.478 129.463 147.287C129.463 147.237 129.483 147.177 129.493 147.096C129.553 146.704 129.664 145.98 129.835 144.905C129.875 144.633 129.925 144.332 129.976 144.01C130.297 141.959 130.77 138.974 131.383 135.043C131.544 134.018 131.715 132.932 131.896 131.776C131.162 131.736 130.428 131.696 129.694 131.656C129.121 143.206 125.452 167.794 95.2748 167.362C64.595 166.919 64.5548 140.411 65.1178 133.113C64.1728 133.355 63.238 133.596 62.2931 133.837C61.2878 134.098 60.2826 134.35 59.2773 134.611C59.398 142.07 60.6545 156.485 68.0933 164.205C78.417 174.931 109.388 175.916 119.913 167.975V167.985Z" fill="#195A5C"/>
<path d="M154.997 171.353C154.615 171.654 154.233 171.956 153.851 172.237C152.273 173.443 150.665 174.589 149.016 175.685C148.735 174.238 148.473 172.75 148.222 171.252C148.021 170.056 147.82 168.849 147.639 167.643C147.116 164.205 146.654 160.717 146.252 157.319C146.101 156.113 145.97 154.927 145.84 153.751C144.885 145.106 144.302 137.365 144 132.782C145.196 132.902 146.392 133.043 147.579 133.184C148.775 133.324 149.971 133.475 151.157 133.636C151.147 140.733 151.6 147.8 152.424 154.847H152.434C152.575 156.053 152.725 157.249 152.886 158.455C153.349 161.923 153.902 165.381 154.535 168.829C154.676 169.674 154.836 170.508 154.997 171.353Z" fill="#195A5C"/>
<path d="M54.232 172.257C54.222 175.625 54.1818 178.972 54.1013 182.199C51.8094 181.093 49.5677 179.897 47.3864 178.6C47.4366 177.746 47.4668 176.881 47.4969 176.027C47.5371 175.162 47.5673 174.298 47.5874 173.443C47.6276 172.227 47.6477 171.021 47.6678 169.804C47.6879 169.02 47.698 168.236 47.708 167.452C47.7181 166.336 47.7281 165.221 47.7281 164.115C47.7281 162.677 47.7281 161.25 47.708 159.812C47.7181 158.606 47.708 157.4 47.6879 156.194C47.6678 154.515 47.6377 152.836 47.5975 151.147C47.5774 150.182 47.5472 149.217 47.517 148.252C47.4969 147.317 47.4668 146.372 47.4366 145.427C47.4165 144.653 47.3864 143.879 47.3562 143.105C47.2858 141.316 47.2054 139.527 47.125 137.737C49.2259 137.195 51.3269 136.662 53.4178 136.119C53.5987 140.502 53.8601 147.348 54.041 155.128C54.0611 156.294 54.0913 157.47 54.1114 158.666C54.1717 161.933 54.2119 165.311 54.222 168.699C54.232 169.885 54.232 171.071 54.232 172.257Z" fill="#195A5C"/>
</g>
<defs>
<clipPath id="clip0_1734_12138">
<rect width="192" height="192" fill="white"/>
</clipPath>
</defs>
</svg>
